G75*
%MOIN*%
%OFA0B0*%
%FSLAX25Y25*%
%IPPOS*%
%LPD*%
%AMOC8*
5,1,8,0,0,1.08239X$1,22.5*
%
%ADD10C,0.00000*%
%ADD11C,0.00400*%
%ADD12C,0.00600*%
%ADD13C,0.01000*%
%ADD14C,0.00500*%
%ADD15R,0.03400X0.02400*%
%ADD16R,0.02400X0.03400*%
%ADD17C,0.00200*%
%ADD18C,0.02400*%
D10*
X0002000Y0002500D02*
X0002000Y0120461D01*
X0159701Y0120461D01*
X0159701Y0002500D01*
X0002000Y0002500D01*
D11*
X0070952Y0084336D02*
X0070952Y0089536D01*
X0073263Y0089536D01*
X0072685Y0087225D02*
X0070952Y0087225D01*
X0070952Y0084336D02*
X0073263Y0084336D01*
X0077286Y0086503D02*
X0077343Y0086467D01*
X0077399Y0086428D01*
X0077451Y0086386D01*
X0077502Y0086340D01*
X0077549Y0086292D01*
X0077594Y0086241D01*
X0077635Y0086188D01*
X0077674Y0086132D01*
X0077709Y0086074D01*
X0077741Y0086015D01*
X0077770Y0085953D01*
X0077794Y0085890D01*
X0077816Y0085826D01*
X0077833Y0085760D01*
X0077846Y0085694D01*
X0077856Y0085627D01*
X0077862Y0085560D01*
X0077864Y0085492D01*
X0077862Y0085425D01*
X0077856Y0085358D01*
X0077846Y0085291D01*
X0077833Y0085225D01*
X0077815Y0085160D01*
X0077794Y0085097D01*
X0077769Y0085034D01*
X0077741Y0084973D01*
X0077709Y0084914D01*
X0077674Y0084857D01*
X0077635Y0084802D01*
X0077594Y0084749D01*
X0077549Y0084699D01*
X0077501Y0084651D01*
X0077451Y0084606D01*
X0077398Y0084565D01*
X0077343Y0084526D01*
X0077286Y0084491D01*
X0077227Y0084459D01*
X0077166Y0084431D01*
X0077103Y0084406D01*
X0077040Y0084385D01*
X0076975Y0084367D01*
X0076909Y0084354D01*
X0076842Y0084344D01*
X0076775Y0084338D01*
X0076708Y0084336D01*
X0077286Y0086503D02*
X0075697Y0087370D01*
X0076275Y0089537D02*
X0076362Y0089535D01*
X0076449Y0089530D01*
X0076536Y0089521D01*
X0076622Y0089509D01*
X0076708Y0089493D01*
X0076793Y0089474D01*
X0076877Y0089452D01*
X0076960Y0089426D01*
X0077042Y0089397D01*
X0077123Y0089364D01*
X0077203Y0089328D01*
X0077281Y0089289D01*
X0077357Y0089247D01*
X0077432Y0089202D01*
X0077504Y0089154D01*
X0077575Y0089104D01*
X0075697Y0087370D02*
X0075640Y0087406D01*
X0075584Y0087445D01*
X0075532Y0087487D01*
X0075481Y0087533D01*
X0075434Y0087581D01*
X0075389Y0087632D01*
X0075348Y0087685D01*
X0075309Y0087741D01*
X0075274Y0087799D01*
X0075242Y0087858D01*
X0075213Y0087920D01*
X0075189Y0087983D01*
X0075167Y0088047D01*
X0075150Y0088113D01*
X0075137Y0088179D01*
X0075127Y0088246D01*
X0075121Y0088313D01*
X0075119Y0088381D01*
X0075121Y0088448D01*
X0075127Y0088515D01*
X0075137Y0088582D01*
X0075150Y0088648D01*
X0075168Y0088713D01*
X0075189Y0088776D01*
X0075214Y0088839D01*
X0075242Y0088900D01*
X0075274Y0088959D01*
X0075309Y0089016D01*
X0075348Y0089071D01*
X0075389Y0089124D01*
X0075434Y0089174D01*
X0075482Y0089222D01*
X0075532Y0089267D01*
X0075585Y0089308D01*
X0075640Y0089347D01*
X0075697Y0089382D01*
X0075756Y0089414D01*
X0075817Y0089442D01*
X0075880Y0089467D01*
X0075943Y0089488D01*
X0076008Y0089506D01*
X0076074Y0089519D01*
X0076141Y0089529D01*
X0076208Y0089535D01*
X0076275Y0089537D01*
X0074975Y0085058D02*
X0075044Y0084991D01*
X0075116Y0084927D01*
X0075190Y0084865D01*
X0075267Y0084807D01*
X0075345Y0084752D01*
X0075426Y0084699D01*
X0075509Y0084650D01*
X0075594Y0084605D01*
X0075681Y0084563D01*
X0075769Y0084524D01*
X0075859Y0084488D01*
X0075950Y0084457D01*
X0076042Y0084429D01*
X0076135Y0084404D01*
X0076229Y0084383D01*
X0076324Y0084366D01*
X0076420Y0084353D01*
X0076515Y0084344D01*
X0076612Y0084338D01*
X0076708Y0084336D01*
X0080085Y0084336D02*
X0080085Y0089536D01*
X0081530Y0089536D01*
X0081606Y0089534D01*
X0081681Y0089528D01*
X0081756Y0089518D01*
X0081830Y0089504D01*
X0081904Y0089487D01*
X0081976Y0089465D01*
X0082047Y0089440D01*
X0082117Y0089411D01*
X0082186Y0089379D01*
X0082252Y0089343D01*
X0082316Y0089303D01*
X0082379Y0089260D01*
X0082439Y0089214D01*
X0082496Y0089165D01*
X0082551Y0089113D01*
X0082603Y0089058D01*
X0082652Y0089001D01*
X0082698Y0088941D01*
X0082741Y0088878D01*
X0082781Y0088814D01*
X0082817Y0088748D01*
X0082849Y0088679D01*
X0082878Y0088609D01*
X0082903Y0088538D01*
X0082925Y0088466D01*
X0082942Y0088392D01*
X0082956Y0088318D01*
X0082966Y0088243D01*
X0082972Y0088168D01*
X0082974Y0088092D01*
X0082972Y0088016D01*
X0082966Y0087941D01*
X0082956Y0087866D01*
X0082942Y0087792D01*
X0082925Y0087718D01*
X0082903Y0087646D01*
X0082878Y0087575D01*
X0082849Y0087505D01*
X0082817Y0087436D01*
X0082781Y0087370D01*
X0082741Y0087306D01*
X0082698Y0087243D01*
X0082652Y0087183D01*
X0082603Y0087126D01*
X0082551Y0087071D01*
X0082496Y0087019D01*
X0082439Y0086970D01*
X0082379Y0086924D01*
X0082316Y0086881D01*
X0082252Y0086841D01*
X0082186Y0086805D01*
X0082117Y0086773D01*
X0082047Y0086744D01*
X0081976Y0086719D01*
X0081904Y0086697D01*
X0081830Y0086680D01*
X0081756Y0086666D01*
X0081681Y0086656D01*
X0081606Y0086650D01*
X0081530Y0086648D01*
X0081530Y0086647D02*
X0080085Y0086647D01*
X0087622Y0086358D02*
X0091088Y0086358D01*
X0095975Y0084336D02*
X0098863Y0084336D01*
X0097419Y0084336D02*
X0097419Y0089536D01*
X0095975Y0088381D01*
X0101014Y0084336D02*
X0103903Y0084336D01*
X0101014Y0084336D02*
X0103470Y0087225D01*
X0102603Y0089536D02*
X0102522Y0089534D01*
X0102442Y0089528D01*
X0102362Y0089518D01*
X0102282Y0089505D01*
X0102203Y0089487D01*
X0102125Y0089466D01*
X0102048Y0089441D01*
X0101973Y0089413D01*
X0101899Y0089380D01*
X0101826Y0089344D01*
X0101756Y0089305D01*
X0101687Y0089262D01*
X0101621Y0089217D01*
X0101557Y0089168D01*
X0101495Y0089115D01*
X0101436Y0089060D01*
X0101379Y0089003D01*
X0101326Y0088942D01*
X0101275Y0088879D01*
X0101228Y0088814D01*
X0101184Y0088746D01*
X0101143Y0088676D01*
X0101105Y0088605D01*
X0101071Y0088532D01*
X0101041Y0088457D01*
X0101014Y0088381D01*
X0103470Y0087225D02*
X0103520Y0087275D01*
X0103567Y0087328D01*
X0103612Y0087382D01*
X0103653Y0087439D01*
X0103692Y0087498D01*
X0103728Y0087559D01*
X0103761Y0087622D01*
X0103790Y0087686D01*
X0103816Y0087752D01*
X0103839Y0087819D01*
X0103859Y0087886D01*
X0103874Y0087955D01*
X0103887Y0088025D01*
X0103896Y0088095D01*
X0103901Y0088165D01*
X0103903Y0088236D01*
X0103901Y0088306D01*
X0103895Y0088377D01*
X0103886Y0088446D01*
X0103873Y0088515D01*
X0103856Y0088584D01*
X0103835Y0088651D01*
X0103811Y0088717D01*
X0103783Y0088782D01*
X0103752Y0088845D01*
X0103717Y0088906D01*
X0103679Y0088966D01*
X0103638Y0089023D01*
X0103594Y0089078D01*
X0103547Y0089130D01*
X0103497Y0089180D01*
X0103445Y0089227D01*
X0103390Y0089271D01*
X0103333Y0089312D01*
X0103273Y0089350D01*
X0103212Y0089385D01*
X0103149Y0089416D01*
X0103084Y0089444D01*
X0103018Y0089468D01*
X0102951Y0089489D01*
X0102882Y0089506D01*
X0102813Y0089519D01*
X0102744Y0089528D01*
X0102673Y0089534D01*
X0102603Y0089536D01*
X0118700Y0105200D02*
X0118700Y0109800D01*
X0120744Y0109800D01*
X0122573Y0108267D02*
X0124106Y0108267D01*
X0124106Y0107756D01*
X0125519Y0108267D02*
X0125519Y0105200D01*
X0127477Y0105967D02*
X0127477Y0109800D01*
X0126966Y0108267D02*
X0128499Y0108267D01*
X0130047Y0108267D02*
X0132091Y0108267D01*
X0130047Y0105200D01*
X0132091Y0105200D01*
X0133797Y0105967D02*
X0133797Y0107244D01*
X0133797Y0106733D02*
X0135841Y0106733D01*
X0135841Y0107244D01*
X0135839Y0107307D01*
X0135833Y0107370D01*
X0135824Y0107432D01*
X0135810Y0107493D01*
X0135793Y0107554D01*
X0135772Y0107613D01*
X0135747Y0107671D01*
X0135719Y0107728D01*
X0135688Y0107782D01*
X0135653Y0107834D01*
X0135615Y0107885D01*
X0135574Y0107933D01*
X0135530Y0107978D01*
X0135484Y0108020D01*
X0135435Y0108060D01*
X0135384Y0108096D01*
X0135330Y0108129D01*
X0135275Y0108159D01*
X0135217Y0108185D01*
X0135159Y0108208D01*
X0135099Y0108227D01*
X0135038Y0108242D01*
X0134976Y0108254D01*
X0134913Y0108262D01*
X0134850Y0108266D01*
X0134788Y0108266D01*
X0134725Y0108262D01*
X0134662Y0108254D01*
X0134600Y0108242D01*
X0134539Y0108227D01*
X0134479Y0108208D01*
X0134421Y0108185D01*
X0134363Y0108159D01*
X0134308Y0108129D01*
X0134254Y0108096D01*
X0134203Y0108060D01*
X0134154Y0108020D01*
X0134108Y0107978D01*
X0134064Y0107933D01*
X0134023Y0107885D01*
X0133985Y0107834D01*
X0133950Y0107782D01*
X0133919Y0107728D01*
X0133891Y0107671D01*
X0133866Y0107613D01*
X0133845Y0107554D01*
X0133828Y0107493D01*
X0133814Y0107432D01*
X0133805Y0107370D01*
X0133799Y0107307D01*
X0133797Y0107244D01*
X0133796Y0105967D02*
X0133798Y0105912D01*
X0133804Y0105858D01*
X0133814Y0105804D01*
X0133827Y0105751D01*
X0133844Y0105699D01*
X0133865Y0105648D01*
X0133890Y0105599D01*
X0133918Y0105552D01*
X0133949Y0105507D01*
X0133983Y0105465D01*
X0134021Y0105425D01*
X0134061Y0105387D01*
X0134103Y0105353D01*
X0134148Y0105322D01*
X0134195Y0105294D01*
X0134244Y0105269D01*
X0134295Y0105248D01*
X0134347Y0105231D01*
X0134400Y0105218D01*
X0134454Y0105208D01*
X0134508Y0105202D01*
X0134563Y0105200D01*
X0135841Y0105200D01*
X0137847Y0105200D02*
X0137847Y0108267D01*
X0139124Y0108267D01*
X0139179Y0108265D01*
X0139233Y0108259D01*
X0139287Y0108249D01*
X0139340Y0108236D01*
X0139392Y0108219D01*
X0139443Y0108198D01*
X0139492Y0108173D01*
X0139539Y0108145D01*
X0139584Y0108114D01*
X0139626Y0108080D01*
X0139666Y0108042D01*
X0139704Y0108002D01*
X0139738Y0107960D01*
X0139769Y0107915D01*
X0139797Y0107868D01*
X0139822Y0107819D01*
X0139843Y0107768D01*
X0139860Y0107716D01*
X0139873Y0107663D01*
X0139883Y0107609D01*
X0139889Y0107555D01*
X0139891Y0107500D01*
X0139891Y0105200D01*
X0142100Y0105200D02*
X0144144Y0105200D01*
X0142100Y0105200D02*
X0142100Y0109800D01*
X0143297Y0112200D02*
X0140741Y0112200D01*
X0142913Y0114756D01*
X0142147Y0116800D02*
X0142073Y0116798D01*
X0141999Y0116793D01*
X0141925Y0116783D01*
X0141852Y0116770D01*
X0141779Y0116754D01*
X0141708Y0116733D01*
X0141638Y0116709D01*
X0141569Y0116682D01*
X0141501Y0116651D01*
X0141435Y0116617D01*
X0141371Y0116580D01*
X0141309Y0116539D01*
X0141249Y0116495D01*
X0141191Y0116449D01*
X0141135Y0116399D01*
X0141082Y0116347D01*
X0141032Y0116292D01*
X0140985Y0116235D01*
X0140941Y0116175D01*
X0140899Y0116113D01*
X0140861Y0116050D01*
X0140826Y0115984D01*
X0140795Y0115917D01*
X0140767Y0115848D01*
X0140742Y0115778D01*
X0142913Y0114756D02*
X0142960Y0114803D01*
X0143004Y0114853D01*
X0143046Y0114905D01*
X0143085Y0114959D01*
X0143120Y0115015D01*
X0143153Y0115073D01*
X0143183Y0115133D01*
X0143209Y0115194D01*
X0143232Y0115257D01*
X0143251Y0115321D01*
X0143267Y0115385D01*
X0143280Y0115451D01*
X0143289Y0115517D01*
X0143294Y0115583D01*
X0143296Y0115650D01*
X0143297Y0115650D02*
X0143295Y0115717D01*
X0143289Y0115784D01*
X0143280Y0115850D01*
X0143266Y0115915D01*
X0143249Y0115980D01*
X0143228Y0116043D01*
X0143203Y0116105D01*
X0143175Y0116166D01*
X0143143Y0116225D01*
X0143108Y0116282D01*
X0143069Y0116337D01*
X0143028Y0116389D01*
X0142983Y0116439D01*
X0142936Y0116486D01*
X0142886Y0116531D01*
X0142834Y0116572D01*
X0142779Y0116611D01*
X0142722Y0116646D01*
X0142663Y0116678D01*
X0142602Y0116706D01*
X0142540Y0116731D01*
X0142477Y0116752D01*
X0142412Y0116769D01*
X0142347Y0116783D01*
X0142281Y0116792D01*
X0142214Y0116798D01*
X0142147Y0116800D01*
X0137519Y0116800D02*
X0137519Y0112200D01*
X0136241Y0112200D02*
X0138797Y0112200D01*
X0136241Y0115778D02*
X0137519Y0116800D01*
X0134252Y0113989D02*
X0131186Y0113989D01*
X0128136Y0114244D02*
X0126858Y0114244D01*
X0128136Y0114244D02*
X0128206Y0114246D01*
X0128277Y0114252D01*
X0128346Y0114261D01*
X0128415Y0114275D01*
X0128484Y0114292D01*
X0128551Y0114313D01*
X0128617Y0114338D01*
X0128681Y0114366D01*
X0128744Y0114398D01*
X0128805Y0114433D01*
X0128864Y0114472D01*
X0128921Y0114513D01*
X0128975Y0114558D01*
X0129027Y0114606D01*
X0129076Y0114656D01*
X0129123Y0114710D01*
X0129166Y0114765D01*
X0129206Y0114823D01*
X0129243Y0114883D01*
X0129276Y0114945D01*
X0129306Y0115009D01*
X0129333Y0115074D01*
X0129356Y0115140D01*
X0129375Y0115208D01*
X0129390Y0115277D01*
X0129402Y0115346D01*
X0129410Y0115416D01*
X0129414Y0115487D01*
X0129414Y0115557D01*
X0129410Y0115628D01*
X0129402Y0115698D01*
X0129390Y0115767D01*
X0129375Y0115836D01*
X0129356Y0115904D01*
X0129333Y0115970D01*
X0129306Y0116035D01*
X0129276Y0116099D01*
X0129243Y0116161D01*
X0129206Y0116221D01*
X0129166Y0116279D01*
X0129123Y0116334D01*
X0129076Y0116388D01*
X0129027Y0116438D01*
X0128975Y0116486D01*
X0128921Y0116531D01*
X0128864Y0116572D01*
X0128805Y0116611D01*
X0128744Y0116646D01*
X0128681Y0116678D01*
X0128617Y0116706D01*
X0128551Y0116731D01*
X0128484Y0116752D01*
X0128415Y0116769D01*
X0128346Y0116783D01*
X0128277Y0116792D01*
X0128206Y0116798D01*
X0128136Y0116800D01*
X0126858Y0116800D01*
X0126858Y0112200D01*
X0125647Y0109800D02*
X0125647Y0109544D01*
X0125391Y0109544D01*
X0125391Y0109800D01*
X0125647Y0109800D01*
X0122573Y0108267D02*
X0122573Y0105200D01*
X0120744Y0107756D02*
X0118700Y0107756D01*
X0118700Y0112200D02*
X0118700Y0116800D01*
X0120744Y0116800D01*
X0122419Y0115778D02*
X0122421Y0115840D01*
X0122426Y0115901D01*
X0122436Y0115962D01*
X0122449Y0116023D01*
X0122465Y0116082D01*
X0122485Y0116140D01*
X0122509Y0116197D01*
X0122536Y0116253D01*
X0122566Y0116307D01*
X0122600Y0116359D01*
X0122637Y0116408D01*
X0122676Y0116456D01*
X0122718Y0116501D01*
X0122763Y0116543D01*
X0122811Y0116583D01*
X0122860Y0116619D01*
X0122912Y0116653D01*
X0122966Y0116683D01*
X0123022Y0116710D01*
X0123079Y0116734D01*
X0123137Y0116754D01*
X0123196Y0116770D01*
X0123257Y0116783D01*
X0123318Y0116793D01*
X0123379Y0116798D01*
X0123441Y0116800D01*
X0122419Y0115778D02*
X0122421Y0115715D01*
X0122427Y0115652D01*
X0122436Y0115589D01*
X0122450Y0115527D01*
X0122467Y0115466D01*
X0122488Y0115406D01*
X0122512Y0115348D01*
X0122540Y0115291D01*
X0122572Y0115236D01*
X0122607Y0115183D01*
X0122645Y0115132D01*
X0122686Y0115084D01*
X0122729Y0115038D01*
X0122776Y0114995D01*
X0122825Y0114955D01*
X0122876Y0114918D01*
X0122930Y0114884D01*
X0122930Y0114883D02*
X0124336Y0114117D01*
X0123824Y0112200D02*
X0123734Y0112202D01*
X0123645Y0112207D01*
X0123556Y0112217D01*
X0123467Y0112230D01*
X0123379Y0112246D01*
X0123291Y0112267D01*
X0123205Y0112291D01*
X0123119Y0112318D01*
X0123035Y0112349D01*
X0122952Y0112384D01*
X0122871Y0112422D01*
X0122791Y0112463D01*
X0122714Y0112507D01*
X0122638Y0112555D01*
X0122564Y0112606D01*
X0122492Y0112660D01*
X0122423Y0112717D01*
X0122355Y0112776D01*
X0122291Y0112839D01*
X0124335Y0114116D02*
X0124389Y0114082D01*
X0124440Y0114045D01*
X0124489Y0114005D01*
X0124536Y0113962D01*
X0124579Y0113916D01*
X0124620Y0113868D01*
X0124658Y0113817D01*
X0124693Y0113764D01*
X0124725Y0113709D01*
X0124753Y0113652D01*
X0124777Y0113594D01*
X0124798Y0113534D01*
X0124815Y0113473D01*
X0124829Y0113411D01*
X0124838Y0113348D01*
X0124844Y0113285D01*
X0124846Y0113222D01*
X0124844Y0113160D01*
X0124839Y0113099D01*
X0124829Y0113038D01*
X0124816Y0112977D01*
X0124800Y0112918D01*
X0124780Y0112860D01*
X0124756Y0112803D01*
X0124729Y0112747D01*
X0124699Y0112693D01*
X0124665Y0112641D01*
X0124629Y0112592D01*
X0124589Y0112544D01*
X0124547Y0112499D01*
X0124502Y0112457D01*
X0124454Y0112417D01*
X0124405Y0112381D01*
X0124353Y0112347D01*
X0124299Y0112317D01*
X0124243Y0112290D01*
X0124186Y0112266D01*
X0124128Y0112246D01*
X0124069Y0112230D01*
X0124008Y0112217D01*
X0123947Y0112207D01*
X0123886Y0112202D01*
X0123824Y0112200D01*
X0124591Y0116417D02*
X0124524Y0116465D01*
X0124456Y0116510D01*
X0124385Y0116552D01*
X0124312Y0116590D01*
X0124238Y0116626D01*
X0124163Y0116659D01*
X0124086Y0116688D01*
X0124008Y0116714D01*
X0123929Y0116737D01*
X0123849Y0116756D01*
X0123768Y0116772D01*
X0123687Y0116784D01*
X0123605Y0116793D01*
X0123523Y0116798D01*
X0123441Y0116800D01*
X0120233Y0114756D02*
X0118700Y0114756D01*
X0118700Y0112200D02*
X0120744Y0112200D01*
X0127477Y0105967D02*
X0127479Y0105912D01*
X0127485Y0105858D01*
X0127495Y0105804D01*
X0127508Y0105751D01*
X0127525Y0105699D01*
X0127546Y0105648D01*
X0127571Y0105599D01*
X0127599Y0105552D01*
X0127630Y0105507D01*
X0127664Y0105465D01*
X0127702Y0105425D01*
X0127742Y0105387D01*
X0127784Y0105353D01*
X0127829Y0105322D01*
X0127876Y0105294D01*
X0127925Y0105269D01*
X0127976Y0105248D01*
X0128028Y0105231D01*
X0128081Y0105218D01*
X0128135Y0105208D01*
X0128189Y0105202D01*
X0128244Y0105200D01*
X0128499Y0105200D01*
X0146029Y0108267D02*
X0147051Y0108267D01*
X0147106Y0108265D01*
X0147160Y0108259D01*
X0147214Y0108249D01*
X0147267Y0108236D01*
X0147319Y0108219D01*
X0147370Y0108198D01*
X0147419Y0108173D01*
X0147466Y0108145D01*
X0147511Y0108114D01*
X0147553Y0108080D01*
X0147593Y0108042D01*
X0147631Y0108002D01*
X0147665Y0107960D01*
X0147696Y0107915D01*
X0147724Y0107868D01*
X0147749Y0107819D01*
X0147770Y0107768D01*
X0147787Y0107716D01*
X0147800Y0107663D01*
X0147810Y0107609D01*
X0147816Y0107555D01*
X0147818Y0107500D01*
X0147818Y0105200D01*
X0146668Y0105200D01*
X0146610Y0105202D01*
X0146551Y0105208D01*
X0146494Y0105217D01*
X0146437Y0105230D01*
X0146381Y0105247D01*
X0146326Y0105268D01*
X0146273Y0105292D01*
X0146221Y0105320D01*
X0146171Y0105351D01*
X0146124Y0105385D01*
X0146079Y0105422D01*
X0146036Y0105462D01*
X0145996Y0105505D01*
X0145959Y0105550D01*
X0145925Y0105597D01*
X0145894Y0105647D01*
X0145866Y0105699D01*
X0145842Y0105752D01*
X0145821Y0105807D01*
X0145804Y0105863D01*
X0145791Y0105920D01*
X0145782Y0105977D01*
X0145776Y0106036D01*
X0145774Y0106094D01*
X0145776Y0106152D01*
X0145782Y0106211D01*
X0145791Y0106268D01*
X0145804Y0106325D01*
X0145821Y0106381D01*
X0145842Y0106436D01*
X0145866Y0106489D01*
X0145894Y0106541D01*
X0145925Y0106591D01*
X0145959Y0106638D01*
X0145996Y0106683D01*
X0146036Y0106726D01*
X0146079Y0106766D01*
X0146124Y0106803D01*
X0146171Y0106837D01*
X0146221Y0106868D01*
X0146273Y0106896D01*
X0146326Y0106920D01*
X0146381Y0106941D01*
X0146437Y0106958D01*
X0146494Y0106971D01*
X0146551Y0106980D01*
X0146610Y0106986D01*
X0146668Y0106988D01*
X0146668Y0106989D02*
X0147818Y0106989D01*
X0150020Y0108267D02*
X0151298Y0108267D01*
X0151353Y0108265D01*
X0151407Y0108259D01*
X0151461Y0108249D01*
X0151514Y0108236D01*
X0151566Y0108219D01*
X0151617Y0108198D01*
X0151666Y0108173D01*
X0151713Y0108145D01*
X0151758Y0108114D01*
X0151800Y0108080D01*
X0151840Y0108042D01*
X0151878Y0108002D01*
X0151912Y0107960D01*
X0151943Y0107915D01*
X0151971Y0107868D01*
X0151996Y0107819D01*
X0152017Y0107768D01*
X0152034Y0107716D01*
X0152047Y0107663D01*
X0152057Y0107609D01*
X0152063Y0107555D01*
X0152065Y0107500D01*
X0152064Y0107500D02*
X0152064Y0105967D01*
X0152065Y0105967D02*
X0152063Y0105912D01*
X0152057Y0105858D01*
X0152047Y0105804D01*
X0152034Y0105751D01*
X0152017Y0105699D01*
X0151996Y0105648D01*
X0151971Y0105599D01*
X0151943Y0105552D01*
X0151912Y0105507D01*
X0151878Y0105465D01*
X0151840Y0105425D01*
X0151800Y0105387D01*
X0151758Y0105353D01*
X0151713Y0105322D01*
X0151666Y0105294D01*
X0151617Y0105269D01*
X0151566Y0105248D01*
X0151514Y0105231D01*
X0151461Y0105218D01*
X0151407Y0105208D01*
X0151353Y0105202D01*
X0151298Y0105200D01*
X0150020Y0105200D01*
X0150020Y0109800D01*
X0150541Y0112200D02*
X0151563Y0116800D01*
X0153141Y0116800D02*
X0153141Y0116544D01*
X0153397Y0116544D01*
X0153397Y0116800D01*
X0153141Y0116800D01*
X0155300Y0116800D02*
X0157344Y0116800D01*
X0158841Y0116800D02*
X0158841Y0116544D01*
X0159097Y0116544D01*
X0159097Y0116800D01*
X0158841Y0116800D01*
X0158969Y0115267D02*
X0158969Y0112200D01*
X0157344Y0114756D02*
X0155300Y0114756D01*
X0153269Y0115267D02*
X0153269Y0112200D01*
X0155300Y0112200D02*
X0155300Y0116800D01*
X0149519Y0115267D02*
X0148497Y0112200D01*
X0147474Y0116800D01*
X0149519Y0115267D02*
X0150541Y0112200D01*
X0148600Y0051200D02*
X0146200Y0047600D01*
X0148600Y0047600D02*
X0146200Y0051200D01*
X0151700Y0049600D02*
X0151742Y0049643D01*
X0151782Y0049688D01*
X0151818Y0049736D01*
X0151852Y0049786D01*
X0151882Y0049838D01*
X0151910Y0049892D01*
X0151933Y0049947D01*
X0151953Y0050004D01*
X0151970Y0050062D01*
X0151983Y0050120D01*
X0151993Y0050180D01*
X0151998Y0050240D01*
X0152000Y0050300D01*
X0151700Y0049600D02*
X0150000Y0047600D01*
X0152000Y0047600D01*
X0150000Y0050400D02*
X0150022Y0050462D01*
X0150048Y0050523D01*
X0150077Y0050583D01*
X0150110Y0050640D01*
X0150145Y0050696D01*
X0150184Y0050749D01*
X0150226Y0050800D01*
X0150271Y0050849D01*
X0150318Y0050895D01*
X0150368Y0050939D01*
X0150420Y0050979D01*
X0150475Y0051016D01*
X0150531Y0051050D01*
X0150590Y0051081D01*
X0150650Y0051109D01*
X0150711Y0051133D01*
X0150774Y0051153D01*
X0150838Y0051170D01*
X0150903Y0051183D01*
X0150968Y0051192D01*
X0151034Y0051198D01*
X0151100Y0051200D01*
X0151159Y0051198D01*
X0151217Y0051192D01*
X0151276Y0051183D01*
X0151333Y0051169D01*
X0151389Y0051152D01*
X0151444Y0051131D01*
X0151498Y0051107D01*
X0151550Y0051079D01*
X0151600Y0051048D01*
X0151648Y0051014D01*
X0151693Y0050977D01*
X0151736Y0050936D01*
X0151777Y0050893D01*
X0151814Y0050848D01*
X0151848Y0050800D01*
X0151879Y0050750D01*
X0151907Y0050698D01*
X0151931Y0050644D01*
X0151952Y0050589D01*
X0151969Y0050533D01*
X0151983Y0050476D01*
X0151992Y0050417D01*
X0151998Y0050359D01*
X0152000Y0050300D01*
X0064482Y0133549D02*
X0061593Y0133549D01*
X0063037Y0133549D02*
X0063037Y0138749D01*
X0061593Y0137593D01*
X0059274Y0138749D02*
X0059274Y0134993D01*
X0059273Y0134993D02*
X0059271Y0134917D01*
X0059265Y0134842D01*
X0059255Y0134767D01*
X0059241Y0134693D01*
X0059224Y0134619D01*
X0059202Y0134547D01*
X0059177Y0134476D01*
X0059148Y0134406D01*
X0059116Y0134337D01*
X0059080Y0134271D01*
X0059040Y0134207D01*
X0058997Y0134144D01*
X0058951Y0134084D01*
X0058902Y0134027D01*
X0058850Y0133972D01*
X0058795Y0133920D01*
X0058738Y0133871D01*
X0058678Y0133825D01*
X0058615Y0133782D01*
X0058551Y0133742D01*
X0058485Y0133706D01*
X0058416Y0133674D01*
X0058346Y0133645D01*
X0058275Y0133620D01*
X0058203Y0133598D01*
X0058129Y0133581D01*
X0058055Y0133567D01*
X0057980Y0133557D01*
X0057905Y0133551D01*
X0057829Y0133549D01*
X0057753Y0133551D01*
X0057678Y0133557D01*
X0057603Y0133567D01*
X0057529Y0133581D01*
X0057455Y0133598D01*
X0057383Y0133620D01*
X0057312Y0133645D01*
X0057242Y0133674D01*
X0057173Y0133706D01*
X0057107Y0133742D01*
X0057043Y0133782D01*
X0056980Y0133825D01*
X0056920Y0133871D01*
X0056863Y0133920D01*
X0056808Y0133972D01*
X0056756Y0134027D01*
X0056707Y0134084D01*
X0056661Y0134144D01*
X0056618Y0134207D01*
X0056578Y0134271D01*
X0056542Y0134337D01*
X0056510Y0134406D01*
X0056481Y0134476D01*
X0056456Y0134547D01*
X0056434Y0134619D01*
X0056417Y0134693D01*
X0056403Y0134767D01*
X0056393Y0134842D01*
X0056387Y0134917D01*
X0056385Y0134993D01*
X0056385Y0138749D01*
X0038200Y0094900D02*
X0037200Y0094100D01*
X0038200Y0094900D02*
X0038200Y0091300D01*
X0037200Y0091300D02*
X0039200Y0091300D01*
X0035800Y0091300D02*
X0033400Y0094900D01*
X0035800Y0094900D02*
X0033400Y0091300D01*
D12*
X0037800Y0092400D02*
X0018800Y0092400D01*
X0018300Y0091900D01*
X0016800Y0091900D01*
X0016740Y0091902D01*
X0016679Y0091907D01*
X0016620Y0091916D01*
X0016561Y0091929D01*
X0016502Y0091945D01*
X0016445Y0091965D01*
X0016390Y0091988D01*
X0016335Y0092015D01*
X0016283Y0092044D01*
X0016232Y0092077D01*
X0016183Y0092113D01*
X0016137Y0092151D01*
X0016093Y0092193D01*
X0016051Y0092237D01*
X0016013Y0092283D01*
X0015977Y0092332D01*
X0015944Y0092383D01*
X0015915Y0092435D01*
X0015888Y0092490D01*
X0015865Y0092545D01*
X0015845Y0092602D01*
X0015829Y0092661D01*
X0015816Y0092720D01*
X0015807Y0092779D01*
X0015802Y0092840D01*
X0015800Y0092900D01*
X0015800Y0099900D01*
X0015802Y0099960D01*
X0015807Y0100021D01*
X0015816Y0100080D01*
X0015829Y0100139D01*
X0015845Y0100198D01*
X0015865Y0100255D01*
X0015888Y0100310D01*
X0015915Y0100365D01*
X0015944Y0100417D01*
X0015977Y0100468D01*
X0016013Y0100517D01*
X0016051Y0100563D01*
X0016093Y0100607D01*
X0016137Y0100649D01*
X0016183Y0100687D01*
X0016232Y0100723D01*
X0016283Y0100756D01*
X0016335Y0100785D01*
X0016390Y0100812D01*
X0016445Y0100835D01*
X0016502Y0100855D01*
X0016561Y0100871D01*
X0016620Y0100884D01*
X0016679Y0100893D01*
X0016740Y0100898D01*
X0016800Y0100900D01*
X0018300Y0100900D01*
X0018800Y0100400D01*
X0037800Y0100400D01*
X0038300Y0100900D01*
X0039800Y0100900D01*
X0039860Y0100898D01*
X0039921Y0100893D01*
X0039980Y0100884D01*
X0040039Y0100871D01*
X0040098Y0100855D01*
X0040155Y0100835D01*
X0040210Y0100812D01*
X0040265Y0100785D01*
X0040317Y0100756D01*
X0040368Y0100723D01*
X0040417Y0100687D01*
X0040463Y0100649D01*
X0040507Y0100607D01*
X0040549Y0100563D01*
X0040587Y0100517D01*
X0040623Y0100468D01*
X0040656Y0100417D01*
X0040685Y0100365D01*
X0040712Y0100310D01*
X0040735Y0100255D01*
X0040755Y0100198D01*
X0040771Y0100139D01*
X0040784Y0100080D01*
X0040793Y0100021D01*
X0040798Y0099960D01*
X0040800Y0099900D01*
X0040800Y0092900D01*
X0040798Y0092840D01*
X0040793Y0092779D01*
X0040784Y0092720D01*
X0040771Y0092661D01*
X0040755Y0092602D01*
X0040735Y0092545D01*
X0040712Y0092490D01*
X0040685Y0092435D01*
X0040656Y0092383D01*
X0040623Y0092332D01*
X0040587Y0092283D01*
X0040549Y0092237D01*
X0040507Y0092193D01*
X0040463Y0092151D01*
X0040417Y0092113D01*
X0040368Y0092077D01*
X0040317Y0092044D01*
X0040265Y0092015D01*
X0040210Y0091988D01*
X0040155Y0091965D01*
X0040098Y0091945D01*
X0040039Y0091929D01*
X0039980Y0091916D01*
X0039921Y0091907D01*
X0039860Y0091902D01*
X0039800Y0091900D01*
X0038300Y0091900D01*
X0037800Y0092400D01*
X0038100Y0089600D02*
X0037600Y0089100D01*
X0018600Y0089100D01*
X0018100Y0089600D01*
X0016600Y0089600D01*
X0016540Y0089598D01*
X0016479Y0089593D01*
X0016420Y0089584D01*
X0016361Y0089571D01*
X0016302Y0089555D01*
X0016245Y0089535D01*
X0016190Y0089512D01*
X0016135Y0089485D01*
X0016083Y0089456D01*
X0016032Y0089423D01*
X0015983Y0089387D01*
X0015937Y0089349D01*
X0015893Y0089307D01*
X0015851Y0089263D01*
X0015813Y0089217D01*
X0015777Y0089168D01*
X0015744Y0089117D01*
X0015715Y0089065D01*
X0015688Y0089010D01*
X0015665Y0088955D01*
X0015645Y0088898D01*
X0015629Y0088839D01*
X0015616Y0088780D01*
X0015607Y0088721D01*
X0015602Y0088660D01*
X0015600Y0088600D01*
X0015600Y0081600D01*
X0015602Y0081540D01*
X0015607Y0081479D01*
X0015616Y0081420D01*
X0015629Y0081361D01*
X0015645Y0081302D01*
X0015665Y0081245D01*
X0015688Y0081190D01*
X0015715Y0081135D01*
X0015744Y0081083D01*
X0015777Y0081032D01*
X0015813Y0080983D01*
X0015851Y0080937D01*
X0015893Y0080893D01*
X0015937Y0080851D01*
X0015983Y0080813D01*
X0016032Y0080777D01*
X0016083Y0080744D01*
X0016135Y0080715D01*
X0016190Y0080688D01*
X0016245Y0080665D01*
X0016302Y0080645D01*
X0016361Y0080629D01*
X0016420Y0080616D01*
X0016479Y0080607D01*
X0016540Y0080602D01*
X0016600Y0080600D01*
X0018100Y0080600D01*
X0018600Y0081100D01*
X0037600Y0081100D01*
X0038100Y0080600D01*
X0039600Y0080600D01*
X0039660Y0080602D01*
X0039721Y0080607D01*
X0039780Y0080616D01*
X0039839Y0080629D01*
X0039898Y0080645D01*
X0039955Y0080665D01*
X0040010Y0080688D01*
X0040065Y0080715D01*
X0040117Y0080744D01*
X0040168Y0080777D01*
X0040217Y0080813D01*
X0040263Y0080851D01*
X0040307Y0080893D01*
X0040349Y0080937D01*
X0040387Y0080983D01*
X0040423Y0081032D01*
X0040456Y0081083D01*
X0040485Y0081135D01*
X0040512Y0081190D01*
X0040535Y0081245D01*
X0040555Y0081302D01*
X0040571Y0081361D01*
X0040584Y0081420D01*
X0040593Y0081479D01*
X0040598Y0081540D01*
X0040600Y0081600D01*
X0040600Y0088600D01*
X0040598Y0088660D01*
X0040593Y0088721D01*
X0040584Y0088780D01*
X0040571Y0088839D01*
X0040555Y0088898D01*
X0040535Y0088955D01*
X0040512Y0089010D01*
X0040485Y0089065D01*
X0040456Y0089117D01*
X0040423Y0089168D01*
X0040387Y0089217D01*
X0040349Y0089263D01*
X0040307Y0089307D01*
X0040263Y0089349D01*
X0040217Y0089387D01*
X0040168Y0089423D01*
X0040117Y0089456D01*
X0040065Y0089485D01*
X0040010Y0089512D01*
X0039955Y0089535D01*
X0039898Y0089555D01*
X0039839Y0089571D01*
X0039780Y0089584D01*
X0039721Y0089593D01*
X0039660Y0089598D01*
X0039600Y0089600D01*
X0038100Y0089600D01*
X0033600Y0075500D02*
X0030100Y0075500D01*
X0020600Y0075500D01*
X0016600Y0075500D01*
X0013100Y0067500D02*
X0013100Y0066500D01*
X0012100Y0066500D01*
X0012100Y0060500D01*
X0013100Y0060500D01*
X0013100Y0059500D01*
X0016600Y0051500D02*
X0020100Y0051500D01*
X0030100Y0051500D01*
X0033600Y0051500D01*
X0037100Y0059500D02*
X0037100Y0060500D01*
X0038100Y0060500D01*
X0038100Y0066500D01*
X0037100Y0066500D01*
X0037100Y0067500D01*
X0024100Y0063500D02*
X0024102Y0063563D01*
X0024108Y0063625D01*
X0024118Y0063687D01*
X0024131Y0063749D01*
X0024149Y0063809D01*
X0024170Y0063868D01*
X0024195Y0063926D01*
X0024224Y0063982D01*
X0024256Y0064036D01*
X0024291Y0064088D01*
X0024329Y0064137D01*
X0024371Y0064185D01*
X0024415Y0064229D01*
X0024463Y0064271D01*
X0024512Y0064309D01*
X0024564Y0064344D01*
X0024618Y0064376D01*
X0024674Y0064405D01*
X0024732Y0064430D01*
X0024791Y0064451D01*
X0024851Y0064469D01*
X0024913Y0064482D01*
X0024975Y0064492D01*
X0025037Y0064498D01*
X0025100Y0064500D01*
X0025163Y0064498D01*
X0025225Y0064492D01*
X0025287Y0064482D01*
X0025349Y0064469D01*
X0025409Y0064451D01*
X0025468Y0064430D01*
X0025526Y0064405D01*
X0025582Y0064376D01*
X0025636Y0064344D01*
X0025688Y0064309D01*
X0025737Y0064271D01*
X0025785Y0064229D01*
X0025829Y0064185D01*
X0025871Y0064137D01*
X0025909Y0064088D01*
X0025944Y0064036D01*
X0025976Y0063982D01*
X0026005Y0063926D01*
X0026030Y0063868D01*
X0026051Y0063809D01*
X0026069Y0063749D01*
X0026082Y0063687D01*
X0026092Y0063625D01*
X0026098Y0063563D01*
X0026100Y0063500D01*
X0026098Y0063437D01*
X0026092Y0063375D01*
X0026082Y0063313D01*
X0026069Y0063251D01*
X0026051Y0063191D01*
X0026030Y0063132D01*
X0026005Y0063074D01*
X0025976Y0063018D01*
X0025944Y0062964D01*
X0025909Y0062912D01*
X0025871Y0062863D01*
X0025829Y0062815D01*
X0025785Y0062771D01*
X0025737Y0062729D01*
X0025688Y0062691D01*
X0025636Y0062656D01*
X0025582Y0062624D01*
X0025526Y0062595D01*
X0025468Y0062570D01*
X0025409Y0062549D01*
X0025349Y0062531D01*
X0025287Y0062518D01*
X0025225Y0062508D01*
X0025163Y0062502D01*
X0025100Y0062500D01*
X0025037Y0062502D01*
X0024975Y0062508D01*
X0024913Y0062518D01*
X0024851Y0062531D01*
X0024791Y0062549D01*
X0024732Y0062570D01*
X0024674Y0062595D01*
X0024618Y0062624D01*
X0024564Y0062656D01*
X0024512Y0062691D01*
X0024463Y0062729D01*
X0024415Y0062771D01*
X0024371Y0062815D01*
X0024329Y0062863D01*
X0024291Y0062912D01*
X0024256Y0062964D01*
X0024224Y0063018D01*
X0024195Y0063074D01*
X0024170Y0063132D01*
X0024149Y0063191D01*
X0024131Y0063251D01*
X0024118Y0063313D01*
X0024108Y0063375D01*
X0024102Y0063437D01*
X0024100Y0063500D01*
X0018100Y0063500D02*
X0018102Y0063672D01*
X0018108Y0063843D01*
X0018119Y0064015D01*
X0018134Y0064186D01*
X0018153Y0064357D01*
X0018176Y0064527D01*
X0018203Y0064697D01*
X0018235Y0064866D01*
X0018270Y0065034D01*
X0018310Y0065201D01*
X0018354Y0065367D01*
X0018401Y0065532D01*
X0018453Y0065696D01*
X0018509Y0065858D01*
X0018569Y0066019D01*
X0018633Y0066179D01*
X0018701Y0066337D01*
X0018772Y0066493D01*
X0018847Y0066647D01*
X0018927Y0066800D01*
X0019009Y0066950D01*
X0019096Y0067099D01*
X0019186Y0067245D01*
X0019280Y0067389D01*
X0019377Y0067531D01*
X0019478Y0067670D01*
X0019582Y0067807D01*
X0019689Y0067941D01*
X0019800Y0068072D01*
X0019913Y0068201D01*
X0020030Y0068327D01*
X0020150Y0068450D01*
X0020273Y0068570D01*
X0020399Y0068687D01*
X0020528Y0068800D01*
X0020659Y0068911D01*
X0020793Y0069018D01*
X0020930Y0069122D01*
X0021069Y0069223D01*
X0021211Y0069320D01*
X0021355Y0069414D01*
X0021501Y0069504D01*
X0021650Y0069591D01*
X0021800Y0069673D01*
X0021953Y0069753D01*
X0022107Y0069828D01*
X0022263Y0069899D01*
X0022421Y0069967D01*
X0022581Y0070031D01*
X0022742Y0070091D01*
X0022904Y0070147D01*
X0023068Y0070199D01*
X0023233Y0070246D01*
X0023399Y0070290D01*
X0023566Y0070330D01*
X0023734Y0070365D01*
X0023903Y0070397D01*
X0024073Y0070424D01*
X0024243Y0070447D01*
X0024414Y0070466D01*
X0024585Y0070481D01*
X0024757Y0070492D01*
X0024928Y0070498D01*
X0025100Y0070500D01*
X0025272Y0070498D01*
X0025443Y0070492D01*
X0025615Y0070481D01*
X0025786Y0070466D01*
X0025957Y0070447D01*
X0026127Y0070424D01*
X0026297Y0070397D01*
X0026466Y0070365D01*
X0026634Y0070330D01*
X0026801Y0070290D01*
X0026967Y0070246D01*
X0027132Y0070199D01*
X0027296Y0070147D01*
X0027458Y0070091D01*
X0027619Y0070031D01*
X0027779Y0069967D01*
X0027937Y0069899D01*
X0028093Y0069828D01*
X0028247Y0069753D01*
X0028400Y0069673D01*
X0028550Y0069591D01*
X0028699Y0069504D01*
X0028845Y0069414D01*
X0028989Y0069320D01*
X0029131Y0069223D01*
X0029270Y0069122D01*
X0029407Y0069018D01*
X0029541Y0068911D01*
X0029672Y0068800D01*
X0029801Y0068687D01*
X0029927Y0068570D01*
X0030050Y0068450D01*
X0030170Y0068327D01*
X0030287Y0068201D01*
X0030400Y0068072D01*
X0030511Y0067941D01*
X0030618Y0067807D01*
X0030722Y0067670D01*
X0030823Y0067531D01*
X0030920Y0067389D01*
X0031014Y0067245D01*
X0031104Y0067099D01*
X0031191Y0066950D01*
X0031273Y0066800D01*
X0031353Y0066647D01*
X0031428Y0066493D01*
X0031499Y0066337D01*
X0031567Y0066179D01*
X0031631Y0066019D01*
X0031691Y0065858D01*
X0031747Y0065696D01*
X0031799Y0065532D01*
X0031846Y0065367D01*
X0031890Y0065201D01*
X0031930Y0065034D01*
X0031965Y0064866D01*
X0031997Y0064697D01*
X0032024Y0064527D01*
X0032047Y0064357D01*
X0032066Y0064186D01*
X0032081Y0064015D01*
X0032092Y0063843D01*
X0032098Y0063672D01*
X0032100Y0063500D01*
X0032098Y0063328D01*
X0032092Y0063157D01*
X0032081Y0062985D01*
X0032066Y0062814D01*
X0032047Y0062643D01*
X0032024Y0062473D01*
X0031997Y0062303D01*
X0031965Y0062134D01*
X0031930Y0061966D01*
X0031890Y0061799D01*
X0031846Y0061633D01*
X0031799Y0061468D01*
X0031747Y0061304D01*
X0031691Y0061142D01*
X0031631Y0060981D01*
X0031567Y0060821D01*
X0031499Y0060663D01*
X0031428Y0060507D01*
X0031353Y0060353D01*
X0031273Y0060200D01*
X0031191Y0060050D01*
X0031104Y0059901D01*
X0031014Y0059755D01*
X0030920Y0059611D01*
X0030823Y0059469D01*
X0030722Y0059330D01*
X0030618Y0059193D01*
X0030511Y0059059D01*
X0030400Y0058928D01*
X0030287Y0058799D01*
X0030170Y0058673D01*
X0030050Y0058550D01*
X0029927Y0058430D01*
X0029801Y0058313D01*
X0029672Y0058200D01*
X0029541Y0058089D01*
X0029407Y0057982D01*
X0029270Y0057878D01*
X0029131Y0057777D01*
X0028989Y0057680D01*
X0028845Y0057586D01*
X0028699Y0057496D01*
X0028550Y0057409D01*
X0028400Y0057327D01*
X0028247Y0057247D01*
X0028093Y0057172D01*
X0027937Y0057101D01*
X0027779Y0057033D01*
X0027619Y0056969D01*
X0027458Y0056909D01*
X0027296Y0056853D01*
X0027132Y0056801D01*
X0026967Y0056754D01*
X0026801Y0056710D01*
X0026634Y0056670D01*
X0026466Y0056635D01*
X0026297Y0056603D01*
X0026127Y0056576D01*
X0025957Y0056553D01*
X0025786Y0056534D01*
X0025615Y0056519D01*
X0025443Y0056508D01*
X0025272Y0056502D01*
X0025100Y0056500D01*
X0024928Y0056502D01*
X0024757Y0056508D01*
X0024585Y0056519D01*
X0024414Y0056534D01*
X0024243Y0056553D01*
X0024073Y0056576D01*
X0023903Y0056603D01*
X0023734Y0056635D01*
X0023566Y0056670D01*
X0023399Y0056710D01*
X0023233Y0056754D01*
X0023068Y0056801D01*
X0022904Y0056853D01*
X0022742Y0056909D01*
X0022581Y0056969D01*
X0022421Y0057033D01*
X0022263Y0057101D01*
X0022107Y0057172D01*
X0021953Y0057247D01*
X0021800Y0057327D01*
X0021650Y0057409D01*
X0021501Y0057496D01*
X0021355Y0057586D01*
X0021211Y0057680D01*
X0021069Y0057777D01*
X0020930Y0057878D01*
X0020793Y0057982D01*
X0020659Y0058089D01*
X0020528Y0058200D01*
X0020399Y0058313D01*
X0020273Y0058430D01*
X0020150Y0058550D01*
X0020030Y0058673D01*
X0019913Y0058799D01*
X0019800Y0058928D01*
X0019689Y0059059D01*
X0019582Y0059193D01*
X0019478Y0059330D01*
X0019377Y0059469D01*
X0019280Y0059611D01*
X0019186Y0059755D01*
X0019096Y0059901D01*
X0019009Y0060050D01*
X0018927Y0060200D01*
X0018847Y0060353D01*
X0018772Y0060507D01*
X0018701Y0060663D01*
X0018633Y0060821D01*
X0018569Y0060981D01*
X0018509Y0061142D01*
X0018453Y0061304D01*
X0018401Y0061468D01*
X0018354Y0061633D01*
X0018310Y0061799D01*
X0018270Y0061966D01*
X0018235Y0062134D01*
X0018203Y0062303D01*
X0018176Y0062473D01*
X0018153Y0062643D01*
X0018134Y0062814D01*
X0018119Y0062985D01*
X0018108Y0063157D01*
X0018102Y0063328D01*
X0018100Y0063500D01*
X0018300Y0040300D02*
X0011300Y0040300D01*
X0011240Y0040298D01*
X0011179Y0040293D01*
X0011120Y0040284D01*
X0011061Y0040271D01*
X0011002Y0040255D01*
X0010945Y0040235D01*
X0010890Y0040212D01*
X0010835Y0040185D01*
X0010783Y0040156D01*
X0010732Y0040123D01*
X0010683Y0040087D01*
X0010637Y0040049D01*
X0010593Y0040007D01*
X0010551Y0039963D01*
X0010513Y0039917D01*
X0010477Y0039868D01*
X0010444Y0039817D01*
X0010415Y0039765D01*
X0010388Y0039710D01*
X0010365Y0039655D01*
X0010345Y0039598D01*
X0010329Y0039539D01*
X0010316Y0039480D01*
X0010307Y0039421D01*
X0010302Y0039360D01*
X0010300Y0039300D01*
X0010300Y0037800D01*
X0010800Y0037300D01*
X0010800Y0018300D01*
X0010300Y0017800D01*
X0010300Y0016300D01*
X0010302Y0016240D01*
X0010307Y0016179D01*
X0010316Y0016120D01*
X0010329Y0016061D01*
X0010345Y0016002D01*
X0010365Y0015945D01*
X0010388Y0015890D01*
X0010415Y0015835D01*
X0010444Y0015783D01*
X0010477Y0015732D01*
X0010513Y0015683D01*
X0010551Y0015637D01*
X0010593Y0015593D01*
X0010637Y0015551D01*
X0010683Y0015513D01*
X0010732Y0015477D01*
X0010783Y0015444D01*
X0010835Y0015415D01*
X0010890Y0015388D01*
X0010945Y0015365D01*
X0011002Y0015345D01*
X0011061Y0015329D01*
X0011120Y0015316D01*
X0011179Y0015307D01*
X0011240Y0015302D01*
X0011300Y0015300D01*
X0018300Y0015300D01*
X0018360Y0015302D01*
X0018421Y0015307D01*
X0018480Y0015316D01*
X0018539Y0015329D01*
X0018598Y0015345D01*
X0018655Y0015365D01*
X0018710Y0015388D01*
X0018765Y0015415D01*
X0018817Y0015444D01*
X0018868Y0015477D01*
X0018917Y0015513D01*
X0018963Y0015551D01*
X0019007Y0015593D01*
X0019049Y0015637D01*
X0019087Y0015683D01*
X0019123Y0015732D01*
X0019156Y0015783D01*
X0019185Y0015835D01*
X0019212Y0015890D01*
X0019235Y0015945D01*
X0019255Y0016002D01*
X0019271Y0016061D01*
X0019284Y0016120D01*
X0019293Y0016179D01*
X0019298Y0016240D01*
X0019300Y0016300D01*
X0019300Y0017800D01*
X0018800Y0018300D01*
X0018800Y0037300D01*
X0019300Y0037800D01*
X0019300Y0039300D01*
X0019298Y0039360D01*
X0019293Y0039421D01*
X0019284Y0039480D01*
X0019271Y0039539D01*
X0019255Y0039598D01*
X0019235Y0039655D01*
X0019212Y0039710D01*
X0019185Y0039765D01*
X0019156Y0039817D01*
X0019123Y0039868D01*
X0019087Y0039917D01*
X0019049Y0039963D01*
X0019007Y0040007D01*
X0018963Y0040049D01*
X0018917Y0040087D01*
X0018868Y0040123D01*
X0018817Y0040156D01*
X0018765Y0040185D01*
X0018710Y0040212D01*
X0018655Y0040235D01*
X0018598Y0040255D01*
X0018539Y0040271D01*
X0018480Y0040284D01*
X0018421Y0040293D01*
X0018360Y0040298D01*
X0018300Y0040300D01*
X0020600Y0039000D02*
X0020600Y0037500D01*
X0021100Y0037000D01*
X0021100Y0018000D01*
X0020600Y0017500D01*
X0020600Y0016000D01*
X0020602Y0015940D01*
X0020607Y0015879D01*
X0020616Y0015820D01*
X0020629Y0015761D01*
X0020645Y0015702D01*
X0020665Y0015645D01*
X0020688Y0015590D01*
X0020715Y0015535D01*
X0020744Y0015483D01*
X0020777Y0015432D01*
X0020813Y0015383D01*
X0020851Y0015337D01*
X0020893Y0015293D01*
X0020937Y0015251D01*
X0020983Y0015213D01*
X0021032Y0015177D01*
X0021083Y0015144D01*
X0021135Y0015115D01*
X0021190Y0015088D01*
X0021245Y0015065D01*
X0021302Y0015045D01*
X0021361Y0015029D01*
X0021420Y0015016D01*
X0021479Y0015007D01*
X0021540Y0015002D01*
X0021600Y0015000D01*
X0028600Y0015000D01*
X0028660Y0015002D01*
X0028721Y0015007D01*
X0028780Y0015016D01*
X0028839Y0015029D01*
X0028898Y0015045D01*
X0028955Y0015065D01*
X0029010Y0015088D01*
X0029065Y0015115D01*
X0029117Y0015144D01*
X0029168Y0015177D01*
X0029217Y0015213D01*
X0029263Y0015251D01*
X0029307Y0015293D01*
X0029349Y0015337D01*
X0029387Y0015383D01*
X0029423Y0015432D01*
X0029456Y0015483D01*
X0029485Y0015535D01*
X0029512Y0015590D01*
X0029535Y0015645D01*
X0029555Y0015702D01*
X0029571Y0015761D01*
X0029584Y0015820D01*
X0029593Y0015879D01*
X0029598Y0015940D01*
X0029600Y0016000D01*
X0029600Y0017500D01*
X0029100Y0018000D01*
X0029100Y0037000D01*
X0029600Y0037500D01*
X0029600Y0039000D01*
X0029598Y0039060D01*
X0029593Y0039121D01*
X0029584Y0039180D01*
X0029571Y0039239D01*
X0029555Y0039298D01*
X0029535Y0039355D01*
X0029512Y0039410D01*
X0029485Y0039465D01*
X0029456Y0039517D01*
X0029423Y0039568D01*
X0029387Y0039617D01*
X0029349Y0039663D01*
X0029307Y0039707D01*
X0029263Y0039749D01*
X0029217Y0039787D01*
X0029168Y0039823D01*
X0029117Y0039856D01*
X0029065Y0039885D01*
X0029010Y0039912D01*
X0028955Y0039935D01*
X0028898Y0039955D01*
X0028839Y0039971D01*
X0028780Y0039984D01*
X0028721Y0039993D01*
X0028660Y0039998D01*
X0028600Y0040000D01*
X0021600Y0040000D01*
X0021540Y0039998D01*
X0021479Y0039993D01*
X0021420Y0039984D01*
X0021361Y0039971D01*
X0021302Y0039955D01*
X0021245Y0039935D01*
X0021190Y0039912D01*
X0021135Y0039885D01*
X0021083Y0039856D01*
X0021032Y0039823D01*
X0020983Y0039787D01*
X0020937Y0039749D01*
X0020893Y0039707D01*
X0020851Y0039663D01*
X0020813Y0039617D01*
X0020777Y0039568D01*
X0020744Y0039517D01*
X0020715Y0039465D01*
X0020688Y0039410D01*
X0020665Y0039355D01*
X0020645Y0039298D01*
X0020629Y0039239D01*
X0020616Y0039180D01*
X0020607Y0039121D01*
X0020602Y0039060D01*
X0020600Y0039000D01*
X0030900Y0019200D02*
X0039900Y0019200D01*
X0040900Y0018200D01*
X0041900Y0019200D01*
X0049900Y0019200D01*
X0050900Y0018200D01*
X0051900Y0019200D01*
X0059900Y0019200D01*
X0060900Y0018200D01*
X0061900Y0019200D01*
X0069900Y0019200D01*
X0070900Y0018200D01*
X0071900Y0019200D01*
X0079900Y0019200D01*
X0080900Y0018200D01*
X0081900Y0019200D01*
X0089900Y0019200D01*
X0090900Y0018200D01*
X0091900Y0019200D01*
X0099900Y0019200D01*
X0100900Y0018200D01*
X0101900Y0019200D01*
X0109900Y0019200D01*
X0110900Y0018200D01*
X0111900Y0019200D01*
X0119900Y0019200D01*
X0120900Y0018200D01*
X0121900Y0019200D01*
X0130900Y0019200D01*
X0130900Y0009200D01*
X0121900Y0009200D01*
X0120900Y0010200D01*
X0119900Y0009200D01*
X0111900Y0009200D01*
X0110900Y0010200D01*
X0109900Y0009200D01*
X0101900Y0009200D01*
X0100900Y0010200D01*
X0099900Y0009200D01*
X0091900Y0009200D01*
X0090900Y0010200D01*
X0089900Y0009200D01*
X0081900Y0009200D01*
X0080900Y0010200D01*
X0079900Y0009200D01*
X0071900Y0009200D01*
X0070900Y0010200D01*
X0069900Y0009200D01*
X0061900Y0009200D01*
X0060900Y0010200D01*
X0059900Y0009200D01*
X0051900Y0009200D01*
X0050900Y0010200D01*
X0049900Y0009200D01*
X0041900Y0009200D01*
X0040900Y0010200D01*
X0039900Y0009200D01*
X0030900Y0009200D01*
X0030900Y0019200D01*
X0071700Y0022300D02*
X0071700Y0032300D01*
X0071702Y0032360D01*
X0071707Y0032421D01*
X0071716Y0032480D01*
X0071729Y0032539D01*
X0071745Y0032598D01*
X0071765Y0032655D01*
X0071788Y0032710D01*
X0071815Y0032765D01*
X0071844Y0032817D01*
X0071877Y0032868D01*
X0071913Y0032917D01*
X0071951Y0032963D01*
X0071993Y0033007D01*
X0072037Y0033049D01*
X0072083Y0033087D01*
X0072132Y0033123D01*
X0072183Y0033156D01*
X0072235Y0033185D01*
X0072290Y0033212D01*
X0072345Y0033235D01*
X0072402Y0033255D01*
X0072461Y0033271D01*
X0072520Y0033284D01*
X0072579Y0033293D01*
X0072640Y0033298D01*
X0072700Y0033300D01*
X0089700Y0033300D01*
X0089760Y0033298D01*
X0089821Y0033293D01*
X0089880Y0033284D01*
X0089939Y0033271D01*
X0089998Y0033255D01*
X0090055Y0033235D01*
X0090110Y0033212D01*
X0090165Y0033185D01*
X0090217Y0033156D01*
X0090268Y0033123D01*
X0090317Y0033087D01*
X0090363Y0033049D01*
X0090407Y0033007D01*
X0090449Y0032963D01*
X0090487Y0032917D01*
X0090523Y0032868D01*
X0090556Y0032817D01*
X0090585Y0032765D01*
X0090612Y0032710D01*
X0090635Y0032655D01*
X0090655Y0032598D01*
X0090671Y0032539D01*
X0090684Y0032480D01*
X0090693Y0032421D01*
X0090698Y0032360D01*
X0090700Y0032300D01*
X0090700Y0022300D01*
X0090698Y0022240D01*
X0090693Y0022179D01*
X0090684Y0022120D01*
X0090671Y0022061D01*
X0090655Y0022002D01*
X0090635Y0021945D01*
X0090612Y0021890D01*
X0090585Y0021835D01*
X0090556Y0021783D01*
X0090523Y0021732D01*
X0090487Y0021683D01*
X0090449Y0021637D01*
X0090407Y0021593D01*
X0090363Y0021551D01*
X0090317Y0021513D01*
X0090268Y0021477D01*
X0090217Y0021444D01*
X0090165Y0021415D01*
X0090110Y0021388D01*
X0090055Y0021365D01*
X0089998Y0021345D01*
X0089939Y0021329D01*
X0089880Y0021316D01*
X0089821Y0021307D01*
X0089760Y0021302D01*
X0089700Y0021300D01*
X0072700Y0021300D01*
X0072640Y0021302D01*
X0072579Y0021307D01*
X0072520Y0021316D01*
X0072461Y0021329D01*
X0072402Y0021345D01*
X0072345Y0021365D01*
X0072290Y0021388D01*
X0072235Y0021415D01*
X0072183Y0021444D01*
X0072132Y0021477D01*
X0072083Y0021513D01*
X0072037Y0021551D01*
X0071993Y0021593D01*
X0071951Y0021637D01*
X0071913Y0021683D01*
X0071877Y0021732D01*
X0071844Y0021783D01*
X0071815Y0021835D01*
X0071788Y0021890D01*
X0071765Y0021945D01*
X0071745Y0022002D01*
X0071729Y0022061D01*
X0071716Y0022120D01*
X0071707Y0022179D01*
X0071702Y0022240D01*
X0071700Y0022300D01*
X0079700Y0027300D02*
X0080200Y0027300D01*
X0082200Y0027300D02*
X0082700Y0027300D01*
X0132700Y0036900D02*
X0132700Y0038400D01*
X0132702Y0038460D01*
X0132707Y0038521D01*
X0132716Y0038580D01*
X0132729Y0038639D01*
X0132745Y0038698D01*
X0132765Y0038755D01*
X0132788Y0038810D01*
X0132815Y0038865D01*
X0132844Y0038917D01*
X0132877Y0038968D01*
X0132913Y0039017D01*
X0132951Y0039063D01*
X0132993Y0039107D01*
X0133037Y0039149D01*
X0133083Y0039187D01*
X0133132Y0039223D01*
X0133183Y0039256D01*
X0133235Y0039285D01*
X0133290Y0039312D01*
X0133345Y0039335D01*
X0133402Y0039355D01*
X0133461Y0039371D01*
X0133520Y0039384D01*
X0133579Y0039393D01*
X0133640Y0039398D01*
X0133700Y0039400D01*
X0140700Y0039400D01*
X0140760Y0039398D01*
X0140821Y0039393D01*
X0140880Y0039384D01*
X0140939Y0039371D01*
X0140998Y0039355D01*
X0141055Y0039335D01*
X0141110Y0039312D01*
X0141165Y0039285D01*
X0141217Y0039256D01*
X0141268Y0039223D01*
X0141317Y0039187D01*
X0141363Y0039149D01*
X0141407Y0039107D01*
X0141449Y0039063D01*
X0141487Y0039017D01*
X0141523Y0038968D01*
X0141556Y0038917D01*
X0141585Y0038865D01*
X0141612Y0038810D01*
X0141635Y0038755D01*
X0141655Y0038698D01*
X0141671Y0038639D01*
X0141684Y0038580D01*
X0141693Y0038521D01*
X0141698Y0038460D01*
X0141700Y0038400D01*
X0141700Y0036900D01*
X0141200Y0036400D01*
X0141200Y0017400D01*
X0141700Y0016900D01*
X0141700Y0015400D01*
X0141698Y0015340D01*
X0141693Y0015279D01*
X0141684Y0015220D01*
X0141671Y0015161D01*
X0141655Y0015102D01*
X0141635Y0015045D01*
X0141612Y0014990D01*
X0141585Y0014935D01*
X0141556Y0014883D01*
X0141523Y0014832D01*
X0141487Y0014783D01*
X0141449Y0014737D01*
X0141407Y0014693D01*
X0141363Y0014651D01*
X0141317Y0014613D01*
X0141268Y0014577D01*
X0141217Y0014544D01*
X0141165Y0014515D01*
X0141110Y0014488D01*
X0141055Y0014465D01*
X0140998Y0014445D01*
X0140939Y0014429D01*
X0140880Y0014416D01*
X0140821Y0014407D01*
X0140760Y0014402D01*
X0140700Y0014400D01*
X0133700Y0014400D01*
X0133640Y0014402D01*
X0133579Y0014407D01*
X0133520Y0014416D01*
X0133461Y0014429D01*
X0133402Y0014445D01*
X0133345Y0014465D01*
X0133290Y0014488D01*
X0133235Y0014515D01*
X0133183Y0014544D01*
X0133132Y0014577D01*
X0133083Y0014613D01*
X0133037Y0014651D01*
X0132993Y0014693D01*
X0132951Y0014737D01*
X0132913Y0014783D01*
X0132877Y0014832D01*
X0132844Y0014883D01*
X0132815Y0014935D01*
X0132788Y0014990D01*
X0132765Y0015045D01*
X0132745Y0015102D01*
X0132729Y0015161D01*
X0132716Y0015220D01*
X0132707Y0015279D01*
X0132702Y0015340D01*
X0132700Y0015400D01*
X0132700Y0016900D01*
X0133200Y0017400D01*
X0133200Y0036400D01*
X0132700Y0036900D01*
X0144000Y0037200D02*
X0144500Y0036700D01*
X0144500Y0017700D01*
X0144000Y0017200D01*
X0144000Y0015700D01*
X0144002Y0015640D01*
X0144007Y0015579D01*
X0144016Y0015520D01*
X0144029Y0015461D01*
X0144045Y0015402D01*
X0144065Y0015345D01*
X0144088Y0015290D01*
X0144115Y0015235D01*
X0144144Y0015183D01*
X0144177Y0015132D01*
X0144213Y0015083D01*
X0144251Y0015037D01*
X0144293Y0014993D01*
X0144337Y0014951D01*
X0144383Y0014913D01*
X0144432Y0014877D01*
X0144483Y0014844D01*
X0144535Y0014815D01*
X0144590Y0014788D01*
X0144645Y0014765D01*
X0144702Y0014745D01*
X0144761Y0014729D01*
X0144820Y0014716D01*
X0144879Y0014707D01*
X0144940Y0014702D01*
X0145000Y0014700D01*
X0152000Y0014700D01*
X0152060Y0014702D01*
X0152121Y0014707D01*
X0152180Y0014716D01*
X0152239Y0014729D01*
X0152298Y0014745D01*
X0152355Y0014765D01*
X0152410Y0014788D01*
X0152465Y0014815D01*
X0152517Y0014844D01*
X0152568Y0014877D01*
X0152617Y0014913D01*
X0152663Y0014951D01*
X0152707Y0014993D01*
X0152749Y0015037D01*
X0152787Y0015083D01*
X0152823Y0015132D01*
X0152856Y0015183D01*
X0152885Y0015235D01*
X0152912Y0015290D01*
X0152935Y0015345D01*
X0152955Y0015402D01*
X0152971Y0015461D01*
X0152984Y0015520D01*
X0152993Y0015579D01*
X0152998Y0015640D01*
X0153000Y0015700D01*
X0153000Y0017200D01*
X0152500Y0017700D01*
X0152500Y0036700D01*
X0153000Y0037200D01*
X0153000Y0038700D01*
X0152998Y0038760D01*
X0152993Y0038821D01*
X0152984Y0038880D01*
X0152971Y0038939D01*
X0152955Y0038998D01*
X0152935Y0039055D01*
X0152912Y0039110D01*
X0152885Y0039165D01*
X0152856Y0039217D01*
X0152823Y0039268D01*
X0152787Y0039317D01*
X0152749Y0039363D01*
X0152707Y0039407D01*
X0152663Y0039449D01*
X0152617Y0039487D01*
X0152568Y0039523D01*
X0152517Y0039556D01*
X0152465Y0039585D01*
X0152410Y0039612D01*
X0152355Y0039635D01*
X0152298Y0039655D01*
X0152239Y0039671D01*
X0152180Y0039684D01*
X0152121Y0039693D01*
X0152060Y0039698D01*
X0152000Y0039700D01*
X0145000Y0039700D01*
X0144940Y0039698D01*
X0144879Y0039693D01*
X0144820Y0039684D01*
X0144761Y0039671D01*
X0144702Y0039655D01*
X0144645Y0039635D01*
X0144590Y0039612D01*
X0144535Y0039585D01*
X0144483Y0039556D01*
X0144432Y0039523D01*
X0144383Y0039487D01*
X0144337Y0039449D01*
X0144293Y0039407D01*
X0144251Y0039363D01*
X0144213Y0039317D01*
X0144177Y0039268D01*
X0144144Y0039217D01*
X0144115Y0039165D01*
X0144088Y0039110D01*
X0144065Y0039055D01*
X0144045Y0038998D01*
X0144029Y0038939D01*
X0144016Y0038880D01*
X0144007Y0038821D01*
X0144002Y0038760D01*
X0144000Y0038700D01*
X0144000Y0037200D01*
X0143400Y0087500D02*
X0138400Y0087500D01*
X0135900Y0090000D01*
X0133400Y0087500D01*
X0128400Y0087500D01*
X0125900Y0090000D01*
X0125900Y0095000D01*
X0128400Y0097500D01*
X0133400Y0097500D01*
X0135900Y0095000D01*
X0138400Y0097500D01*
X0143400Y0097500D01*
X0145900Y0095000D01*
X0148400Y0097500D01*
X0153400Y0097500D01*
X0155900Y0095000D01*
X0155900Y0090000D01*
X0153400Y0087500D01*
X0148400Y0087500D01*
X0145900Y0090000D01*
X0143400Y0087500D01*
D13*
X0152200Y0078900D02*
X0152200Y0061400D01*
X0132200Y0061400D01*
X0132200Y0078900D01*
X0152200Y0078900D01*
X0152200Y0061400D02*
X0152200Y0053900D01*
X0132200Y0053900D01*
X0132200Y0061400D01*
X0082200Y0030300D02*
X0082200Y0027300D01*
X0082200Y0024300D01*
X0080200Y0024300D02*
X0080200Y0027300D01*
X0080200Y0030300D01*
X0039400Y0097600D02*
X0019400Y0097600D01*
X0019400Y0105100D01*
X0039400Y0105100D01*
X0039400Y0097600D01*
X0039400Y0105100D02*
X0039400Y0122600D01*
X0019400Y0122600D01*
X0019400Y0105100D01*
D14*
X0033083Y0090150D02*
X0034333Y0090150D01*
X0034402Y0090148D01*
X0034471Y0090142D01*
X0034539Y0090133D01*
X0034606Y0090120D01*
X0034673Y0090103D01*
X0034739Y0090082D01*
X0034803Y0090058D01*
X0034866Y0090030D01*
X0034928Y0089999D01*
X0034988Y0089965D01*
X0035045Y0089927D01*
X0035101Y0089886D01*
X0035154Y0089843D01*
X0035205Y0089796D01*
X0035253Y0089747D01*
X0035298Y0089695D01*
X0035340Y0089640D01*
X0035379Y0089584D01*
X0035416Y0089525D01*
X0035448Y0089464D01*
X0035478Y0089402D01*
X0035504Y0089338D01*
X0035526Y0089273D01*
X0035545Y0089207D01*
X0035560Y0089140D01*
X0035571Y0089072D01*
X0035579Y0089003D01*
X0035583Y0088934D01*
X0035583Y0088866D01*
X0035579Y0088797D01*
X0035571Y0088728D01*
X0035560Y0088660D01*
X0035545Y0088593D01*
X0035526Y0088527D01*
X0035504Y0088462D01*
X0035478Y0088398D01*
X0035448Y0088336D01*
X0035416Y0088275D01*
X0035379Y0088216D01*
X0035340Y0088160D01*
X0035298Y0088105D01*
X0035253Y0088053D01*
X0035205Y0088004D01*
X0035154Y0087957D01*
X0035101Y0087914D01*
X0035045Y0087873D01*
X0034988Y0087835D01*
X0034928Y0087801D01*
X0034866Y0087770D01*
X0034803Y0087742D01*
X0034739Y0087718D01*
X0034673Y0087697D01*
X0034606Y0087680D01*
X0034539Y0087667D01*
X0034471Y0087658D01*
X0034402Y0087652D01*
X0034333Y0087650D01*
X0033083Y0087650D01*
X0034583Y0087650D02*
X0035583Y0085650D01*
X0033083Y0085650D02*
X0033083Y0090150D01*
X0037550Y0089150D02*
X0038800Y0090150D01*
X0038800Y0085650D01*
X0037550Y0085650D02*
X0040050Y0085650D01*
X0038350Y0078850D02*
X0037350Y0075350D01*
X0039850Y0075350D01*
X0039100Y0076350D02*
X0039100Y0074350D01*
X0035383Y0074350D02*
X0034383Y0076350D01*
X0034133Y0076350D02*
X0032883Y0076350D01*
X0034133Y0076350D02*
X0034202Y0076352D01*
X0034271Y0076358D01*
X0034339Y0076367D01*
X0034406Y0076380D01*
X0034473Y0076397D01*
X0034539Y0076418D01*
X0034603Y0076442D01*
X0034666Y0076470D01*
X0034728Y0076501D01*
X0034788Y0076535D01*
X0034845Y0076573D01*
X0034901Y0076614D01*
X0034954Y0076657D01*
X0035005Y0076704D01*
X0035053Y0076753D01*
X0035098Y0076805D01*
X0035140Y0076860D01*
X0035179Y0076916D01*
X0035216Y0076975D01*
X0035248Y0077036D01*
X0035278Y0077098D01*
X0035304Y0077162D01*
X0035326Y0077227D01*
X0035345Y0077293D01*
X0035360Y0077360D01*
X0035371Y0077428D01*
X0035379Y0077497D01*
X0035383Y0077566D01*
X0035383Y0077634D01*
X0035379Y0077703D01*
X0035371Y0077772D01*
X0035360Y0077840D01*
X0035345Y0077907D01*
X0035326Y0077973D01*
X0035304Y0078038D01*
X0035278Y0078102D01*
X0035248Y0078164D01*
X0035216Y0078225D01*
X0035179Y0078284D01*
X0035140Y0078340D01*
X0035098Y0078395D01*
X0035053Y0078447D01*
X0035005Y0078496D01*
X0034954Y0078543D01*
X0034901Y0078586D01*
X0034845Y0078627D01*
X0034788Y0078665D01*
X0034728Y0078699D01*
X0034666Y0078730D01*
X0034603Y0078758D01*
X0034539Y0078782D01*
X0034473Y0078803D01*
X0034406Y0078820D01*
X0034339Y0078833D01*
X0034271Y0078842D01*
X0034202Y0078848D01*
X0034133Y0078850D01*
X0032883Y0078850D01*
X0032883Y0074350D01*
X0054600Y0076200D02*
X0054600Y0077900D01*
X0054600Y0084000D02*
X0054600Y0085800D01*
X0054600Y0091900D02*
X0054600Y0093700D01*
X0054600Y0099800D02*
X0054600Y0107000D01*
X0054610Y0106971D02*
X0117602Y0106971D01*
X0117602Y0129806D01*
X0054610Y0129806D01*
X0054610Y0106971D01*
X0054600Y0070100D02*
X0054600Y0068300D01*
X0054600Y0062200D02*
X0054600Y0060400D01*
X0054600Y0054300D02*
X0054600Y0052500D01*
X0054600Y0046400D02*
X0054600Y0044700D01*
X0054600Y0038600D02*
X0054600Y0035300D01*
X0054610Y0035317D02*
X0117602Y0035317D01*
X0117600Y0035400D02*
X0117600Y0038500D01*
X0117600Y0044600D02*
X0117600Y0046500D01*
X0117600Y0052400D02*
X0117600Y0054500D01*
X0117600Y0060300D02*
X0117600Y0062400D01*
X0117600Y0068200D02*
X0117600Y0070200D01*
X0117600Y0076100D02*
X0117600Y0078000D01*
X0117700Y0083900D02*
X0117700Y0085900D01*
X0121150Y0090250D02*
X0123650Y0090250D01*
X0122400Y0090250D02*
X0122400Y0094750D01*
X0121150Y0093750D01*
X0117700Y0093800D02*
X0117700Y0091900D01*
X0117600Y0099700D02*
X0117600Y0107000D01*
X0117500Y0107000D01*
X0126775Y0101875D02*
X0128150Y0101125D01*
X0127650Y0099249D02*
X0127562Y0099251D01*
X0127475Y0099256D01*
X0127387Y0099265D01*
X0127300Y0099278D01*
X0127214Y0099294D01*
X0127129Y0099314D01*
X0127044Y0099338D01*
X0126960Y0099365D01*
X0126878Y0099395D01*
X0126797Y0099429D01*
X0126717Y0099466D01*
X0126639Y0099506D01*
X0126563Y0099550D01*
X0126489Y0099597D01*
X0126417Y0099646D01*
X0126346Y0099699D01*
X0126278Y0099755D01*
X0126213Y0099813D01*
X0126150Y0099874D01*
X0128150Y0101125D02*
X0128202Y0101092D01*
X0128253Y0101056D01*
X0128301Y0101017D01*
X0128346Y0100975D01*
X0128389Y0100930D01*
X0128429Y0100882D01*
X0128466Y0100833D01*
X0128500Y0100781D01*
X0128531Y0100727D01*
X0128559Y0100671D01*
X0128583Y0100614D01*
X0128603Y0100555D01*
X0128620Y0100496D01*
X0128633Y0100435D01*
X0128642Y0100374D01*
X0128648Y0100312D01*
X0128650Y0100250D01*
X0128648Y0100190D01*
X0128643Y0100129D01*
X0128634Y0100070D01*
X0128621Y0100011D01*
X0128605Y0099952D01*
X0128585Y0099895D01*
X0128562Y0099840D01*
X0128535Y0099785D01*
X0128506Y0099733D01*
X0128473Y0099682D01*
X0128437Y0099633D01*
X0128399Y0099587D01*
X0128357Y0099543D01*
X0128313Y0099501D01*
X0128267Y0099463D01*
X0128218Y0099427D01*
X0128167Y0099394D01*
X0128115Y0099365D01*
X0128060Y0099338D01*
X0128005Y0099315D01*
X0127948Y0099295D01*
X0127889Y0099279D01*
X0127830Y0099266D01*
X0127771Y0099257D01*
X0127710Y0099252D01*
X0127650Y0099250D01*
X0128400Y0103375D02*
X0128335Y0103422D01*
X0128267Y0103466D01*
X0128198Y0103507D01*
X0128127Y0103545D01*
X0128055Y0103580D01*
X0127981Y0103612D01*
X0127906Y0103641D01*
X0127830Y0103666D01*
X0127752Y0103688D01*
X0127674Y0103707D01*
X0127595Y0103722D01*
X0127516Y0103734D01*
X0127436Y0103743D01*
X0127355Y0103748D01*
X0127275Y0103750D01*
X0127215Y0103748D01*
X0127154Y0103743D01*
X0127095Y0103734D01*
X0127036Y0103721D01*
X0126977Y0103705D01*
X0126920Y0103685D01*
X0126865Y0103662D01*
X0126810Y0103635D01*
X0126758Y0103606D01*
X0126707Y0103573D01*
X0126658Y0103537D01*
X0126612Y0103499D01*
X0126568Y0103457D01*
X0126526Y0103413D01*
X0126488Y0103367D01*
X0126452Y0103318D01*
X0126419Y0103267D01*
X0126390Y0103215D01*
X0126363Y0103160D01*
X0126340Y0103105D01*
X0126320Y0103048D01*
X0126304Y0102989D01*
X0126291Y0102930D01*
X0126282Y0102871D01*
X0126277Y0102810D01*
X0126275Y0102750D01*
X0126277Y0102688D01*
X0126283Y0102626D01*
X0126292Y0102565D01*
X0126305Y0102504D01*
X0126322Y0102445D01*
X0126342Y0102386D01*
X0126366Y0102329D01*
X0126394Y0102273D01*
X0126425Y0102219D01*
X0126459Y0102167D01*
X0126496Y0102118D01*
X0126536Y0102070D01*
X0126579Y0102025D01*
X0126624Y0101983D01*
X0126672Y0101944D01*
X0126723Y0101908D01*
X0126775Y0101875D01*
X0130250Y0103750D02*
X0131750Y0099250D01*
X0133250Y0103750D01*
X0137125Y0101750D02*
X0137171Y0101796D01*
X0137215Y0101845D01*
X0137255Y0101896D01*
X0137293Y0101949D01*
X0137328Y0102004D01*
X0137360Y0102061D01*
X0137389Y0102119D01*
X0137415Y0102179D01*
X0137437Y0102241D01*
X0137456Y0102303D01*
X0137472Y0102366D01*
X0137484Y0102430D01*
X0137493Y0102495D01*
X0137498Y0102560D01*
X0137500Y0102625D01*
X0137125Y0101750D02*
X0135000Y0099250D01*
X0137500Y0099250D01*
X0135000Y0102750D02*
X0135024Y0102819D01*
X0135052Y0102886D01*
X0135083Y0102952D01*
X0135117Y0103016D01*
X0135154Y0103078D01*
X0135195Y0103139D01*
X0135238Y0103197D01*
X0135284Y0103253D01*
X0135334Y0103307D01*
X0135385Y0103358D01*
X0135439Y0103406D01*
X0135496Y0103452D01*
X0135555Y0103495D01*
X0135616Y0103534D01*
X0135678Y0103571D01*
X0135743Y0103604D01*
X0135809Y0103635D01*
X0135877Y0103661D01*
X0135945Y0103685D01*
X0136015Y0103705D01*
X0136086Y0103721D01*
X0136158Y0103734D01*
X0136230Y0103743D01*
X0136302Y0103748D01*
X0136375Y0103750D01*
X0136440Y0103748D01*
X0136506Y0103742D01*
X0136570Y0103733D01*
X0136634Y0103720D01*
X0136698Y0103703D01*
X0136760Y0103682D01*
X0136821Y0103658D01*
X0136880Y0103630D01*
X0136938Y0103599D01*
X0136993Y0103565D01*
X0137047Y0103527D01*
X0137098Y0103487D01*
X0137147Y0103443D01*
X0137193Y0103397D01*
X0137237Y0103348D01*
X0137277Y0103297D01*
X0137315Y0103243D01*
X0137349Y0103188D01*
X0137380Y0103130D01*
X0137408Y0103071D01*
X0137432Y0103010D01*
X0137453Y0102948D01*
X0137470Y0102884D01*
X0137483Y0102820D01*
X0137492Y0102756D01*
X0137498Y0102690D01*
X0137500Y0102625D01*
X0154750Y0038950D02*
X0154750Y0036450D01*
X0156750Y0036450D01*
X0156750Y0037950D01*
X0156752Y0038010D01*
X0156757Y0038071D01*
X0156766Y0038130D01*
X0156779Y0038189D01*
X0156795Y0038248D01*
X0156815Y0038305D01*
X0156838Y0038360D01*
X0156865Y0038415D01*
X0156894Y0038467D01*
X0156927Y0038518D01*
X0156963Y0038567D01*
X0157001Y0038613D01*
X0157043Y0038657D01*
X0157087Y0038699D01*
X0157133Y0038737D01*
X0157182Y0038773D01*
X0157233Y0038806D01*
X0157285Y0038835D01*
X0157340Y0038862D01*
X0157395Y0038885D01*
X0157452Y0038905D01*
X0157511Y0038921D01*
X0157570Y0038934D01*
X0157629Y0038943D01*
X0157690Y0038948D01*
X0157750Y0038950D01*
X0158250Y0038950D01*
X0158310Y0038948D01*
X0158371Y0038943D01*
X0158430Y0038934D01*
X0158489Y0038921D01*
X0158548Y0038905D01*
X0158605Y0038885D01*
X0158660Y0038862D01*
X0158715Y0038835D01*
X0158767Y0038806D01*
X0158818Y0038773D01*
X0158867Y0038737D01*
X0158913Y0038699D01*
X0158957Y0038657D01*
X0158999Y0038613D01*
X0159037Y0038567D01*
X0159073Y0038518D01*
X0159106Y0038467D01*
X0159135Y0038415D01*
X0159162Y0038360D01*
X0159185Y0038305D01*
X0159205Y0038248D01*
X0159221Y0038189D01*
X0159234Y0038130D01*
X0159243Y0038071D01*
X0159248Y0038010D01*
X0159250Y0037950D01*
X0159250Y0036450D01*
X0159250Y0034483D02*
X0157250Y0033483D01*
X0157250Y0033233D02*
X0157250Y0031983D01*
X0157250Y0033233D02*
X0157248Y0033302D01*
X0157242Y0033371D01*
X0157233Y0033439D01*
X0157220Y0033506D01*
X0157203Y0033573D01*
X0157182Y0033639D01*
X0157158Y0033703D01*
X0157130Y0033766D01*
X0157099Y0033828D01*
X0157065Y0033888D01*
X0157027Y0033945D01*
X0156986Y0034001D01*
X0156943Y0034054D01*
X0156896Y0034105D01*
X0156847Y0034153D01*
X0156795Y0034198D01*
X0156740Y0034240D01*
X0156684Y0034279D01*
X0156625Y0034316D01*
X0156564Y0034348D01*
X0156502Y0034378D01*
X0156438Y0034404D01*
X0156373Y0034426D01*
X0156307Y0034445D01*
X0156240Y0034460D01*
X0156172Y0034471D01*
X0156103Y0034479D01*
X0156034Y0034483D01*
X0155966Y0034483D01*
X0155897Y0034479D01*
X0155828Y0034471D01*
X0155760Y0034460D01*
X0155693Y0034445D01*
X0155627Y0034426D01*
X0155562Y0034404D01*
X0155498Y0034378D01*
X0155436Y0034348D01*
X0155375Y0034316D01*
X0155316Y0034279D01*
X0155260Y0034240D01*
X0155205Y0034198D01*
X0155153Y0034153D01*
X0155104Y0034105D01*
X0155057Y0034054D01*
X0155014Y0034001D01*
X0154973Y0033945D01*
X0154935Y0033888D01*
X0154901Y0033828D01*
X0154870Y0033766D01*
X0154842Y0033703D01*
X0154818Y0033639D01*
X0154797Y0033573D01*
X0154780Y0033506D01*
X0154767Y0033439D01*
X0154758Y0033371D01*
X0154752Y0033302D01*
X0154750Y0033233D01*
X0154750Y0031983D01*
X0159250Y0031983D01*
X0130950Y0017650D02*
X0128950Y0016650D01*
X0128950Y0016400D02*
X0128950Y0015150D01*
X0128950Y0016400D02*
X0128948Y0016469D01*
X0128942Y0016538D01*
X0128933Y0016606D01*
X0128920Y0016673D01*
X0128903Y0016740D01*
X0128882Y0016806D01*
X0128858Y0016870D01*
X0128830Y0016933D01*
X0128799Y0016995D01*
X0128765Y0017055D01*
X0128727Y0017112D01*
X0128686Y0017168D01*
X0128643Y0017221D01*
X0128596Y0017272D01*
X0128547Y0017320D01*
X0128495Y0017365D01*
X0128440Y0017407D01*
X0128384Y0017446D01*
X0128325Y0017483D01*
X0128264Y0017515D01*
X0128202Y0017545D01*
X0128138Y0017571D01*
X0128073Y0017593D01*
X0128007Y0017612D01*
X0127940Y0017627D01*
X0127872Y0017638D01*
X0127803Y0017646D01*
X0127734Y0017650D01*
X0127666Y0017650D01*
X0127597Y0017646D01*
X0127528Y0017638D01*
X0127460Y0017627D01*
X0127393Y0017612D01*
X0127327Y0017593D01*
X0127262Y0017571D01*
X0127198Y0017545D01*
X0127136Y0017515D01*
X0127075Y0017483D01*
X0127016Y0017446D01*
X0126960Y0017407D01*
X0126905Y0017365D01*
X0126853Y0017320D01*
X0126804Y0017272D01*
X0126757Y0017221D01*
X0126714Y0017168D01*
X0126673Y0017112D01*
X0126635Y0017055D01*
X0126601Y0016995D01*
X0126570Y0016933D01*
X0126542Y0016870D01*
X0126518Y0016806D01*
X0126497Y0016740D01*
X0126480Y0016673D01*
X0126467Y0016606D01*
X0126458Y0016538D01*
X0126452Y0016469D01*
X0126450Y0016400D01*
X0126450Y0015150D01*
X0130950Y0015150D01*
X0129700Y0019617D02*
X0128450Y0019617D01*
X0128450Y0021117D01*
X0128450Y0019617D02*
X0128363Y0019619D01*
X0128276Y0019625D01*
X0128189Y0019634D01*
X0128103Y0019647D01*
X0128017Y0019664D01*
X0127932Y0019685D01*
X0127849Y0019710D01*
X0127766Y0019738D01*
X0127685Y0019769D01*
X0127605Y0019804D01*
X0127527Y0019843D01*
X0127450Y0019885D01*
X0127375Y0019930D01*
X0127303Y0019979D01*
X0127232Y0020030D01*
X0127164Y0020085D01*
X0127099Y0020142D01*
X0127036Y0020203D01*
X0126975Y0020266D01*
X0126918Y0020331D01*
X0126863Y0020399D01*
X0126812Y0020470D01*
X0126763Y0020542D01*
X0126718Y0020617D01*
X0126676Y0020694D01*
X0126637Y0020772D01*
X0126602Y0020852D01*
X0126571Y0020933D01*
X0126543Y0021016D01*
X0126518Y0021099D01*
X0126497Y0021184D01*
X0126480Y0021270D01*
X0126467Y0021356D01*
X0126458Y0021443D01*
X0126452Y0021530D01*
X0126450Y0021617D01*
X0126400Y0021450D02*
X0128400Y0023950D01*
X0128275Y0024325D02*
X0128254Y0024381D01*
X0128228Y0024436D01*
X0128200Y0024490D01*
X0128168Y0024541D01*
X0128133Y0024590D01*
X0128094Y0024636D01*
X0128053Y0024680D01*
X0128009Y0024722D01*
X0127962Y0024760D01*
X0127913Y0024795D01*
X0127861Y0024827D01*
X0127808Y0024855D01*
X0127753Y0024880D01*
X0127697Y0024901D01*
X0127639Y0024919D01*
X0127580Y0024932D01*
X0127520Y0024942D01*
X0127460Y0024948D01*
X0127400Y0024950D01*
X0127340Y0024948D01*
X0127280Y0024942D01*
X0127220Y0024932D01*
X0127161Y0024919D01*
X0127103Y0024901D01*
X0127047Y0024880D01*
X0126992Y0024855D01*
X0126939Y0024827D01*
X0126887Y0024795D01*
X0126838Y0024760D01*
X0126791Y0024722D01*
X0126747Y0024680D01*
X0126706Y0024636D01*
X0126667Y0024590D01*
X0126632Y0024541D01*
X0126600Y0024490D01*
X0126572Y0024436D01*
X0126546Y0024381D01*
X0126525Y0024325D01*
X0128650Y0022700D02*
X0128648Y0022580D01*
X0128642Y0022460D01*
X0128632Y0022340D01*
X0128619Y0022221D01*
X0128601Y0022102D01*
X0128580Y0021984D01*
X0128555Y0021866D01*
X0128526Y0021750D01*
X0128493Y0021634D01*
X0128457Y0021520D01*
X0128417Y0021406D01*
X0128373Y0021294D01*
X0128326Y0021184D01*
X0128275Y0021075D01*
X0128254Y0021019D01*
X0128228Y0020964D01*
X0128200Y0020910D01*
X0128168Y0020859D01*
X0128133Y0020810D01*
X0128094Y0020764D01*
X0128053Y0020720D01*
X0128009Y0020678D01*
X0127962Y0020640D01*
X0127913Y0020605D01*
X0127861Y0020573D01*
X0127808Y0020545D01*
X0127753Y0020520D01*
X0127697Y0020499D01*
X0127639Y0020481D01*
X0127580Y0020468D01*
X0127520Y0020458D01*
X0127460Y0020452D01*
X0127400Y0020450D01*
X0127340Y0020452D01*
X0127280Y0020458D01*
X0127220Y0020468D01*
X0127161Y0020481D01*
X0127103Y0020499D01*
X0127047Y0020520D01*
X0126992Y0020545D01*
X0126939Y0020573D01*
X0126887Y0020605D01*
X0126838Y0020640D01*
X0126791Y0020678D01*
X0126747Y0020720D01*
X0126706Y0020764D01*
X0126667Y0020810D01*
X0126632Y0020859D01*
X0126600Y0020910D01*
X0126572Y0020964D01*
X0126546Y0021019D01*
X0126525Y0021075D01*
X0128650Y0022700D02*
X0128648Y0022820D01*
X0128642Y0022940D01*
X0128632Y0023060D01*
X0128619Y0023179D01*
X0128601Y0023298D01*
X0128580Y0023416D01*
X0128555Y0023534D01*
X0128526Y0023650D01*
X0128493Y0023766D01*
X0128457Y0023880D01*
X0128417Y0023994D01*
X0128373Y0024106D01*
X0128326Y0024216D01*
X0128275Y0024325D01*
X0126150Y0022700D02*
X0126152Y0022580D01*
X0126158Y0022460D01*
X0126168Y0022340D01*
X0126181Y0022221D01*
X0126199Y0022102D01*
X0126220Y0021984D01*
X0126245Y0021866D01*
X0126274Y0021750D01*
X0126307Y0021634D01*
X0126343Y0021520D01*
X0126383Y0021406D01*
X0126427Y0021294D01*
X0126474Y0021184D01*
X0126525Y0021075D01*
X0124150Y0020450D02*
X0121650Y0020450D01*
X0122900Y0020450D02*
X0122900Y0024950D01*
X0121650Y0023950D01*
X0129450Y0022117D02*
X0129700Y0022117D01*
X0126150Y0022700D02*
X0126152Y0022820D01*
X0126158Y0022940D01*
X0126168Y0023060D01*
X0126181Y0023179D01*
X0126199Y0023298D01*
X0126220Y0023416D01*
X0126245Y0023534D01*
X0126274Y0023650D01*
X0126307Y0023766D01*
X0126343Y0023880D01*
X0126383Y0023994D01*
X0126427Y0024106D01*
X0126474Y0024216D01*
X0126525Y0024325D01*
X0129450Y0022117D02*
X0129390Y0022115D01*
X0129329Y0022110D01*
X0129270Y0022101D01*
X0129211Y0022088D01*
X0129152Y0022072D01*
X0129095Y0022052D01*
X0129040Y0022029D01*
X0128985Y0022002D01*
X0128933Y0021973D01*
X0128882Y0021940D01*
X0128833Y0021904D01*
X0128787Y0021866D01*
X0128743Y0021824D01*
X0128701Y0021780D01*
X0128663Y0021734D01*
X0128627Y0021685D01*
X0128594Y0021634D01*
X0128565Y0021582D01*
X0128538Y0021527D01*
X0128515Y0021472D01*
X0128495Y0021415D01*
X0128479Y0021356D01*
X0128466Y0021297D01*
X0128457Y0021238D01*
X0128452Y0021177D01*
X0128450Y0021117D01*
X0129700Y0022117D02*
X0129769Y0022115D01*
X0129838Y0022109D01*
X0129906Y0022100D01*
X0129973Y0022087D01*
X0130040Y0022070D01*
X0130106Y0022049D01*
X0130170Y0022025D01*
X0130233Y0021997D01*
X0130295Y0021966D01*
X0130355Y0021932D01*
X0130412Y0021894D01*
X0130468Y0021853D01*
X0130521Y0021810D01*
X0130572Y0021763D01*
X0130620Y0021714D01*
X0130665Y0021662D01*
X0130707Y0021607D01*
X0130746Y0021551D01*
X0130783Y0021492D01*
X0130815Y0021431D01*
X0130845Y0021369D01*
X0130871Y0021305D01*
X0130893Y0021240D01*
X0130912Y0021174D01*
X0130927Y0021107D01*
X0130938Y0021039D01*
X0130946Y0020970D01*
X0130950Y0020901D01*
X0130950Y0020833D01*
X0130946Y0020764D01*
X0130938Y0020695D01*
X0130927Y0020627D01*
X0130912Y0020560D01*
X0130893Y0020494D01*
X0130871Y0020429D01*
X0130845Y0020365D01*
X0130815Y0020303D01*
X0130783Y0020242D01*
X0130746Y0020183D01*
X0130707Y0020127D01*
X0130665Y0020072D01*
X0130620Y0020020D01*
X0130572Y0019971D01*
X0130521Y0019924D01*
X0130468Y0019881D01*
X0130412Y0019840D01*
X0130355Y0019802D01*
X0130295Y0019768D01*
X0130233Y0019737D01*
X0130170Y0019709D01*
X0130106Y0019685D01*
X0130040Y0019664D01*
X0129973Y0019647D01*
X0129906Y0019634D01*
X0129838Y0019625D01*
X0129769Y0019619D01*
X0129700Y0019617D01*
X0078715Y0035050D02*
X0076215Y0035050D01*
X0077465Y0035050D02*
X0077465Y0039550D01*
X0076215Y0038550D01*
X0074450Y0039550D02*
X0073450Y0039550D01*
X0073390Y0039548D01*
X0073329Y0039543D01*
X0073270Y0039534D01*
X0073211Y0039521D01*
X0073152Y0039505D01*
X0073095Y0039485D01*
X0073040Y0039462D01*
X0072985Y0039435D01*
X0072933Y0039406D01*
X0072882Y0039373D01*
X0072833Y0039337D01*
X0072787Y0039299D01*
X0072743Y0039257D01*
X0072701Y0039213D01*
X0072663Y0039167D01*
X0072627Y0039118D01*
X0072594Y0039067D01*
X0072565Y0039015D01*
X0072538Y0038960D01*
X0072515Y0038905D01*
X0072495Y0038848D01*
X0072479Y0038789D01*
X0072466Y0038730D01*
X0072457Y0038671D01*
X0072452Y0038610D01*
X0072450Y0038550D01*
X0072450Y0036050D01*
X0072452Y0035990D01*
X0072457Y0035929D01*
X0072466Y0035870D01*
X0072479Y0035811D01*
X0072495Y0035752D01*
X0072515Y0035695D01*
X0072538Y0035640D01*
X0072565Y0035585D01*
X0072594Y0035533D01*
X0072627Y0035482D01*
X0072663Y0035433D01*
X0072701Y0035387D01*
X0072743Y0035343D01*
X0072787Y0035301D01*
X0072833Y0035263D01*
X0072882Y0035227D01*
X0072933Y0035194D01*
X0072985Y0035165D01*
X0073040Y0035138D01*
X0073095Y0035115D01*
X0073152Y0035095D01*
X0073211Y0035079D01*
X0073270Y0035066D01*
X0073329Y0035057D01*
X0073390Y0035052D01*
X0073450Y0035050D01*
X0074450Y0035050D01*
X0057500Y0020950D02*
X0055000Y0020950D01*
X0056250Y0020950D02*
X0056250Y0025450D01*
X0055000Y0024450D01*
X0053250Y0025450D02*
X0051750Y0020950D01*
X0050250Y0025450D01*
X0046775Y0023575D02*
X0046723Y0023608D01*
X0046672Y0023644D01*
X0046624Y0023683D01*
X0046579Y0023725D01*
X0046536Y0023770D01*
X0046496Y0023818D01*
X0046459Y0023867D01*
X0046425Y0023919D01*
X0046394Y0023973D01*
X0046366Y0024029D01*
X0046342Y0024086D01*
X0046322Y0024145D01*
X0046305Y0024204D01*
X0046292Y0024265D01*
X0046283Y0024326D01*
X0046277Y0024388D01*
X0046275Y0024450D01*
X0046277Y0024510D01*
X0046282Y0024571D01*
X0046291Y0024630D01*
X0046304Y0024689D01*
X0046320Y0024748D01*
X0046340Y0024805D01*
X0046363Y0024860D01*
X0046390Y0024915D01*
X0046419Y0024967D01*
X0046452Y0025018D01*
X0046488Y0025067D01*
X0046526Y0025113D01*
X0046568Y0025157D01*
X0046612Y0025199D01*
X0046658Y0025237D01*
X0046707Y0025273D01*
X0046758Y0025306D01*
X0046810Y0025335D01*
X0046865Y0025362D01*
X0046920Y0025385D01*
X0046977Y0025405D01*
X0047036Y0025421D01*
X0047095Y0025434D01*
X0047154Y0025443D01*
X0047215Y0025448D01*
X0047275Y0025450D01*
X0047355Y0025448D01*
X0047436Y0025443D01*
X0047516Y0025434D01*
X0047595Y0025422D01*
X0047674Y0025407D01*
X0047752Y0025388D01*
X0047830Y0025366D01*
X0047906Y0025341D01*
X0047981Y0025312D01*
X0048055Y0025280D01*
X0048127Y0025245D01*
X0048198Y0025207D01*
X0048267Y0025166D01*
X0048335Y0025122D01*
X0048400Y0025075D01*
X0046150Y0021574D02*
X0046213Y0021513D01*
X0046278Y0021455D01*
X0046346Y0021399D01*
X0046417Y0021346D01*
X0046489Y0021297D01*
X0046563Y0021250D01*
X0046639Y0021206D01*
X0046717Y0021166D01*
X0046797Y0021129D01*
X0046878Y0021095D01*
X0046960Y0021065D01*
X0047044Y0021038D01*
X0047129Y0021014D01*
X0047214Y0020994D01*
X0047300Y0020978D01*
X0047387Y0020965D01*
X0047475Y0020956D01*
X0047562Y0020951D01*
X0047650Y0020949D01*
X0047650Y0020950D02*
X0047710Y0020952D01*
X0047771Y0020957D01*
X0047830Y0020966D01*
X0047889Y0020979D01*
X0047948Y0020995D01*
X0048005Y0021015D01*
X0048060Y0021038D01*
X0048115Y0021065D01*
X0048167Y0021094D01*
X0048218Y0021127D01*
X0048267Y0021163D01*
X0048313Y0021201D01*
X0048357Y0021243D01*
X0048399Y0021287D01*
X0048437Y0021333D01*
X0048473Y0021382D01*
X0048506Y0021433D01*
X0048535Y0021485D01*
X0048562Y0021540D01*
X0048585Y0021595D01*
X0048605Y0021652D01*
X0048621Y0021711D01*
X0048634Y0021770D01*
X0048643Y0021829D01*
X0048648Y0021890D01*
X0048650Y0021950D01*
X0048150Y0022825D02*
X0046775Y0023575D01*
X0048150Y0022825D02*
X0048202Y0022792D01*
X0048253Y0022756D01*
X0048301Y0022717D01*
X0048346Y0022675D01*
X0048389Y0022630D01*
X0048429Y0022582D01*
X0048466Y0022533D01*
X0048500Y0022481D01*
X0048531Y0022427D01*
X0048559Y0022371D01*
X0048583Y0022314D01*
X0048603Y0022255D01*
X0048620Y0022196D01*
X0048633Y0022135D01*
X0048642Y0022074D01*
X0048648Y0022012D01*
X0048650Y0021950D01*
X0036650Y0020450D02*
X0034150Y0020450D01*
X0035400Y0020450D02*
X0035400Y0024950D01*
X0034150Y0023950D01*
X0033850Y0032283D02*
X0033850Y0033533D01*
X0033850Y0033783D02*
X0035850Y0034783D01*
X0035850Y0036750D02*
X0035850Y0039250D01*
X0035850Y0036750D02*
X0033350Y0038875D01*
X0031350Y0038125D02*
X0031352Y0038052D01*
X0031357Y0037980D01*
X0031366Y0037908D01*
X0031379Y0037836D01*
X0031395Y0037765D01*
X0031415Y0037695D01*
X0031439Y0037627D01*
X0031465Y0037559D01*
X0031496Y0037493D01*
X0031529Y0037428D01*
X0031566Y0037366D01*
X0031605Y0037305D01*
X0031648Y0037246D01*
X0031694Y0037189D01*
X0031742Y0037135D01*
X0031793Y0037084D01*
X0031847Y0037034D01*
X0031903Y0036988D01*
X0031961Y0036945D01*
X0032022Y0036904D01*
X0032084Y0036867D01*
X0032148Y0036833D01*
X0032214Y0036802D01*
X0032281Y0036774D01*
X0032350Y0036750D01*
X0033350Y0038875D02*
X0033304Y0038921D01*
X0033255Y0038965D01*
X0033204Y0039005D01*
X0033151Y0039043D01*
X0033096Y0039078D01*
X0033039Y0039110D01*
X0032981Y0039139D01*
X0032921Y0039165D01*
X0032859Y0039187D01*
X0032797Y0039206D01*
X0032734Y0039222D01*
X0032670Y0039234D01*
X0032605Y0039243D01*
X0032540Y0039248D01*
X0032475Y0039250D01*
X0032410Y0039248D01*
X0032344Y0039242D01*
X0032280Y0039233D01*
X0032216Y0039220D01*
X0032152Y0039203D01*
X0032090Y0039182D01*
X0032029Y0039158D01*
X0031970Y0039130D01*
X0031913Y0039099D01*
X0031857Y0039065D01*
X0031803Y0039027D01*
X0031752Y0038987D01*
X0031703Y0038943D01*
X0031657Y0038897D01*
X0031613Y0038848D01*
X0031573Y0038797D01*
X0031535Y0038743D01*
X0031501Y0038688D01*
X0031470Y0038630D01*
X0031442Y0038571D01*
X0031418Y0038510D01*
X0031397Y0038448D01*
X0031380Y0038384D01*
X0031367Y0038320D01*
X0031358Y0038256D01*
X0031352Y0038190D01*
X0031350Y0038125D01*
X0031350Y0033533D02*
X0031350Y0032283D01*
X0035850Y0032283D01*
X0033850Y0033533D02*
X0033848Y0033602D01*
X0033842Y0033671D01*
X0033833Y0033739D01*
X0033820Y0033806D01*
X0033803Y0033873D01*
X0033782Y0033939D01*
X0033758Y0034003D01*
X0033730Y0034066D01*
X0033699Y0034128D01*
X0033665Y0034188D01*
X0033627Y0034245D01*
X0033586Y0034301D01*
X0033543Y0034354D01*
X0033496Y0034405D01*
X0033447Y0034453D01*
X0033395Y0034498D01*
X0033340Y0034540D01*
X0033284Y0034579D01*
X0033225Y0034616D01*
X0033164Y0034648D01*
X0033102Y0034678D01*
X0033038Y0034704D01*
X0032973Y0034726D01*
X0032907Y0034745D01*
X0032840Y0034760D01*
X0032772Y0034771D01*
X0032703Y0034779D01*
X0032634Y0034783D01*
X0032566Y0034783D01*
X0032497Y0034779D01*
X0032428Y0034771D01*
X0032360Y0034760D01*
X0032293Y0034745D01*
X0032227Y0034726D01*
X0032162Y0034704D01*
X0032098Y0034678D01*
X0032036Y0034648D01*
X0031975Y0034616D01*
X0031916Y0034579D01*
X0031860Y0034540D01*
X0031805Y0034498D01*
X0031753Y0034453D01*
X0031704Y0034405D01*
X0031657Y0034354D01*
X0031614Y0034301D01*
X0031573Y0034245D01*
X0031535Y0034188D01*
X0031501Y0034128D01*
X0031470Y0034066D01*
X0031442Y0034003D01*
X0031418Y0033939D01*
X0031397Y0033873D01*
X0031380Y0033806D01*
X0031367Y0033739D01*
X0031358Y0033671D01*
X0031352Y0033602D01*
X0031350Y0033533D01*
X0034350Y0044250D02*
X0036850Y0044250D01*
X0035600Y0044250D02*
X0035600Y0048750D01*
X0034350Y0047750D01*
X0032000Y0046125D02*
X0030625Y0046875D01*
X0031125Y0048750D02*
X0031205Y0048748D01*
X0031286Y0048743D01*
X0031366Y0048734D01*
X0031445Y0048722D01*
X0031524Y0048707D01*
X0031602Y0048688D01*
X0031680Y0048666D01*
X0031756Y0048641D01*
X0031831Y0048612D01*
X0031905Y0048580D01*
X0031977Y0048545D01*
X0032048Y0048507D01*
X0032117Y0048466D01*
X0032185Y0048422D01*
X0032250Y0048375D01*
X0030625Y0046875D02*
X0030573Y0046908D01*
X0030522Y0046944D01*
X0030474Y0046983D01*
X0030429Y0047025D01*
X0030386Y0047070D01*
X0030346Y0047118D01*
X0030309Y0047167D01*
X0030275Y0047219D01*
X0030244Y0047273D01*
X0030216Y0047329D01*
X0030192Y0047386D01*
X0030172Y0047445D01*
X0030155Y0047504D01*
X0030142Y0047565D01*
X0030133Y0047626D01*
X0030127Y0047688D01*
X0030125Y0047750D01*
X0030127Y0047810D01*
X0030132Y0047871D01*
X0030141Y0047930D01*
X0030154Y0047989D01*
X0030170Y0048048D01*
X0030190Y0048105D01*
X0030213Y0048160D01*
X0030240Y0048215D01*
X0030269Y0048267D01*
X0030302Y0048318D01*
X0030338Y0048367D01*
X0030376Y0048413D01*
X0030418Y0048457D01*
X0030462Y0048499D01*
X0030508Y0048537D01*
X0030557Y0048573D01*
X0030608Y0048606D01*
X0030660Y0048635D01*
X0030715Y0048662D01*
X0030770Y0048685D01*
X0030827Y0048705D01*
X0030886Y0048721D01*
X0030945Y0048734D01*
X0031004Y0048743D01*
X0031065Y0048748D01*
X0031125Y0048750D01*
X0030000Y0044874D02*
X0030063Y0044813D01*
X0030128Y0044755D01*
X0030196Y0044699D01*
X0030267Y0044646D01*
X0030339Y0044597D01*
X0030413Y0044550D01*
X0030489Y0044506D01*
X0030567Y0044466D01*
X0030647Y0044429D01*
X0030728Y0044395D01*
X0030810Y0044365D01*
X0030894Y0044338D01*
X0030979Y0044314D01*
X0031064Y0044294D01*
X0031150Y0044278D01*
X0031237Y0044265D01*
X0031325Y0044256D01*
X0031412Y0044251D01*
X0031500Y0044249D01*
X0031500Y0044250D02*
X0031560Y0044252D01*
X0031621Y0044257D01*
X0031680Y0044266D01*
X0031739Y0044279D01*
X0031798Y0044295D01*
X0031855Y0044315D01*
X0031910Y0044338D01*
X0031965Y0044365D01*
X0032017Y0044394D01*
X0032068Y0044427D01*
X0032117Y0044463D01*
X0032163Y0044501D01*
X0032207Y0044543D01*
X0032249Y0044587D01*
X0032287Y0044633D01*
X0032323Y0044682D01*
X0032356Y0044733D01*
X0032385Y0044785D01*
X0032412Y0044840D01*
X0032435Y0044895D01*
X0032455Y0044952D01*
X0032471Y0045011D01*
X0032484Y0045070D01*
X0032493Y0045129D01*
X0032498Y0045190D01*
X0032500Y0045250D01*
X0032498Y0045312D01*
X0032492Y0045374D01*
X0032483Y0045435D01*
X0032470Y0045496D01*
X0032453Y0045555D01*
X0032433Y0045614D01*
X0032409Y0045671D01*
X0032381Y0045727D01*
X0032350Y0045781D01*
X0032316Y0045833D01*
X0032279Y0045882D01*
X0032239Y0045930D01*
X0032196Y0045975D01*
X0032151Y0046017D01*
X0032103Y0046056D01*
X0032052Y0046092D01*
X0032000Y0046125D01*
X0008550Y0021767D02*
X0008550Y0020517D01*
X0008550Y0021767D02*
X0008548Y0021836D01*
X0008542Y0021905D01*
X0008533Y0021973D01*
X0008520Y0022040D01*
X0008503Y0022107D01*
X0008482Y0022173D01*
X0008458Y0022237D01*
X0008430Y0022300D01*
X0008399Y0022362D01*
X0008365Y0022422D01*
X0008327Y0022479D01*
X0008286Y0022535D01*
X0008243Y0022588D01*
X0008196Y0022639D01*
X0008147Y0022687D01*
X0008095Y0022732D01*
X0008040Y0022774D01*
X0007984Y0022813D01*
X0007925Y0022850D01*
X0007864Y0022882D01*
X0007802Y0022912D01*
X0007738Y0022938D01*
X0007673Y0022960D01*
X0007607Y0022979D01*
X0007540Y0022994D01*
X0007472Y0023005D01*
X0007403Y0023013D01*
X0007334Y0023017D01*
X0007266Y0023017D01*
X0007197Y0023013D01*
X0007128Y0023005D01*
X0007060Y0022994D01*
X0006993Y0022979D01*
X0006927Y0022960D01*
X0006862Y0022938D01*
X0006798Y0022912D01*
X0006736Y0022882D01*
X0006675Y0022850D01*
X0006616Y0022813D01*
X0006560Y0022774D01*
X0006505Y0022732D01*
X0006453Y0022687D01*
X0006404Y0022639D01*
X0006357Y0022588D01*
X0006314Y0022535D01*
X0006273Y0022479D01*
X0006235Y0022422D01*
X0006201Y0022362D01*
X0006170Y0022300D01*
X0006142Y0022237D01*
X0006118Y0022173D01*
X0006097Y0022107D01*
X0006080Y0022040D01*
X0006067Y0021973D01*
X0006058Y0021905D01*
X0006052Y0021836D01*
X0006050Y0021767D01*
X0006050Y0022017D02*
X0006050Y0021017D01*
X0006050Y0022017D02*
X0006048Y0022079D01*
X0006042Y0022140D01*
X0006033Y0022201D01*
X0006020Y0022261D01*
X0006003Y0022320D01*
X0005982Y0022378D01*
X0005958Y0022435D01*
X0005931Y0022490D01*
X0005900Y0022543D01*
X0005866Y0022595D01*
X0005829Y0022644D01*
X0005789Y0022691D01*
X0005746Y0022735D01*
X0005701Y0022776D01*
X0005653Y0022815D01*
X0005602Y0022851D01*
X0005550Y0022883D01*
X0005496Y0022912D01*
X0005440Y0022938D01*
X0005382Y0022960D01*
X0005324Y0022979D01*
X0005264Y0022994D01*
X0005203Y0023005D01*
X0005142Y0023013D01*
X0005081Y0023017D01*
X0005019Y0023017D01*
X0004958Y0023013D01*
X0004897Y0023005D01*
X0004836Y0022994D01*
X0004776Y0022979D01*
X0004718Y0022960D01*
X0004660Y0022938D01*
X0004604Y0022912D01*
X0004550Y0022883D01*
X0004498Y0022851D01*
X0004447Y0022815D01*
X0004399Y0022776D01*
X0004354Y0022735D01*
X0004311Y0022691D01*
X0004271Y0022644D01*
X0004234Y0022595D01*
X0004200Y0022543D01*
X0004169Y0022490D01*
X0004142Y0022435D01*
X0004118Y0022378D01*
X0004097Y0022320D01*
X0004080Y0022261D01*
X0004067Y0022201D01*
X0004058Y0022140D01*
X0004052Y0022079D01*
X0004050Y0022017D01*
X0004050Y0020517D01*
X0004050Y0017300D02*
X0004050Y0016050D01*
X0008550Y0016050D01*
X0006550Y0016050D02*
X0006550Y0017300D01*
X0006550Y0017550D02*
X0008550Y0018550D01*
X0006550Y0017300D02*
X0006548Y0017369D01*
X0006542Y0017438D01*
X0006533Y0017506D01*
X0006520Y0017573D01*
X0006503Y0017640D01*
X0006482Y0017706D01*
X0006458Y0017770D01*
X0006430Y0017833D01*
X0006399Y0017895D01*
X0006365Y0017955D01*
X0006327Y0018012D01*
X0006286Y0018068D01*
X0006243Y0018121D01*
X0006196Y0018172D01*
X0006147Y0018220D01*
X0006095Y0018265D01*
X0006040Y0018307D01*
X0005984Y0018346D01*
X0005925Y0018383D01*
X0005864Y0018415D01*
X0005802Y0018445D01*
X0005738Y0018471D01*
X0005673Y0018493D01*
X0005607Y0018512D01*
X0005540Y0018527D01*
X0005472Y0018538D01*
X0005403Y0018546D01*
X0005334Y0018550D01*
X0005266Y0018550D01*
X0005197Y0018546D01*
X0005128Y0018538D01*
X0005060Y0018527D01*
X0004993Y0018512D01*
X0004927Y0018493D01*
X0004862Y0018471D01*
X0004798Y0018445D01*
X0004736Y0018415D01*
X0004675Y0018383D01*
X0004616Y0018346D01*
X0004560Y0018307D01*
X0004505Y0018265D01*
X0004453Y0018220D01*
X0004404Y0018172D01*
X0004357Y0018121D01*
X0004314Y0018068D01*
X0004273Y0018012D01*
X0004235Y0017955D01*
X0004201Y0017895D01*
X0004170Y0017833D01*
X0004142Y0017770D01*
X0004118Y0017706D01*
X0004097Y0017640D01*
X0004080Y0017573D01*
X0004067Y0017506D01*
X0004058Y0017438D01*
X0004052Y0017369D01*
X0004050Y0017300D01*
D15*
X0013900Y0085100D03*
X0014100Y0096400D03*
X0042300Y0085100D03*
X0042500Y0096400D03*
D16*
X0025100Y0041700D03*
X0014800Y0042000D03*
X0014800Y0013600D03*
X0025100Y0013300D03*
X0137200Y0012700D03*
X0148500Y0013000D03*
X0137200Y0041100D03*
X0148500Y0041400D03*
D17*
X0030100Y0051500D02*
X0030100Y0052500D01*
X0020100Y0052500D01*
X0020100Y0051500D01*
X0020600Y0074500D02*
X0020600Y0075500D01*
X0020600Y0074500D02*
X0030100Y0074500D01*
X0030100Y0075500D01*
D18*
X0067209Y0105002D02*
X0092799Y0105002D01*
X0092799Y0112876D02*
X0088469Y0112876D01*
X0088469Y0126656D01*
X0084138Y0126656D01*
X0084138Y0112483D01*
X0079413Y0112483D01*
X0079413Y0126656D01*
X0074689Y0126656D01*
X0074689Y0112483D01*
X0070752Y0112483D01*
X0070752Y0127050D01*
X0067209Y0127050D01*
X0067209Y0107758D01*
X0067209Y0107365D02*
X0067209Y0105002D01*
X0092799Y0112876D02*
X0092799Y0126656D01*
X0108547Y0126656D01*
M02*
