G75*
%MOIN*%
%OFA0B0*%
%FSLAX25Y25*%
%IPPOS*%
%LPD*%
%AMOC8*
5,1,8,0,0,1.08239X$1,22.5*
%
%ADD10OC8,0.05200*%
%ADD11C,0.06000*%
%ADD12C,0.05200*%
%ADD13C,0.04756*%
%ADD14C,0.05937*%
%ADD15C,0.02000*%
%ADD16C,0.00600*%
%ADD17C,0.03372*%
D10*
X0014800Y0007800D03*
X0025100Y0007500D03*
X0025100Y0047500D03*
X0014800Y0047800D03*
X0008100Y0085100D03*
X0008300Y0096400D03*
X0048300Y0096400D03*
X0048100Y0085100D03*
X0076200Y0027300D03*
X0086200Y0027300D03*
X0137200Y0046900D03*
X0148500Y0047200D03*
X0148500Y0007200D03*
X0137200Y0006900D03*
D11*
X0140900Y0089500D02*
X0140900Y0095500D01*
X0130900Y0095500D02*
X0130900Y0089500D01*
X0150900Y0089500D02*
X0150900Y0095500D01*
X0040900Y0072400D02*
X0034900Y0072400D01*
X0034900Y0054600D02*
X0040900Y0054600D01*
X0015300Y0054600D02*
X0009300Y0054600D01*
X0009300Y0072400D02*
X0015300Y0072400D01*
D12*
X0035900Y0016800D02*
X0035900Y0011600D01*
X0045900Y0011600D02*
X0045900Y0016800D01*
X0055900Y0016800D02*
X0055900Y0011600D01*
X0065900Y0011600D02*
X0065900Y0016800D01*
X0075900Y0016800D02*
X0075900Y0011600D01*
X0085900Y0011600D02*
X0085900Y0016800D01*
X0095900Y0016800D02*
X0095900Y0011600D01*
X0105900Y0011600D02*
X0105900Y0016800D01*
X0115900Y0016800D02*
X0115900Y0011600D01*
X0125900Y0011600D02*
X0125900Y0016800D01*
D13*
X0118421Y0041617D02*
X0113665Y0041617D01*
X0113665Y0049491D02*
X0118421Y0049491D01*
X0118421Y0057365D02*
X0113665Y0057365D01*
X0113665Y0065239D02*
X0118421Y0065239D01*
X0118421Y0073113D02*
X0113665Y0073113D01*
X0113665Y0080987D02*
X0118421Y0080987D01*
X0118421Y0088861D02*
X0113665Y0088861D01*
X0113665Y0096735D02*
X0118421Y0096735D01*
X0058547Y0096735D02*
X0053791Y0096735D01*
X0053791Y0088861D02*
X0058547Y0088861D01*
X0058547Y0080987D02*
X0053791Y0080987D01*
X0053791Y0073113D02*
X0058547Y0073113D01*
X0058547Y0065239D02*
X0053791Y0065239D01*
X0053791Y0057365D02*
X0058547Y0057365D01*
X0058547Y0049491D02*
X0053791Y0049491D01*
X0053791Y0041617D02*
X0058547Y0041617D01*
D14*
X0034400Y0107131D02*
X0034400Y0113069D01*
X0024400Y0113069D02*
X0024400Y0107131D01*
X0137200Y0069369D02*
X0137200Y0063431D01*
X0147200Y0063431D02*
X0147200Y0069369D01*
D15*
X0147200Y0066400D02*
X0147200Y0048500D01*
X0148500Y0047200D01*
X0143000Y0054000D02*
X0139000Y0058000D01*
X0131300Y0058000D01*
X0128600Y0060700D01*
X0126735Y0057365D02*
X0113665Y0057365D01*
X0108865Y0057365D01*
X0105900Y0054400D01*
X0105900Y0014200D01*
X0085900Y0014200D02*
X0085900Y0020100D01*
X0084000Y0022000D01*
X0071000Y0022000D01*
X0076200Y0027300D02*
X0076200Y0032200D01*
X0104700Y0060700D01*
X0109400Y0060700D01*
X0113665Y0065239D02*
X0118739Y0065239D01*
X0128500Y0075000D01*
X0145500Y0075000D01*
X0147200Y0073300D01*
X0147200Y0066400D01*
X0143000Y0054000D02*
X0143000Y0039000D01*
X0148500Y0033500D01*
X0148500Y0007200D01*
X0137000Y0007500D02*
X0137000Y0018282D01*
X0113665Y0041617D01*
X0126735Y0057365D02*
X0137200Y0046900D01*
X0135000Y0080500D02*
X0127000Y0080500D01*
X0118639Y0088861D01*
X0113665Y0088861D01*
X0113665Y0096735D02*
X0126665Y0096735D01*
X0130900Y0092500D01*
X0140900Y0092500D02*
X0140900Y0086400D01*
X0135000Y0080500D01*
X0065900Y0042138D02*
X0065900Y0014200D01*
X0055900Y0014200D02*
X0049000Y0021100D01*
X0049000Y0052500D01*
X0053865Y0057365D01*
X0058547Y0057365D01*
X0058547Y0065239D02*
X0050239Y0065239D01*
X0045900Y0060900D01*
X0045900Y0014200D01*
X0035900Y0014200D02*
X0029200Y0007500D01*
X0025100Y0007500D01*
X0014800Y0007800D02*
X0014800Y0028300D01*
X0029500Y0043000D01*
X0024800Y0047800D02*
X0014800Y0047800D01*
X0037900Y0054600D02*
X0037900Y0060400D01*
X0046500Y0069000D01*
X0046500Y0078000D01*
X0039000Y0085500D01*
X0039000Y0105500D01*
X0047765Y0096735D01*
X0048635Y0096735D01*
X0048300Y0096400D01*
X0048635Y0096735D02*
X0058547Y0096735D01*
X0048100Y0085100D02*
X0052213Y0080987D01*
X0058547Y0080987D01*
X0037900Y0072400D02*
X0034900Y0072400D01*
X0029500Y0067000D01*
X0058547Y0049491D02*
X0065900Y0042138D01*
X0039000Y0105500D02*
X0034400Y0110100D01*
D16*
X0109400Y0060700D02*
X0128600Y0060700D01*
X0114200Y0041500D02*
X0113665Y0041617D01*
X0137000Y0007300D02*
X0137200Y0006900D01*
X0148400Y0007300D02*
X0148500Y0007200D01*
X0015200Y0007900D02*
X0014800Y0007800D01*
D17*
X0071000Y0022000D03*
M02*
