G75*
%MOIN*%
%OFA0B0*%
%FSLAX25Y25*%
%IPPOS*%
%LPD*%
%AMOC8*
5,1,8,0,0,1.08239X$1,22.5*
%
%ADD10OC8,0.05200*%
%ADD11C,0.06000*%
%ADD12C,0.05200*%
%ADD13C,0.04756*%
%ADD14C,0.05937*%
%ADD15C,0.02000*%
%ADD16C,0.01000*%
%ADD17C,0.00600*%
%ADD18C,0.03372*%
D10*
X0014800Y0007800D03*
X0025100Y0007500D03*
X0025100Y0047500D03*
X0014800Y0047800D03*
X0008100Y0085100D03*
X0008300Y0096400D03*
X0048300Y0096400D03*
X0048100Y0085100D03*
X0076200Y0027300D03*
X0086200Y0027300D03*
X0137200Y0046900D03*
X0148500Y0047200D03*
X0148500Y0007200D03*
X0137200Y0006900D03*
D11*
X0140900Y0089500D02*
X0140900Y0095500D01*
X0130900Y0095500D02*
X0130900Y0089500D01*
X0150900Y0089500D02*
X0150900Y0095500D01*
X0040900Y0072400D02*
X0034900Y0072400D01*
X0034900Y0054600D02*
X0040900Y0054600D01*
X0015300Y0054600D02*
X0009300Y0054600D01*
X0009300Y0072400D02*
X0015300Y0072400D01*
D12*
X0035900Y0016800D02*
X0035900Y0011600D01*
X0045900Y0011600D02*
X0045900Y0016800D01*
X0055900Y0016800D02*
X0055900Y0011600D01*
X0065900Y0011600D02*
X0065900Y0016800D01*
X0075900Y0016800D02*
X0075900Y0011600D01*
X0085900Y0011600D02*
X0085900Y0016800D01*
X0095900Y0016800D02*
X0095900Y0011600D01*
X0105900Y0011600D02*
X0105900Y0016800D01*
X0115900Y0016800D02*
X0115900Y0011600D01*
X0125900Y0011600D02*
X0125900Y0016800D01*
D13*
X0118421Y0041617D02*
X0113665Y0041617D01*
X0113665Y0049491D02*
X0118421Y0049491D01*
X0118421Y0057365D02*
X0113665Y0057365D01*
X0113665Y0065239D02*
X0118421Y0065239D01*
X0118421Y0073113D02*
X0113665Y0073113D01*
X0113665Y0080987D02*
X0118421Y0080987D01*
X0118421Y0088861D02*
X0113665Y0088861D01*
X0113665Y0096735D02*
X0118421Y0096735D01*
X0058547Y0096735D02*
X0053791Y0096735D01*
X0053791Y0088861D02*
X0058547Y0088861D01*
X0058547Y0080987D02*
X0053791Y0080987D01*
X0053791Y0073113D02*
X0058547Y0073113D01*
X0058547Y0065239D02*
X0053791Y0065239D01*
X0053791Y0057365D02*
X0058547Y0057365D01*
X0058547Y0049491D02*
X0053791Y0049491D01*
X0053791Y0041617D02*
X0058547Y0041617D01*
D14*
X0034400Y0107131D02*
X0034400Y0113069D01*
X0024400Y0113069D02*
X0024400Y0107131D01*
X0137200Y0069369D02*
X0137200Y0063431D01*
X0147200Y0063431D02*
X0147200Y0069369D01*
D15*
X0007000Y0050141D02*
X0007000Y0007500D01*
X0010200Y0007500D01*
X0010200Y0007800D01*
X0014800Y0007800D01*
X0020000Y0013000D01*
X0025000Y0013000D01*
X0033500Y0022000D01*
X0071000Y0022000D01*
X0072900Y0022485D02*
X0007000Y0022485D01*
X0007000Y0020487D02*
X0033081Y0020487D01*
X0033294Y0020700D02*
X0032000Y0019406D01*
X0031300Y0017715D01*
X0031300Y0010685D01*
X0032000Y0008994D01*
X0033294Y0007700D01*
X0033778Y0007500D01*
X0029700Y0007500D01*
X0029700Y0009405D01*
X0027005Y0012100D01*
X0023195Y0012100D01*
X0020500Y0009405D01*
X0020500Y0007500D01*
X0019400Y0007500D01*
X0019400Y0007800D01*
X0019400Y0009705D01*
X0016705Y0012400D01*
X0014800Y0012400D01*
X0014800Y0007800D01*
X0014800Y0007800D01*
X0019400Y0007800D01*
X0014800Y0007800D01*
X0014800Y0007800D01*
X0014800Y0007800D01*
X0014800Y0012400D01*
X0012895Y0012400D01*
X0010200Y0009705D01*
X0010200Y0007800D01*
X0014800Y0007800D01*
X0014800Y0008496D02*
X0014800Y0008496D01*
X0014800Y0010494D02*
X0014800Y0010494D01*
X0018611Y0010494D02*
X0021589Y0010494D01*
X0020500Y0008496D02*
X0019400Y0008496D01*
X0010989Y0010494D02*
X0007000Y0010494D01*
X0007000Y0012493D02*
X0031300Y0012493D01*
X0031379Y0010494D02*
X0028611Y0010494D01*
X0029700Y0008496D02*
X0032499Y0008496D01*
X0038022Y0007500D02*
X0038506Y0007700D01*
X0039800Y0008994D01*
X0040500Y0010685D01*
X0040500Y0017715D01*
X0039800Y0019406D01*
X0038506Y0020700D01*
X0036815Y0021400D01*
X0034985Y0021400D01*
X0033294Y0020700D01*
X0031620Y0018488D02*
X0007000Y0018488D01*
X0007000Y0016490D02*
X0031300Y0016490D01*
X0031300Y0014491D02*
X0007000Y0014491D01*
X0007000Y0008496D02*
X0010200Y0008496D01*
X0007000Y0024484D02*
X0072511Y0024484D01*
X0072900Y0024095D02*
X0071600Y0025395D01*
X0071600Y0027057D01*
X0060833Y0037825D01*
X0059418Y0037239D01*
X0052920Y0037239D01*
X0051311Y0037905D01*
X0050600Y0038617D01*
X0023480Y0038617D01*
X0022287Y0038617D01*
X0021184Y0039073D01*
X0018801Y0041457D01*
X0017957Y0042301D01*
X0017500Y0043403D01*
X0017500Y0043995D01*
X0016705Y0043200D01*
X0012895Y0043200D01*
X0010200Y0045895D01*
X0010200Y0049600D01*
X0008305Y0049600D01*
X0007000Y0050141D01*
X0007000Y0048466D02*
X0010200Y0048466D01*
X0010200Y0046467D02*
X0007000Y0046467D01*
X0007000Y0044469D02*
X0011626Y0044469D01*
X0007000Y0042470D02*
X0017886Y0042470D01*
X0019786Y0040472D02*
X0007000Y0040472D01*
X0007000Y0038473D02*
X0050743Y0038473D01*
X0058547Y0041617D02*
X0022883Y0041617D01*
X0020500Y0044000D01*
X0020500Y0077500D01*
X0012900Y0085100D01*
X0008100Y0085100D01*
X0011269Y0088436D02*
X0029321Y0088436D01*
X0027323Y0090434D02*
X0007000Y0090434D01*
X0007000Y0089700D02*
X0007000Y0091800D01*
X0010205Y0091800D01*
X0012900Y0094495D01*
X0012900Y0098305D01*
X0010205Y0101000D01*
X0007000Y0101000D01*
X0007000Y0115461D01*
X0020013Y0115461D01*
X0019431Y0114057D01*
X0019431Y0106143D01*
X0020188Y0104317D01*
X0021400Y0103105D01*
X0021400Y0097003D01*
X0021857Y0095901D01*
X0040357Y0077400D01*
X0037900Y0077400D01*
X0037900Y0072400D01*
X0037900Y0072400D01*
X0037900Y0072400D01*
X0029900Y0072400D01*
X0029900Y0072794D01*
X0030023Y0073571D01*
X0030266Y0074319D01*
X0030624Y0075021D01*
X0031086Y0075657D01*
X0031643Y0076214D01*
X0032279Y0076676D01*
X0032981Y0077034D01*
X0033729Y0077277D01*
X0034506Y0077400D01*
X0037900Y0077400D01*
X0037900Y0072400D01*
X0029900Y0072400D01*
X0029900Y0072006D01*
X0030023Y0071229D01*
X0030266Y0070481D01*
X0030624Y0069779D01*
X0031008Y0069251D01*
X0030457Y0068699D01*
X0023500Y0061743D01*
X0023500Y0076903D01*
X0023500Y0078097D01*
X0023043Y0079199D01*
X0014599Y0087643D01*
X0013497Y0088100D01*
X0011605Y0088100D01*
X0010005Y0089700D01*
X0007000Y0089700D01*
X0010838Y0092433D02*
X0025324Y0092433D01*
X0023326Y0094432D02*
X0012837Y0094432D01*
X0012900Y0096430D02*
X0021637Y0096430D01*
X0024400Y0097600D02*
X0048887Y0073113D01*
X0058547Y0073113D01*
X0063000Y0070000D02*
X0066500Y0073500D01*
X0066500Y0084500D01*
X0062139Y0088861D01*
X0058547Y0088861D01*
X0061739Y0091861D02*
X0061027Y0092572D01*
X0060483Y0092798D01*
X0061027Y0093023D01*
X0062259Y0094255D01*
X0062925Y0095864D01*
X0062925Y0097605D01*
X0062259Y0099215D01*
X0061027Y0100446D01*
X0059418Y0101113D01*
X0052920Y0101113D01*
X0051311Y0100446D01*
X0051035Y0100170D01*
X0050205Y0101000D01*
X0046395Y0101000D01*
X0043700Y0098305D01*
X0043700Y0094495D01*
X0046395Y0091800D01*
X0050205Y0091800D01*
X0051394Y0092989D01*
X0051856Y0092798D01*
X0051311Y0092572D01*
X0050080Y0091341D01*
X0049413Y0089731D01*
X0049413Y0089700D01*
X0046195Y0089700D01*
X0043500Y0087005D01*
X0043500Y0083195D01*
X0046195Y0080500D01*
X0049413Y0080500D01*
X0049413Y0080116D01*
X0050080Y0078507D01*
X0051311Y0077275D01*
X0051856Y0077050D01*
X0051311Y0076824D01*
X0050600Y0076113D01*
X0050130Y0076113D01*
X0027400Y0098843D01*
X0027400Y0103105D01*
X0028612Y0104317D01*
X0029368Y0106143D01*
X0029368Y0114057D01*
X0028787Y0115461D01*
X0030013Y0115461D01*
X0029431Y0114057D01*
X0029431Y0106143D01*
X0030188Y0104317D01*
X0031586Y0102919D01*
X0033412Y0102163D01*
X0035388Y0102163D01*
X0037214Y0102919D01*
X0038612Y0104317D01*
X0039368Y0106143D01*
X0039368Y0114057D01*
X0038787Y0115461D01*
X0154701Y0115461D01*
X0154701Y0098770D01*
X0154157Y0099314D01*
X0153521Y0099776D01*
X0152819Y0100134D01*
X0152071Y0100377D01*
X0151294Y0100500D01*
X0150900Y0100500D01*
X0150900Y0092500D01*
X0150900Y0089400D01*
X0137200Y0075700D01*
X0137200Y0066400D01*
X0137200Y0066400D01*
X0137200Y0074337D01*
X0137591Y0074337D01*
X0138363Y0074215D01*
X0139107Y0073973D01*
X0139804Y0073618D01*
X0140437Y0073158D01*
X0140990Y0072605D01*
X0141449Y0071973D01*
X0141804Y0071276D01*
X0142046Y0070532D01*
X0142168Y0069760D01*
X0142168Y0066400D01*
X0137200Y0066400D01*
X0137200Y0066400D01*
X0137200Y0074337D01*
X0136809Y0074337D01*
X0136037Y0074215D01*
X0135293Y0073973D01*
X0134596Y0073618D01*
X0133963Y0073158D01*
X0133410Y0072605D01*
X0132951Y0071973D01*
X0132596Y0071276D01*
X0132354Y0070532D01*
X0132231Y0069760D01*
X0132231Y0069646D01*
X0127451Y0074763D01*
X0127431Y0074812D01*
X0127045Y0075198D01*
X0126672Y0075597D01*
X0126624Y0075619D01*
X0126587Y0075656D01*
X0126082Y0075865D01*
X0125586Y0076091D01*
X0125533Y0076092D01*
X0125484Y0076113D01*
X0124938Y0076113D01*
X0124393Y0076131D01*
X0124343Y0076113D01*
X0121613Y0076113D01*
X0120901Y0076824D01*
X0120357Y0077050D01*
X0120901Y0077275D01*
X0122133Y0078507D01*
X0122799Y0080116D01*
X0122799Y0081857D01*
X0122133Y0083467D01*
X0120901Y0084698D01*
X0120357Y0084924D01*
X0120901Y0085149D01*
X0122133Y0086381D01*
X0122799Y0087990D01*
X0122799Y0089731D01*
X0122133Y0091341D01*
X0120901Y0092572D01*
X0120357Y0092798D01*
X0120901Y0093023D01*
X0122133Y0094255D01*
X0122799Y0095864D01*
X0122799Y0097605D01*
X0122133Y0099215D01*
X0120901Y0100446D01*
X0119292Y0101113D01*
X0112795Y0101113D01*
X0111185Y0100446D01*
X0109954Y0099215D01*
X0109287Y0097605D01*
X0109287Y0095864D01*
X0109954Y0094255D01*
X0111185Y0093023D01*
X0111730Y0092798D01*
X0111185Y0092572D01*
X0109954Y0091341D01*
X0109287Y0089731D01*
X0109287Y0087990D01*
X0109954Y0086381D01*
X0111185Y0085149D01*
X0111730Y0084924D01*
X0111185Y0084698D01*
X0110474Y0083987D01*
X0109890Y0083987D01*
X0108787Y0083530D01*
X0107943Y0082686D01*
X0105457Y0080199D01*
X0105000Y0079097D01*
X0105000Y0062903D01*
X0105457Y0061801D01*
X0106301Y0060957D01*
X0107403Y0060500D01*
X0107464Y0060500D01*
X0107881Y0060084D01*
X0108584Y0059381D01*
X0109503Y0059000D01*
X0109604Y0059000D01*
X0109287Y0058235D01*
X0109287Y0056494D01*
X0109954Y0054885D01*
X0111185Y0053653D01*
X0111730Y0053428D01*
X0111185Y0053202D01*
X0109954Y0051970D01*
X0109287Y0050361D01*
X0109287Y0048620D01*
X0109954Y0047011D01*
X0111185Y0045779D01*
X0111740Y0045549D01*
X0111371Y0045361D01*
X0110813Y0044956D01*
X0110326Y0044469D01*
X0062237Y0044469D01*
X0061880Y0044617D02*
X0061739Y0044617D01*
X0061027Y0045328D01*
X0060483Y0045554D01*
X0061027Y0045779D01*
X0062259Y0047011D01*
X0062925Y0048620D01*
X0062925Y0050361D01*
X0062259Y0051970D01*
X0061027Y0053202D01*
X0060483Y0053428D01*
X0061027Y0053653D01*
X0062259Y0054885D01*
X0062925Y0056494D01*
X0062925Y0058235D01*
X0062259Y0059844D01*
X0061027Y0061076D01*
X0060483Y0061302D01*
X0061027Y0061527D01*
X0062259Y0062759D01*
X0062925Y0064368D01*
X0062925Y0066109D01*
X0062724Y0066594D01*
X0063416Y0066881D01*
X0063536Y0067000D01*
X0063597Y0067000D01*
X0064699Y0067457D01*
X0068199Y0070957D01*
X0069043Y0071801D01*
X0069500Y0072903D01*
X0069500Y0085097D01*
X0069043Y0086199D01*
X0064683Y0090560D01*
X0063839Y0091404D01*
X0062736Y0091861D01*
X0061739Y0091861D01*
X0061166Y0092433D02*
X0111046Y0092433D01*
X0109579Y0090434D02*
X0064808Y0090434D01*
X0066807Y0088436D02*
X0109287Y0088436D01*
X0109930Y0086437D02*
X0068805Y0086437D01*
X0069500Y0084439D02*
X0110926Y0084439D01*
X0107698Y0082440D02*
X0069500Y0082440D01*
X0069500Y0080442D02*
X0105699Y0080442D01*
X0105000Y0078443D02*
X0069500Y0078443D01*
X0069500Y0076445D02*
X0105000Y0076445D01*
X0105000Y0074446D02*
X0069500Y0074446D01*
X0069311Y0072448D02*
X0105000Y0072448D01*
X0105000Y0070449D02*
X0067692Y0070449D01*
X0065694Y0068451D02*
X0105000Y0068451D01*
X0105000Y0066452D02*
X0062783Y0066452D01*
X0062925Y0064454D02*
X0105000Y0064454D01*
X0105186Y0062455D02*
X0061955Y0062455D01*
X0061646Y0060457D02*
X0107508Y0060457D01*
X0109380Y0058458D02*
X0062833Y0058458D01*
X0062911Y0056460D02*
X0109301Y0056460D01*
X0110377Y0054461D02*
X0061835Y0054461D01*
X0061766Y0052463D02*
X0110446Y0052463D01*
X0109330Y0050464D02*
X0062883Y0050464D01*
X0062861Y0048466D02*
X0109351Y0048466D01*
X0110497Y0046467D02*
X0061715Y0046467D01*
X0061880Y0044617D02*
X0062983Y0044160D01*
X0075243Y0031900D01*
X0078105Y0031900D01*
X0080800Y0029205D01*
X0080800Y0025395D01*
X0078900Y0023495D01*
X0078900Y0020305D01*
X0079800Y0019406D01*
X0080500Y0017715D01*
X0080500Y0010685D01*
X0079800Y0008994D01*
X0078506Y0007700D01*
X0078022Y0007500D01*
X0083814Y0007500D01*
X0083489Y0007666D01*
X0082903Y0008091D01*
X0082391Y0008603D01*
X0081966Y0009189D01*
X0081637Y0009834D01*
X0081413Y0010523D01*
X0081300Y0011238D01*
X0081300Y0014200D01*
X0085900Y0014200D01*
X0085900Y0027000D01*
X0086200Y0027300D01*
X0100517Y0041617D01*
X0113665Y0041617D01*
X0113665Y0041616D01*
X0113665Y0041616D01*
X0113665Y0037239D01*
X0113321Y0037239D01*
X0112640Y0037346D01*
X0111985Y0037559D01*
X0111371Y0037872D01*
X0110813Y0038277D01*
X0110326Y0038764D01*
X0109921Y0039322D01*
X0109608Y0039936D01*
X0109395Y0040591D01*
X0109287Y0041272D01*
X0109287Y0041616D01*
X0113665Y0041616D01*
X0113665Y0037239D01*
X0118766Y0037239D01*
X0119446Y0037346D01*
X0120102Y0037559D01*
X0120716Y0037872D01*
X0121000Y0038079D01*
X0121000Y0036743D01*
X0120757Y0036500D01*
X0106403Y0036500D01*
X0105301Y0036043D01*
X0093357Y0024099D01*
X0092900Y0022997D01*
X0092900Y0020305D01*
X0092000Y0019406D01*
X0091300Y0017715D01*
X0091300Y0010685D01*
X0092000Y0008994D01*
X0093294Y0007700D01*
X0093778Y0007500D01*
X0087986Y0007500D01*
X0088311Y0007666D01*
X0088897Y0008091D01*
X0089409Y0008603D01*
X0089834Y0009189D01*
X0090163Y0009834D01*
X0090387Y0010523D01*
X0090500Y0011238D01*
X0090500Y0014200D01*
X0090500Y0017162D01*
X0090387Y0017877D01*
X0090163Y0018566D01*
X0089834Y0019211D01*
X0089409Y0019797D01*
X0088897Y0020309D01*
X0088311Y0020734D01*
X0087666Y0021063D01*
X0086977Y0021287D01*
X0086262Y0021400D01*
X0085900Y0021400D01*
X0085900Y0014200D01*
X0085900Y0014200D01*
X0090500Y0014200D01*
X0085900Y0014200D01*
X0085900Y0014200D01*
X0085900Y0014200D01*
X0085900Y0021400D01*
X0085538Y0021400D01*
X0084823Y0021287D01*
X0084134Y0021063D01*
X0083489Y0020734D01*
X0082903Y0020309D01*
X0082391Y0019797D01*
X0081966Y0019211D01*
X0081637Y0018566D01*
X0081413Y0017877D01*
X0081300Y0017162D01*
X0081300Y0014200D01*
X0085900Y0014200D01*
X0085900Y0014491D02*
X0085900Y0014491D01*
X0085900Y0016490D02*
X0085900Y0016490D01*
X0085900Y0018488D02*
X0085900Y0018488D01*
X0085900Y0020487D02*
X0085900Y0020487D01*
X0086200Y0022700D02*
X0084295Y0022700D01*
X0081600Y0025395D01*
X0081600Y0027300D01*
X0086200Y0027300D01*
X0090800Y0027300D01*
X0090800Y0029205D01*
X0088105Y0031900D01*
X0086200Y0031900D01*
X0086200Y0027300D01*
X0086200Y0027300D01*
X0086200Y0027300D01*
X0090800Y0027300D01*
X0090800Y0025395D01*
X0088105Y0022700D01*
X0086200Y0022700D01*
X0086200Y0027300D01*
X0086200Y0027300D01*
X0086200Y0027300D01*
X0086200Y0031900D01*
X0084295Y0031900D01*
X0081600Y0029205D01*
X0081600Y0027300D01*
X0086200Y0027300D01*
X0086200Y0022700D01*
X0083148Y0020487D02*
X0078900Y0020487D01*
X0078900Y0022485D02*
X0092900Y0022485D01*
X0092900Y0020487D02*
X0088652Y0020487D01*
X0090188Y0018488D02*
X0091620Y0018488D01*
X0091300Y0016490D02*
X0090500Y0016490D01*
X0090500Y0014491D02*
X0091300Y0014491D01*
X0091300Y0012493D02*
X0090500Y0012493D01*
X0090377Y0010494D02*
X0091379Y0010494D01*
X0092499Y0008496D02*
X0089301Y0008496D01*
X0082499Y0008496D02*
X0079301Y0008496D01*
X0080421Y0010494D02*
X0081423Y0010494D01*
X0081300Y0012493D02*
X0080500Y0012493D01*
X0080500Y0014491D02*
X0081300Y0014491D01*
X0081300Y0016490D02*
X0080500Y0016490D01*
X0080180Y0018488D02*
X0081612Y0018488D01*
X0075900Y0014200D02*
X0075900Y0027000D01*
X0061283Y0041617D01*
X0058547Y0041617D01*
X0064672Y0042470D02*
X0109368Y0042470D01*
X0109395Y0042642D02*
X0109287Y0041961D01*
X0109287Y0041617D01*
X0113665Y0041617D01*
X0113665Y0040472D02*
X0113665Y0040472D01*
X0113665Y0038473D02*
X0113665Y0038473D01*
X0110617Y0038473D02*
X0068669Y0038473D01*
X0066671Y0040472D02*
X0109434Y0040472D01*
X0109395Y0042642D02*
X0109608Y0043297D01*
X0109921Y0043911D01*
X0110326Y0044469D01*
X0113665Y0049491D02*
X0122009Y0049491D01*
X0124000Y0047500D01*
X0124000Y0035500D01*
X0122000Y0033500D01*
X0107000Y0033500D01*
X0095900Y0022400D01*
X0095900Y0014200D01*
X0093741Y0024484D02*
X0089889Y0024484D01*
X0090800Y0026482D02*
X0095739Y0026482D01*
X0097738Y0028481D02*
X0090800Y0028481D01*
X0089526Y0030479D02*
X0099737Y0030479D01*
X0101735Y0032478D02*
X0074665Y0032478D01*
X0072666Y0034476D02*
X0103734Y0034476D01*
X0106342Y0036475D02*
X0070668Y0036475D01*
X0066180Y0032478D02*
X0007000Y0032478D01*
X0007000Y0030479D02*
X0068178Y0030479D01*
X0070177Y0028481D02*
X0007000Y0028481D01*
X0007000Y0026482D02*
X0071600Y0026482D01*
X0072900Y0024095D02*
X0072900Y0020305D01*
X0072000Y0019406D01*
X0071300Y0017715D01*
X0071300Y0010685D01*
X0072000Y0008994D01*
X0073294Y0007700D01*
X0073778Y0007500D01*
X0068022Y0007500D01*
X0068506Y0007700D01*
X0069800Y0008994D01*
X0070500Y0010685D01*
X0070500Y0017715D01*
X0069800Y0019406D01*
X0068506Y0020700D01*
X0066815Y0021400D01*
X0064985Y0021400D01*
X0063294Y0020700D01*
X0062000Y0019406D01*
X0061300Y0017715D01*
X0061300Y0010685D01*
X0062000Y0008994D01*
X0063294Y0007700D01*
X0063778Y0007500D01*
X0058022Y0007500D01*
X0058506Y0007700D01*
X0059800Y0008994D01*
X0060500Y0010685D01*
X0060500Y0017715D01*
X0059800Y0019406D01*
X0058506Y0020700D01*
X0056815Y0021400D01*
X0054985Y0021400D01*
X0053294Y0020700D01*
X0052000Y0019406D01*
X0051300Y0017715D01*
X0051300Y0010685D01*
X0052000Y0008994D01*
X0053294Y0007700D01*
X0053778Y0007500D01*
X0048022Y0007500D01*
X0048506Y0007700D01*
X0049800Y0008994D01*
X0050500Y0010685D01*
X0050500Y0017715D01*
X0049800Y0019406D01*
X0048506Y0020700D01*
X0046815Y0021400D01*
X0044985Y0021400D01*
X0043294Y0020700D01*
X0042000Y0019406D01*
X0041300Y0017715D01*
X0041300Y0010685D01*
X0042000Y0008994D01*
X0043294Y0007700D01*
X0043778Y0007500D01*
X0038022Y0007500D01*
X0039301Y0008496D02*
X0042499Y0008496D01*
X0041379Y0010494D02*
X0040421Y0010494D01*
X0040500Y0012493D02*
X0041300Y0012493D01*
X0041300Y0014491D02*
X0040500Y0014491D01*
X0040500Y0016490D02*
X0041300Y0016490D01*
X0041620Y0018488D02*
X0040180Y0018488D01*
X0038719Y0020487D02*
X0043081Y0020487D01*
X0048719Y0020487D02*
X0053081Y0020487D01*
X0051620Y0018488D02*
X0050180Y0018488D01*
X0050500Y0016490D02*
X0051300Y0016490D01*
X0051300Y0014491D02*
X0050500Y0014491D01*
X0050500Y0012493D02*
X0051300Y0012493D01*
X0051379Y0010494D02*
X0050421Y0010494D01*
X0049301Y0008496D02*
X0052499Y0008496D01*
X0059301Y0008496D02*
X0062499Y0008496D01*
X0061379Y0010494D02*
X0060421Y0010494D01*
X0060500Y0012493D02*
X0061300Y0012493D01*
X0061300Y0014491D02*
X0060500Y0014491D01*
X0060500Y0016490D02*
X0061300Y0016490D01*
X0061620Y0018488D02*
X0060180Y0018488D01*
X0058719Y0020487D02*
X0063081Y0020487D01*
X0068719Y0020487D02*
X0072900Y0020487D01*
X0071620Y0018488D02*
X0070180Y0018488D01*
X0070500Y0016490D02*
X0071300Y0016490D01*
X0071300Y0014491D02*
X0070500Y0014491D01*
X0070500Y0012493D02*
X0071300Y0012493D01*
X0071379Y0010494D02*
X0070421Y0010494D01*
X0069301Y0008496D02*
X0072499Y0008496D01*
X0079889Y0024484D02*
X0082511Y0024484D01*
X0081600Y0026482D02*
X0080800Y0026482D01*
X0080800Y0028481D02*
X0081600Y0028481D01*
X0082874Y0030479D02*
X0079526Y0030479D01*
X0076200Y0027300D02*
X0075900Y0027000D01*
X0086200Y0026482D02*
X0086200Y0026482D01*
X0086200Y0024484D02*
X0086200Y0024484D01*
X0086200Y0028481D02*
X0086200Y0028481D01*
X0086200Y0030479D02*
X0086200Y0030479D01*
X0064181Y0034476D02*
X0007000Y0034476D01*
X0007000Y0036475D02*
X0062183Y0036475D01*
X0028210Y0066452D02*
X0023500Y0066452D01*
X0023500Y0064454D02*
X0026211Y0064454D01*
X0024213Y0062455D02*
X0023500Y0062455D01*
X0025000Y0059000D02*
X0033000Y0067000D01*
X0047500Y0067000D01*
X0049798Y0076445D02*
X0050932Y0076445D01*
X0050143Y0078443D02*
X0047799Y0078443D01*
X0049413Y0080442D02*
X0045801Y0080442D01*
X0044254Y0082440D02*
X0043802Y0082440D01*
X0043500Y0084439D02*
X0041804Y0084439D01*
X0043500Y0086437D02*
X0039805Y0086437D01*
X0037807Y0088436D02*
X0044931Y0088436D01*
X0045762Y0092433D02*
X0033810Y0092433D01*
X0035808Y0090434D02*
X0049705Y0090434D01*
X0050838Y0092433D02*
X0051172Y0092433D01*
X0043763Y0094432D02*
X0031811Y0094432D01*
X0029813Y0096430D02*
X0043700Y0096430D01*
X0043823Y0098429D02*
X0027814Y0098429D01*
X0027400Y0100427D02*
X0045822Y0100427D01*
X0050778Y0100427D02*
X0051292Y0100427D01*
X0061046Y0100427D02*
X0111166Y0100427D01*
X0109628Y0098429D02*
X0062584Y0098429D01*
X0062925Y0096430D02*
X0109287Y0096430D01*
X0109881Y0094432D02*
X0062332Y0094432D01*
X0039368Y0106423D02*
X0154701Y0106423D01*
X0154701Y0104424D02*
X0038656Y0104424D01*
X0036022Y0102426D02*
X0154701Y0102426D01*
X0154701Y0100427D02*
X0151754Y0100427D01*
X0150900Y0100427D02*
X0150900Y0100427D01*
X0150900Y0100500D02*
X0150506Y0100500D01*
X0149729Y0100377D01*
X0148981Y0100134D01*
X0148279Y0099776D01*
X0147643Y0099314D01*
X0147086Y0098757D01*
X0146624Y0098121D01*
X0146266Y0097419D01*
X0146023Y0096671D01*
X0145900Y0095894D01*
X0145900Y0092500D01*
X0150900Y0092500D01*
X0150900Y0092500D01*
X0150900Y0084500D01*
X0151294Y0084500D01*
X0152071Y0084623D01*
X0152819Y0084866D01*
X0153521Y0085224D01*
X0154157Y0085686D01*
X0154701Y0086230D01*
X0154701Y0007500D01*
X0153100Y0007500D01*
X0153100Y0009105D01*
X0150405Y0011800D01*
X0146595Y0011800D01*
X0143900Y0009105D01*
X0143900Y0007500D01*
X0141800Y0007500D01*
X0141800Y0008805D01*
X0139105Y0011500D01*
X0137200Y0011500D01*
X0137200Y0007500D01*
X0137200Y0007500D01*
X0137200Y0011500D01*
X0135295Y0011500D01*
X0132600Y0008805D01*
X0132600Y0007500D01*
X0128022Y0007500D01*
X0128506Y0007700D01*
X0129800Y0008994D01*
X0130500Y0010685D01*
X0130500Y0014557D01*
X0133699Y0017757D01*
X0134543Y0018601D01*
X0135000Y0019703D01*
X0135000Y0042595D01*
X0135295Y0042300D01*
X0139105Y0042300D01*
X0141800Y0044995D01*
X0141800Y0048805D01*
X0139105Y0051500D01*
X0135295Y0051500D01*
X0135000Y0051205D01*
X0135000Y0058976D01*
X0135293Y0058827D01*
X0136037Y0058585D01*
X0136809Y0058463D01*
X0137200Y0058463D01*
X0137591Y0058463D01*
X0138363Y0058585D01*
X0139107Y0058827D01*
X0139804Y0059182D01*
X0140437Y0059642D01*
X0140990Y0060195D01*
X0141449Y0060827D01*
X0141804Y0061524D01*
X0142046Y0062268D01*
X0142168Y0063040D01*
X0142168Y0066400D01*
X0137200Y0066400D01*
X0137200Y0058463D01*
X0137200Y0066400D01*
X0137200Y0066400D01*
X0137200Y0066452D02*
X0137200Y0066452D01*
X0137600Y0067500D02*
X0137600Y0063400D01*
X0143000Y0058000D01*
X0143000Y0043000D01*
X0137200Y0037200D01*
X0137200Y0006900D01*
X0137200Y0008496D02*
X0137200Y0008496D01*
X0137200Y0010494D02*
X0137200Y0010494D01*
X0140111Y0010494D02*
X0145289Y0010494D01*
X0143900Y0008496D02*
X0141800Y0008496D01*
X0134289Y0010494D02*
X0130421Y0010494D01*
X0130500Y0012493D02*
X0154701Y0012493D01*
X0154701Y0010494D02*
X0151711Y0010494D01*
X0153100Y0008496D02*
X0154701Y0008496D01*
X0154701Y0014491D02*
X0130500Y0014491D01*
X0132432Y0016490D02*
X0154701Y0016490D01*
X0154701Y0018488D02*
X0134431Y0018488D01*
X0135000Y0020487D02*
X0154701Y0020487D01*
X0154701Y0022485D02*
X0135000Y0022485D01*
X0132000Y0020300D02*
X0132000Y0065500D01*
X0124887Y0073113D01*
X0113665Y0073113D01*
X0108000Y0078500D02*
X0110487Y0080987D01*
X0113665Y0080987D01*
X0108000Y0078500D02*
X0108000Y0063500D01*
X0122000Y0061500D02*
X0128500Y0055000D01*
X0128500Y0026800D01*
X0115900Y0014200D01*
X0125900Y0014200D02*
X0132000Y0020300D01*
X0135000Y0024484D02*
X0154701Y0024484D01*
X0154701Y0026482D02*
X0135000Y0026482D01*
X0135000Y0028481D02*
X0154701Y0028481D01*
X0154701Y0030479D02*
X0135000Y0030479D01*
X0135000Y0032478D02*
X0154701Y0032478D01*
X0154701Y0034476D02*
X0135000Y0034476D01*
X0135000Y0036475D02*
X0154701Y0036475D01*
X0154701Y0038473D02*
X0135000Y0038473D01*
X0135000Y0040472D02*
X0154701Y0040472D01*
X0154701Y0042470D02*
X0139276Y0042470D01*
X0141274Y0044469D02*
X0144726Y0044469D01*
X0143900Y0045295D02*
X0146595Y0042600D01*
X0150405Y0042600D01*
X0153100Y0045295D01*
X0153100Y0049105D01*
X0150405Y0051800D01*
X0146595Y0051800D01*
X0143900Y0049105D01*
X0143900Y0045295D01*
X0143900Y0046467D02*
X0141800Y0046467D01*
X0141800Y0048466D02*
X0143900Y0048466D01*
X0145259Y0050464D02*
X0140141Y0050464D01*
X0135000Y0052463D02*
X0154701Y0052463D01*
X0154701Y0050464D02*
X0151741Y0050464D01*
X0153100Y0048466D02*
X0154701Y0048466D01*
X0154701Y0046467D02*
X0153100Y0046467D01*
X0152274Y0044469D02*
X0154701Y0044469D01*
X0154701Y0054461D02*
X0135000Y0054461D01*
X0135000Y0056460D02*
X0154701Y0056460D01*
X0154701Y0058458D02*
X0135000Y0058458D01*
X0137200Y0060457D02*
X0137200Y0060457D01*
X0137200Y0062455D02*
X0137200Y0062455D01*
X0137200Y0064454D02*
X0137200Y0064454D01*
X0137200Y0068451D02*
X0137200Y0068451D01*
X0137200Y0070449D02*
X0137200Y0070449D01*
X0137200Y0072448D02*
X0137200Y0072448D01*
X0141104Y0072448D02*
X0143253Y0072448D01*
X0142988Y0072183D02*
X0142231Y0070357D01*
X0142231Y0062443D01*
X0142988Y0060617D01*
X0144386Y0059219D01*
X0146212Y0058463D01*
X0148188Y0058463D01*
X0150014Y0059219D01*
X0151412Y0060617D01*
X0152168Y0062443D01*
X0152168Y0070357D01*
X0151412Y0072183D01*
X0150014Y0073581D01*
X0148188Y0074337D01*
X0146212Y0074337D01*
X0144386Y0073581D01*
X0142988Y0072183D01*
X0142270Y0070449D02*
X0142059Y0070449D01*
X0142168Y0068451D02*
X0142231Y0068451D01*
X0142168Y0066452D02*
X0142231Y0066452D01*
X0142168Y0064454D02*
X0142231Y0064454D01*
X0142231Y0062455D02*
X0142076Y0062455D01*
X0141180Y0060457D02*
X0143148Y0060457D01*
X0151252Y0060457D02*
X0154701Y0060457D01*
X0154701Y0062455D02*
X0152168Y0062455D01*
X0152168Y0064454D02*
X0154701Y0064454D01*
X0154701Y0066452D02*
X0152168Y0066452D01*
X0152168Y0068451D02*
X0154701Y0068451D01*
X0154701Y0070449D02*
X0152130Y0070449D01*
X0151147Y0072448D02*
X0154701Y0072448D01*
X0154701Y0074446D02*
X0127747Y0074446D01*
X0129614Y0072448D02*
X0133296Y0072448D01*
X0132341Y0070449D02*
X0131481Y0070449D01*
X0121280Y0076445D02*
X0154701Y0076445D01*
X0154701Y0078443D02*
X0122069Y0078443D01*
X0122799Y0080442D02*
X0154701Y0080442D01*
X0154701Y0082440D02*
X0122558Y0082440D01*
X0121160Y0084439D02*
X0154701Y0084439D01*
X0150900Y0084500D02*
X0150900Y0092500D01*
X0150900Y0092500D01*
X0150900Y0092500D01*
X0150900Y0100500D01*
X0150046Y0100427D02*
X0142071Y0100427D01*
X0141895Y0100500D02*
X0139905Y0100500D01*
X0138068Y0099739D01*
X0136661Y0098332D01*
X0135900Y0096495D01*
X0135139Y0098332D01*
X0133732Y0099739D01*
X0131895Y0100500D01*
X0129905Y0100500D01*
X0128068Y0099739D01*
X0126661Y0098332D01*
X0125900Y0096495D01*
X0125900Y0088505D01*
X0126661Y0086668D01*
X0128068Y0085261D01*
X0129905Y0084500D01*
X0131895Y0084500D01*
X0133732Y0085261D01*
X0135139Y0086668D01*
X0135900Y0088505D01*
X0135900Y0096495D01*
X0135900Y0088505D01*
X0136661Y0086668D01*
X0138068Y0085261D01*
X0139905Y0084500D01*
X0141895Y0084500D01*
X0143732Y0085261D01*
X0145139Y0086668D01*
X0145900Y0088505D01*
X0145900Y0096495D01*
X0145139Y0098332D01*
X0143732Y0099739D01*
X0141895Y0100500D01*
X0139729Y0100427D02*
X0132071Y0100427D01*
X0129729Y0100427D02*
X0120920Y0100427D01*
X0122458Y0098429D02*
X0126757Y0098429D01*
X0125900Y0096430D02*
X0122799Y0096430D01*
X0122206Y0094432D02*
X0125900Y0094432D01*
X0125900Y0092433D02*
X0121040Y0092433D01*
X0122508Y0090434D02*
X0125900Y0090434D01*
X0125929Y0088436D02*
X0122799Y0088436D01*
X0122156Y0086437D02*
X0126891Y0086437D01*
X0134909Y0086437D02*
X0136891Y0086437D01*
X0135929Y0088436D02*
X0135871Y0088436D01*
X0135900Y0090434D02*
X0135900Y0090434D01*
X0135900Y0092433D02*
X0135900Y0092433D01*
X0135900Y0094432D02*
X0135900Y0094432D01*
X0135900Y0096430D02*
X0135900Y0096430D01*
X0135043Y0098429D02*
X0136757Y0098429D01*
X0145043Y0098429D02*
X0146847Y0098429D01*
X0145985Y0096430D02*
X0145900Y0096430D01*
X0145900Y0094432D02*
X0145900Y0094432D01*
X0145900Y0092500D02*
X0145900Y0089106D01*
X0146023Y0088329D01*
X0146266Y0087581D01*
X0146624Y0086879D01*
X0147086Y0086243D01*
X0147643Y0085686D01*
X0148279Y0085224D01*
X0148981Y0084866D01*
X0149729Y0084623D01*
X0150506Y0084500D01*
X0150900Y0084500D01*
X0150900Y0086437D02*
X0150900Y0086437D01*
X0150900Y0088436D02*
X0150900Y0088436D01*
X0150900Y0090434D02*
X0150900Y0090434D01*
X0150900Y0092433D02*
X0150900Y0092433D01*
X0150900Y0092500D02*
X0145900Y0092500D01*
X0145871Y0088436D02*
X0146006Y0088436D01*
X0146945Y0086437D02*
X0144909Y0086437D01*
X0150900Y0094432D02*
X0150900Y0094432D01*
X0150900Y0096430D02*
X0150900Y0096430D01*
X0150900Y0098429D02*
X0150900Y0098429D01*
X0154701Y0108421D02*
X0039368Y0108421D01*
X0039368Y0110420D02*
X0154701Y0110420D01*
X0154701Y0112418D02*
X0039368Y0112418D01*
X0039219Y0114417D02*
X0154701Y0114417D01*
X0135124Y0042470D02*
X0135000Y0042470D01*
X0132600Y0008496D02*
X0129301Y0008496D01*
X0039314Y0078443D02*
X0023356Y0078443D01*
X0021801Y0080442D02*
X0037315Y0080442D01*
X0035317Y0082440D02*
X0019802Y0082440D01*
X0017804Y0084439D02*
X0033318Y0084439D01*
X0031320Y0086437D02*
X0015805Y0086437D01*
X0023500Y0076445D02*
X0031961Y0076445D01*
X0030331Y0074446D02*
X0023500Y0074446D01*
X0023500Y0072448D02*
X0029900Y0072448D01*
X0030282Y0070449D02*
X0023500Y0070449D01*
X0023500Y0068451D02*
X0030208Y0068451D01*
X0037900Y0072448D02*
X0037900Y0072448D01*
X0037900Y0074446D02*
X0037900Y0074446D01*
X0037900Y0076445D02*
X0037900Y0076445D01*
X0025000Y0059000D02*
X0025100Y0058900D01*
X0025100Y0047500D01*
X0024400Y0097600D02*
X0024400Y0110100D01*
X0019431Y0110420D02*
X0007000Y0110420D01*
X0007000Y0112418D02*
X0019431Y0112418D01*
X0019581Y0114417D02*
X0007000Y0114417D01*
X0007000Y0108421D02*
X0019431Y0108421D01*
X0019431Y0106423D02*
X0007000Y0106423D01*
X0007000Y0104424D02*
X0020144Y0104424D01*
X0021400Y0102426D02*
X0007000Y0102426D01*
X0010778Y0100427D02*
X0021400Y0100427D01*
X0021400Y0098429D02*
X0012777Y0098429D01*
X0027400Y0102426D02*
X0032778Y0102426D01*
X0030144Y0104424D02*
X0028656Y0104424D01*
X0029368Y0106423D02*
X0029431Y0106423D01*
X0029368Y0108421D02*
X0029431Y0108421D01*
X0029368Y0110420D02*
X0029431Y0110420D01*
X0029368Y0112418D02*
X0029431Y0112418D01*
X0029581Y0114417D02*
X0029219Y0114417D01*
D16*
X0063000Y0070000D02*
X0062000Y0069000D01*
X0049500Y0069000D01*
X0047500Y0067000D01*
X0108000Y0063500D02*
X0110000Y0061500D01*
X0122000Y0061500D01*
D17*
X0137200Y0066400D02*
X0137600Y0066700D01*
X0137600Y0067500D01*
X0085900Y0014200D02*
X0085400Y0013300D01*
X0058547Y0041617D02*
X0057800Y0042100D01*
X0008600Y0084700D02*
X0008100Y0085100D01*
X0008000Y0085300D01*
X0008000Y0096100D02*
X0008300Y0096400D01*
D18*
X0071000Y0022000D03*
M02*
