%TF.GenerationSoftware,KiCad,Pcbnew,5.0.2-bee76a0~70~ubuntu18.04.1*%
%TF.CreationDate,2019-02-17T22:46:45-03:00*%
%TF.ProjectId,ESP12-breakout-r01,45535031-322d-4627-9265-616b6f75742d,rev?*%
%TF.SameCoordinates,Original*%
%TF.FileFunction,Copper,L1,Top*%
%TF.FilePolarity,Positive*%
%FSLAX46Y46*%
G04 Gerber Fmt 4.6, Leading zero omitted, Abs format (unit mm)*
G04 Created by KiCad (PCBNEW 5.0.2-bee76a0~70~ubuntu18.04.1) date dom 17 fev 2019 22:46:45 -03*
%MOMM*%
%LPD*%
G01*
G04 APERTURE LIST*
%ADD10C,1.400000*%
%ADD11O,1.400000X1.400000*%
%ADD12R,2.500000X1.000000*%
%ADD13R,1.000000X1.800000*%
%ADD14C,2.000000*%
%ADD15C,1.600000*%
%ADD16O,1.700000X1.700000*%
%ADD17R,1.700000X1.700000*%
%ADD18C,0.800000*%
%ADD19C,0.254000*%
%ADD20C,1.000000*%
G04 APERTURE END LIST*
D10*
X182308500Y-38100000D03*
D11*
X182308500Y-30480000D03*
X179959000Y-30480000D03*
D10*
X179959000Y-38100000D03*
X177546000Y-38100000D03*
D11*
X177546000Y-30480000D03*
X146875500Y-37973000D03*
D10*
X154495500Y-37973000D03*
X146875500Y-35750500D03*
D11*
X154495500Y-35750500D03*
X147066000Y-32385000D03*
D10*
X154686000Y-32385000D03*
X154432000Y-16383000D03*
D11*
X146812000Y-16383000D03*
D12*
X172827000Y-16820000D03*
X172827000Y-18820000D03*
X172827000Y-20820000D03*
X172827000Y-22820000D03*
X172827000Y-24820000D03*
X172827000Y-26820000D03*
X172827000Y-28820000D03*
X172827000Y-30820000D03*
D13*
X170227000Y-32320000D03*
X168227000Y-32320000D03*
X166227000Y-32320000D03*
X164227000Y-32320000D03*
X162227000Y-32320000D03*
X160227000Y-32320000D03*
D12*
X157627000Y-30820000D03*
X157627000Y-28820000D03*
X157627000Y-26820000D03*
X157627000Y-24820000D03*
X157627000Y-22820000D03*
X157627000Y-20820000D03*
X157627000Y-18820000D03*
X157627000Y-16820000D03*
D14*
X153924000Y-19249000D03*
X153924000Y-23749000D03*
X147424000Y-19249000D03*
X147424000Y-23749000D03*
D15*
X162687000Y-35242500D03*
X167687000Y-35242500D03*
D16*
X181356000Y-26162000D03*
D17*
X178816000Y-26162000D03*
X147764500Y-28130500D03*
D16*
X150304500Y-28130500D03*
D17*
X182499000Y-20955000D03*
D16*
X179959000Y-20955000D03*
X177419000Y-20955000D03*
D17*
X151257000Y-42672000D03*
D16*
X153797000Y-42672000D03*
X156337000Y-42672000D03*
X158877000Y-42672000D03*
X161417000Y-42672000D03*
X163957000Y-42672000D03*
X166497000Y-42672000D03*
X169037000Y-42672000D03*
X171577000Y-42672000D03*
X174117000Y-42672000D03*
X176657000Y-42672000D03*
X179197000Y-42672000D03*
D18*
X159575500Y-18859500D03*
X174815500Y-30861000D03*
X173291500Y-32004000D03*
D19*
X154869000Y-16820000D02*
X154432000Y-16383000D01*
X157627000Y-16820000D02*
X154869000Y-16820000D01*
X153924000Y-16891000D02*
X154432000Y-16383000D01*
X153924000Y-19249000D02*
X153924000Y-16891000D01*
X147424000Y-19249000D02*
X148838213Y-19249000D01*
X149161500Y-25629500D02*
X149161500Y-19249000D01*
X147764500Y-28130500D02*
X147764500Y-27026500D01*
X147764500Y-27026500D02*
X149161500Y-25629500D01*
X153924000Y-19249000D02*
X149161500Y-19249000D01*
X149161500Y-19249000D02*
X147424000Y-19249000D01*
D20*
X157627000Y-32320000D02*
X157607000Y-32340000D01*
X157627000Y-30820000D02*
X157627000Y-32320000D01*
X157607000Y-32340000D02*
X157607000Y-34671000D01*
X158178500Y-35242500D02*
X162687000Y-35242500D01*
X157607000Y-34671000D02*
X158178500Y-35242500D01*
X161417000Y-38481000D02*
X158178500Y-35242500D01*
X161417000Y-42672000D02*
X161417000Y-38481000D01*
D19*
X157627000Y-31574000D02*
X157627000Y-30820000D01*
X156816000Y-32385000D02*
X157627000Y-31574000D01*
X154686000Y-32385000D02*
X156816000Y-32385000D01*
X149034500Y-30416500D02*
X147066000Y-32385000D01*
X149034500Y-27305000D02*
X149034500Y-30416500D01*
X156123000Y-20820000D02*
X155797500Y-21145500D01*
X157627000Y-20820000D02*
X156123000Y-20820000D01*
X149733000Y-26606500D02*
X149034500Y-27305000D01*
X155797500Y-21145500D02*
X151892000Y-21145500D01*
X151892000Y-21145500D02*
X149733000Y-23304500D01*
X149733000Y-23304500D02*
X149733000Y-26606500D01*
X151257000Y-42672000D02*
X151257000Y-36004500D01*
X151003000Y-35750500D02*
X146875500Y-35750500D01*
X151257000Y-36004500D02*
X151003000Y-35750500D01*
X154495500Y-37973000D02*
X154495500Y-35750500D01*
X157666500Y-18859500D02*
X157627000Y-18820000D01*
X159575500Y-18859500D02*
X157666500Y-18859500D01*
D20*
X172868000Y-30861000D02*
X172827000Y-30820000D01*
X174815500Y-30861000D02*
X172868000Y-30861000D01*
X173291500Y-31284500D02*
X172827000Y-30820000D01*
X173291500Y-32004000D02*
X173291500Y-31284500D01*
D19*
X175886000Y-28820000D02*
X177546000Y-30480000D01*
X172827000Y-28820000D02*
X175886000Y-28820000D01*
X177546000Y-31623000D02*
X166497000Y-42672000D01*
X177546000Y-30480000D02*
X177546000Y-31623000D01*
X169037000Y-42037000D02*
X169037000Y-42672000D01*
X176339500Y-26860500D02*
X176339500Y-26820000D01*
X179959000Y-30480000D02*
X176339500Y-26860500D01*
X176339500Y-26820000D02*
X172827000Y-26820000D01*
X179959000Y-31750000D02*
X169037000Y-42672000D01*
X179959000Y-30480000D02*
X179959000Y-31750000D01*
X171577000Y-41846500D02*
X171577000Y-42672000D01*
X178816000Y-25058000D02*
X178816000Y-26162000D01*
X178578000Y-24820000D02*
X178816000Y-25058000D01*
X172827000Y-24820000D02*
X178578000Y-24820000D01*
X178816000Y-26987500D02*
X178816000Y-26162000D01*
X182308500Y-30480000D02*
X178816000Y-26987500D01*
X171577000Y-41211500D02*
X171577000Y-42672000D01*
X182308500Y-30480000D02*
X171577000Y-41211500D01*
X157627000Y-22820000D02*
X156877000Y-22820000D01*
X150304500Y-25404538D02*
X151574500Y-24134538D01*
X150304500Y-28130500D02*
X150304500Y-25404538D01*
X151574500Y-24134538D02*
X151574500Y-23177500D01*
X151574500Y-23177500D02*
X152717500Y-22034500D01*
X155337500Y-22034500D02*
X156123000Y-22820000D01*
X156123000Y-22820000D02*
X157627000Y-22820000D01*
X152717500Y-22034500D02*
X155337500Y-22034500D01*
X152082500Y-25971500D02*
X152082500Y-40957500D01*
X155916000Y-25781000D02*
X152273000Y-25781000D01*
X152273000Y-25781000D02*
X152082500Y-25971500D01*
X157627000Y-24820000D02*
X156877000Y-24820000D01*
X152082500Y-40957500D02*
X153797000Y-42672000D01*
X156877000Y-24820000D02*
X155916000Y-25781000D01*
X156877000Y-26820000D02*
X156836500Y-26860500D01*
X157627000Y-26820000D02*
X156877000Y-26820000D01*
X153416000Y-26860500D02*
X152654000Y-27622500D01*
X156836500Y-26860500D02*
X153416000Y-26860500D01*
X152654000Y-27622500D02*
X152654000Y-39560500D01*
X152654000Y-39560500D02*
X154051000Y-40957500D01*
X154622500Y-40957500D02*
X156337000Y-42672000D01*
X154051000Y-40957500D02*
X154622500Y-40957500D01*
X154495500Y-40132000D02*
X156337000Y-40132000D01*
X153225500Y-38862000D02*
X154495500Y-40132000D01*
X153225500Y-29464000D02*
X153225500Y-38862000D01*
X157627000Y-28820000D02*
X153869500Y-28820000D01*
X156337000Y-40132000D02*
X158877000Y-42672000D01*
X153869500Y-28820000D02*
X153225500Y-29464000D01*
X174966999Y-41822001D02*
X174117000Y-42672000D01*
X176158510Y-40630490D02*
X174966999Y-41822001D01*
X183524510Y-40630490D02*
X176158510Y-40630490D01*
X172827000Y-22820000D02*
X174331000Y-22820000D01*
X174331000Y-22820000D02*
X175450500Y-23939500D01*
X175450500Y-23939500D02*
X183134000Y-23939500D01*
X183822990Y-24628490D02*
X183822990Y-40332010D01*
X183134000Y-23939500D02*
X183822990Y-24628490D01*
X183822990Y-40332010D02*
X183524510Y-40630490D01*
X173577000Y-20820000D02*
X174410500Y-21653500D01*
X172827000Y-20820000D02*
X173577000Y-20820000D01*
X174410500Y-21653500D02*
X174879000Y-21653500D01*
X174879000Y-21653500D02*
X176276000Y-23050500D01*
X176276000Y-23050500D02*
X183705500Y-23050500D01*
X183705500Y-23050500D02*
X184277000Y-23622000D01*
X184277000Y-23622000D02*
X184277000Y-40830500D01*
X184277000Y-40830500D02*
X184023000Y-41084500D01*
X178244500Y-41084500D02*
X176657000Y-42672000D01*
X184023000Y-41084500D02*
X178244500Y-41084500D01*
X177824000Y-18820000D02*
X172827000Y-18820000D01*
X179959000Y-20955000D02*
X177824000Y-18820000D01*
X174331000Y-16820000D02*
X172827000Y-16820000D01*
X179468000Y-16820000D02*
X174331000Y-16820000D01*
X182499000Y-19851000D02*
X179468000Y-16820000D01*
X182499000Y-20955000D02*
X182499000Y-19851000D01*
M02*
