%TF.GenerationSoftware,KiCad,Pcbnew,5.0.2-bee76a0~70~ubuntu18.04.1*%
%TF.CreationDate,2019-02-17T22:46:45-03:00*%
%TF.ProjectId,ESP12-breakout-r01,45535031-322d-4627-9265-616b6f75742d,rev?*%
%TF.SameCoordinates,Original*%
%TF.FileFunction,Soldermask,Bot*%
%TF.FilePolarity,Negative*%
%FSLAX46Y46*%
G04 Gerber Fmt 4.6, Leading zero omitted, Abs format (unit mm)*
G04 Created by KiCad (PCBNEW 5.0.2-bee76a0~70~ubuntu18.04.1) date dom 17 fev 2019 22:46:45 -03*
%MOMM*%
%LPD*%
G01*
G04 APERTURE LIST*
%ADD10C,0.100000*%
G04 APERTURE END LIST*
D10*
G36*
X153907443Y-41777519D02*
X153973627Y-41784037D01*
X154086853Y-41818384D01*
X154143467Y-41835557D01*
X154282087Y-41909652D01*
X154299991Y-41919222D01*
X154335729Y-41948552D01*
X154437186Y-42031814D01*
X154520448Y-42133271D01*
X154549778Y-42169009D01*
X154549779Y-42169011D01*
X154633443Y-42325533D01*
X154633443Y-42325534D01*
X154684963Y-42495373D01*
X154702359Y-42672000D01*
X154684963Y-42848627D01*
X154650616Y-42961853D01*
X154633443Y-43018467D01*
X154559348Y-43157087D01*
X154549778Y-43174991D01*
X154520448Y-43210729D01*
X154437186Y-43312186D01*
X154335729Y-43395448D01*
X154299991Y-43424778D01*
X154299989Y-43424779D01*
X154143467Y-43508443D01*
X154086853Y-43525616D01*
X153973627Y-43559963D01*
X153907443Y-43566481D01*
X153841260Y-43573000D01*
X153752740Y-43573000D01*
X153686557Y-43566481D01*
X153620373Y-43559963D01*
X153507147Y-43525616D01*
X153450533Y-43508443D01*
X153294011Y-43424779D01*
X153294009Y-43424778D01*
X153258271Y-43395448D01*
X153156814Y-43312186D01*
X153073552Y-43210729D01*
X153044222Y-43174991D01*
X153034652Y-43157087D01*
X152960557Y-43018467D01*
X152943384Y-42961853D01*
X152909037Y-42848627D01*
X152891641Y-42672000D01*
X152909037Y-42495373D01*
X152960557Y-42325534D01*
X152960557Y-42325533D01*
X153044221Y-42169011D01*
X153044222Y-42169009D01*
X153073552Y-42133271D01*
X153156814Y-42031814D01*
X153258271Y-41948552D01*
X153294009Y-41919222D01*
X153311913Y-41909652D01*
X153450533Y-41835557D01*
X153507147Y-41818384D01*
X153620373Y-41784037D01*
X153686557Y-41777519D01*
X153752740Y-41771000D01*
X153841260Y-41771000D01*
X153907443Y-41777519D01*
X153907443Y-41777519D01*
G37*
G36*
X176767443Y-41777519D02*
X176833627Y-41784037D01*
X176946853Y-41818384D01*
X177003467Y-41835557D01*
X177142087Y-41909652D01*
X177159991Y-41919222D01*
X177195729Y-41948552D01*
X177297186Y-42031814D01*
X177380448Y-42133271D01*
X177409778Y-42169009D01*
X177409779Y-42169011D01*
X177493443Y-42325533D01*
X177493443Y-42325534D01*
X177544963Y-42495373D01*
X177562359Y-42672000D01*
X177544963Y-42848627D01*
X177510616Y-42961853D01*
X177493443Y-43018467D01*
X177419348Y-43157087D01*
X177409778Y-43174991D01*
X177380448Y-43210729D01*
X177297186Y-43312186D01*
X177195729Y-43395448D01*
X177159991Y-43424778D01*
X177159989Y-43424779D01*
X177003467Y-43508443D01*
X176946853Y-43525616D01*
X176833627Y-43559963D01*
X176767443Y-43566481D01*
X176701260Y-43573000D01*
X176612740Y-43573000D01*
X176546557Y-43566481D01*
X176480373Y-43559963D01*
X176367147Y-43525616D01*
X176310533Y-43508443D01*
X176154011Y-43424779D01*
X176154009Y-43424778D01*
X176118271Y-43395448D01*
X176016814Y-43312186D01*
X175933552Y-43210729D01*
X175904222Y-43174991D01*
X175894652Y-43157087D01*
X175820557Y-43018467D01*
X175803384Y-42961853D01*
X175769037Y-42848627D01*
X175751641Y-42672000D01*
X175769037Y-42495373D01*
X175820557Y-42325534D01*
X175820557Y-42325533D01*
X175904221Y-42169011D01*
X175904222Y-42169009D01*
X175933552Y-42133271D01*
X176016814Y-42031814D01*
X176118271Y-41948552D01*
X176154009Y-41919222D01*
X176171913Y-41909652D01*
X176310533Y-41835557D01*
X176367147Y-41818384D01*
X176480373Y-41784037D01*
X176546557Y-41777519D01*
X176612740Y-41771000D01*
X176701260Y-41771000D01*
X176767443Y-41777519D01*
X176767443Y-41777519D01*
G37*
G36*
X152158000Y-43573000D02*
X150356000Y-43573000D01*
X150356000Y-41771000D01*
X152158000Y-41771000D01*
X152158000Y-43573000D01*
X152158000Y-43573000D01*
G37*
G36*
X156447443Y-41777519D02*
X156513627Y-41784037D01*
X156626853Y-41818384D01*
X156683467Y-41835557D01*
X156822087Y-41909652D01*
X156839991Y-41919222D01*
X156875729Y-41948552D01*
X156977186Y-42031814D01*
X157060448Y-42133271D01*
X157089778Y-42169009D01*
X157089779Y-42169011D01*
X157173443Y-42325533D01*
X157173443Y-42325534D01*
X157224963Y-42495373D01*
X157242359Y-42672000D01*
X157224963Y-42848627D01*
X157190616Y-42961853D01*
X157173443Y-43018467D01*
X157099348Y-43157087D01*
X157089778Y-43174991D01*
X157060448Y-43210729D01*
X156977186Y-43312186D01*
X156875729Y-43395448D01*
X156839991Y-43424778D01*
X156839989Y-43424779D01*
X156683467Y-43508443D01*
X156626853Y-43525616D01*
X156513627Y-43559963D01*
X156447443Y-43566481D01*
X156381260Y-43573000D01*
X156292740Y-43573000D01*
X156226557Y-43566481D01*
X156160373Y-43559963D01*
X156047147Y-43525616D01*
X155990533Y-43508443D01*
X155834011Y-43424779D01*
X155834009Y-43424778D01*
X155798271Y-43395448D01*
X155696814Y-43312186D01*
X155613552Y-43210729D01*
X155584222Y-43174991D01*
X155574652Y-43157087D01*
X155500557Y-43018467D01*
X155483384Y-42961853D01*
X155449037Y-42848627D01*
X155431641Y-42672000D01*
X155449037Y-42495373D01*
X155500557Y-42325534D01*
X155500557Y-42325533D01*
X155584221Y-42169011D01*
X155584222Y-42169009D01*
X155613552Y-42133271D01*
X155696814Y-42031814D01*
X155798271Y-41948552D01*
X155834009Y-41919222D01*
X155851913Y-41909652D01*
X155990533Y-41835557D01*
X156047147Y-41818384D01*
X156160373Y-41784037D01*
X156226557Y-41777519D01*
X156292740Y-41771000D01*
X156381260Y-41771000D01*
X156447443Y-41777519D01*
X156447443Y-41777519D01*
G37*
G36*
X158987443Y-41777519D02*
X159053627Y-41784037D01*
X159166853Y-41818384D01*
X159223467Y-41835557D01*
X159362087Y-41909652D01*
X159379991Y-41919222D01*
X159415729Y-41948552D01*
X159517186Y-42031814D01*
X159600448Y-42133271D01*
X159629778Y-42169009D01*
X159629779Y-42169011D01*
X159713443Y-42325533D01*
X159713443Y-42325534D01*
X159764963Y-42495373D01*
X159782359Y-42672000D01*
X159764963Y-42848627D01*
X159730616Y-42961853D01*
X159713443Y-43018467D01*
X159639348Y-43157087D01*
X159629778Y-43174991D01*
X159600448Y-43210729D01*
X159517186Y-43312186D01*
X159415729Y-43395448D01*
X159379991Y-43424778D01*
X159379989Y-43424779D01*
X159223467Y-43508443D01*
X159166853Y-43525616D01*
X159053627Y-43559963D01*
X158987443Y-43566481D01*
X158921260Y-43573000D01*
X158832740Y-43573000D01*
X158766557Y-43566481D01*
X158700373Y-43559963D01*
X158587147Y-43525616D01*
X158530533Y-43508443D01*
X158374011Y-43424779D01*
X158374009Y-43424778D01*
X158338271Y-43395448D01*
X158236814Y-43312186D01*
X158153552Y-43210729D01*
X158124222Y-43174991D01*
X158114652Y-43157087D01*
X158040557Y-43018467D01*
X158023384Y-42961853D01*
X157989037Y-42848627D01*
X157971641Y-42672000D01*
X157989037Y-42495373D01*
X158040557Y-42325534D01*
X158040557Y-42325533D01*
X158124221Y-42169011D01*
X158124222Y-42169009D01*
X158153552Y-42133271D01*
X158236814Y-42031814D01*
X158338271Y-41948552D01*
X158374009Y-41919222D01*
X158391913Y-41909652D01*
X158530533Y-41835557D01*
X158587147Y-41818384D01*
X158700373Y-41784037D01*
X158766557Y-41777519D01*
X158832740Y-41771000D01*
X158921260Y-41771000D01*
X158987443Y-41777519D01*
X158987443Y-41777519D01*
G37*
G36*
X161527443Y-41777519D02*
X161593627Y-41784037D01*
X161706853Y-41818384D01*
X161763467Y-41835557D01*
X161902087Y-41909652D01*
X161919991Y-41919222D01*
X161955729Y-41948552D01*
X162057186Y-42031814D01*
X162140448Y-42133271D01*
X162169778Y-42169009D01*
X162169779Y-42169011D01*
X162253443Y-42325533D01*
X162253443Y-42325534D01*
X162304963Y-42495373D01*
X162322359Y-42672000D01*
X162304963Y-42848627D01*
X162270616Y-42961853D01*
X162253443Y-43018467D01*
X162179348Y-43157087D01*
X162169778Y-43174991D01*
X162140448Y-43210729D01*
X162057186Y-43312186D01*
X161955729Y-43395448D01*
X161919991Y-43424778D01*
X161919989Y-43424779D01*
X161763467Y-43508443D01*
X161706853Y-43525616D01*
X161593627Y-43559963D01*
X161527443Y-43566481D01*
X161461260Y-43573000D01*
X161372740Y-43573000D01*
X161306557Y-43566481D01*
X161240373Y-43559963D01*
X161127147Y-43525616D01*
X161070533Y-43508443D01*
X160914011Y-43424779D01*
X160914009Y-43424778D01*
X160878271Y-43395448D01*
X160776814Y-43312186D01*
X160693552Y-43210729D01*
X160664222Y-43174991D01*
X160654652Y-43157087D01*
X160580557Y-43018467D01*
X160563384Y-42961853D01*
X160529037Y-42848627D01*
X160511641Y-42672000D01*
X160529037Y-42495373D01*
X160580557Y-42325534D01*
X160580557Y-42325533D01*
X160664221Y-42169011D01*
X160664222Y-42169009D01*
X160693552Y-42133271D01*
X160776814Y-42031814D01*
X160878271Y-41948552D01*
X160914009Y-41919222D01*
X160931913Y-41909652D01*
X161070533Y-41835557D01*
X161127147Y-41818384D01*
X161240373Y-41784037D01*
X161306557Y-41777519D01*
X161372740Y-41771000D01*
X161461260Y-41771000D01*
X161527443Y-41777519D01*
X161527443Y-41777519D01*
G37*
G36*
X164067443Y-41777519D02*
X164133627Y-41784037D01*
X164246853Y-41818384D01*
X164303467Y-41835557D01*
X164442087Y-41909652D01*
X164459991Y-41919222D01*
X164495729Y-41948552D01*
X164597186Y-42031814D01*
X164680448Y-42133271D01*
X164709778Y-42169009D01*
X164709779Y-42169011D01*
X164793443Y-42325533D01*
X164793443Y-42325534D01*
X164844963Y-42495373D01*
X164862359Y-42672000D01*
X164844963Y-42848627D01*
X164810616Y-42961853D01*
X164793443Y-43018467D01*
X164719348Y-43157087D01*
X164709778Y-43174991D01*
X164680448Y-43210729D01*
X164597186Y-43312186D01*
X164495729Y-43395448D01*
X164459991Y-43424778D01*
X164459989Y-43424779D01*
X164303467Y-43508443D01*
X164246853Y-43525616D01*
X164133627Y-43559963D01*
X164067443Y-43566481D01*
X164001260Y-43573000D01*
X163912740Y-43573000D01*
X163846557Y-43566481D01*
X163780373Y-43559963D01*
X163667147Y-43525616D01*
X163610533Y-43508443D01*
X163454011Y-43424779D01*
X163454009Y-43424778D01*
X163418271Y-43395448D01*
X163316814Y-43312186D01*
X163233552Y-43210729D01*
X163204222Y-43174991D01*
X163194652Y-43157087D01*
X163120557Y-43018467D01*
X163103384Y-42961853D01*
X163069037Y-42848627D01*
X163051641Y-42672000D01*
X163069037Y-42495373D01*
X163120557Y-42325534D01*
X163120557Y-42325533D01*
X163204221Y-42169011D01*
X163204222Y-42169009D01*
X163233552Y-42133271D01*
X163316814Y-42031814D01*
X163418271Y-41948552D01*
X163454009Y-41919222D01*
X163471913Y-41909652D01*
X163610533Y-41835557D01*
X163667147Y-41818384D01*
X163780373Y-41784037D01*
X163846557Y-41777519D01*
X163912740Y-41771000D01*
X164001260Y-41771000D01*
X164067443Y-41777519D01*
X164067443Y-41777519D01*
G37*
G36*
X166607443Y-41777519D02*
X166673627Y-41784037D01*
X166786853Y-41818384D01*
X166843467Y-41835557D01*
X166982087Y-41909652D01*
X166999991Y-41919222D01*
X167035729Y-41948552D01*
X167137186Y-42031814D01*
X167220448Y-42133271D01*
X167249778Y-42169009D01*
X167249779Y-42169011D01*
X167333443Y-42325533D01*
X167333443Y-42325534D01*
X167384963Y-42495373D01*
X167402359Y-42672000D01*
X167384963Y-42848627D01*
X167350616Y-42961853D01*
X167333443Y-43018467D01*
X167259348Y-43157087D01*
X167249778Y-43174991D01*
X167220448Y-43210729D01*
X167137186Y-43312186D01*
X167035729Y-43395448D01*
X166999991Y-43424778D01*
X166999989Y-43424779D01*
X166843467Y-43508443D01*
X166786853Y-43525616D01*
X166673627Y-43559963D01*
X166607443Y-43566481D01*
X166541260Y-43573000D01*
X166452740Y-43573000D01*
X166386557Y-43566481D01*
X166320373Y-43559963D01*
X166207147Y-43525616D01*
X166150533Y-43508443D01*
X165994011Y-43424779D01*
X165994009Y-43424778D01*
X165958271Y-43395448D01*
X165856814Y-43312186D01*
X165773552Y-43210729D01*
X165744222Y-43174991D01*
X165734652Y-43157087D01*
X165660557Y-43018467D01*
X165643384Y-42961853D01*
X165609037Y-42848627D01*
X165591641Y-42672000D01*
X165609037Y-42495373D01*
X165660557Y-42325534D01*
X165660557Y-42325533D01*
X165744221Y-42169011D01*
X165744222Y-42169009D01*
X165773552Y-42133271D01*
X165856814Y-42031814D01*
X165958271Y-41948552D01*
X165994009Y-41919222D01*
X166011913Y-41909652D01*
X166150533Y-41835557D01*
X166207147Y-41818384D01*
X166320373Y-41784037D01*
X166386557Y-41777519D01*
X166452740Y-41771000D01*
X166541260Y-41771000D01*
X166607443Y-41777519D01*
X166607443Y-41777519D01*
G37*
G36*
X169147443Y-41777519D02*
X169213627Y-41784037D01*
X169326853Y-41818384D01*
X169383467Y-41835557D01*
X169522087Y-41909652D01*
X169539991Y-41919222D01*
X169575729Y-41948552D01*
X169677186Y-42031814D01*
X169760448Y-42133271D01*
X169789778Y-42169009D01*
X169789779Y-42169011D01*
X169873443Y-42325533D01*
X169873443Y-42325534D01*
X169924963Y-42495373D01*
X169942359Y-42672000D01*
X169924963Y-42848627D01*
X169890616Y-42961853D01*
X169873443Y-43018467D01*
X169799348Y-43157087D01*
X169789778Y-43174991D01*
X169760448Y-43210729D01*
X169677186Y-43312186D01*
X169575729Y-43395448D01*
X169539991Y-43424778D01*
X169539989Y-43424779D01*
X169383467Y-43508443D01*
X169326853Y-43525616D01*
X169213627Y-43559963D01*
X169147443Y-43566481D01*
X169081260Y-43573000D01*
X168992740Y-43573000D01*
X168926557Y-43566481D01*
X168860373Y-43559963D01*
X168747147Y-43525616D01*
X168690533Y-43508443D01*
X168534011Y-43424779D01*
X168534009Y-43424778D01*
X168498271Y-43395448D01*
X168396814Y-43312186D01*
X168313552Y-43210729D01*
X168284222Y-43174991D01*
X168274652Y-43157087D01*
X168200557Y-43018467D01*
X168183384Y-42961853D01*
X168149037Y-42848627D01*
X168131641Y-42672000D01*
X168149037Y-42495373D01*
X168200557Y-42325534D01*
X168200557Y-42325533D01*
X168284221Y-42169011D01*
X168284222Y-42169009D01*
X168313552Y-42133271D01*
X168396814Y-42031814D01*
X168498271Y-41948552D01*
X168534009Y-41919222D01*
X168551913Y-41909652D01*
X168690533Y-41835557D01*
X168747147Y-41818384D01*
X168860373Y-41784037D01*
X168926557Y-41777519D01*
X168992740Y-41771000D01*
X169081260Y-41771000D01*
X169147443Y-41777519D01*
X169147443Y-41777519D01*
G37*
G36*
X171687443Y-41777519D02*
X171753627Y-41784037D01*
X171866853Y-41818384D01*
X171923467Y-41835557D01*
X172062087Y-41909652D01*
X172079991Y-41919222D01*
X172115729Y-41948552D01*
X172217186Y-42031814D01*
X172300448Y-42133271D01*
X172329778Y-42169009D01*
X172329779Y-42169011D01*
X172413443Y-42325533D01*
X172413443Y-42325534D01*
X172464963Y-42495373D01*
X172482359Y-42672000D01*
X172464963Y-42848627D01*
X172430616Y-42961853D01*
X172413443Y-43018467D01*
X172339348Y-43157087D01*
X172329778Y-43174991D01*
X172300448Y-43210729D01*
X172217186Y-43312186D01*
X172115729Y-43395448D01*
X172079991Y-43424778D01*
X172079989Y-43424779D01*
X171923467Y-43508443D01*
X171866853Y-43525616D01*
X171753627Y-43559963D01*
X171687443Y-43566481D01*
X171621260Y-43573000D01*
X171532740Y-43573000D01*
X171466557Y-43566481D01*
X171400373Y-43559963D01*
X171287147Y-43525616D01*
X171230533Y-43508443D01*
X171074011Y-43424779D01*
X171074009Y-43424778D01*
X171038271Y-43395448D01*
X170936814Y-43312186D01*
X170853552Y-43210729D01*
X170824222Y-43174991D01*
X170814652Y-43157087D01*
X170740557Y-43018467D01*
X170723384Y-42961853D01*
X170689037Y-42848627D01*
X170671641Y-42672000D01*
X170689037Y-42495373D01*
X170740557Y-42325534D01*
X170740557Y-42325533D01*
X170824221Y-42169011D01*
X170824222Y-42169009D01*
X170853552Y-42133271D01*
X170936814Y-42031814D01*
X171038271Y-41948552D01*
X171074009Y-41919222D01*
X171091913Y-41909652D01*
X171230533Y-41835557D01*
X171287147Y-41818384D01*
X171400373Y-41784037D01*
X171466557Y-41777519D01*
X171532740Y-41771000D01*
X171621260Y-41771000D01*
X171687443Y-41777519D01*
X171687443Y-41777519D01*
G37*
G36*
X174227443Y-41777519D02*
X174293627Y-41784037D01*
X174406853Y-41818384D01*
X174463467Y-41835557D01*
X174602087Y-41909652D01*
X174619991Y-41919222D01*
X174655729Y-41948552D01*
X174757186Y-42031814D01*
X174840448Y-42133271D01*
X174869778Y-42169009D01*
X174869779Y-42169011D01*
X174953443Y-42325533D01*
X174953443Y-42325534D01*
X175004963Y-42495373D01*
X175022359Y-42672000D01*
X175004963Y-42848627D01*
X174970616Y-42961853D01*
X174953443Y-43018467D01*
X174879348Y-43157087D01*
X174869778Y-43174991D01*
X174840448Y-43210729D01*
X174757186Y-43312186D01*
X174655729Y-43395448D01*
X174619991Y-43424778D01*
X174619989Y-43424779D01*
X174463467Y-43508443D01*
X174406853Y-43525616D01*
X174293627Y-43559963D01*
X174227443Y-43566481D01*
X174161260Y-43573000D01*
X174072740Y-43573000D01*
X174006557Y-43566481D01*
X173940373Y-43559963D01*
X173827147Y-43525616D01*
X173770533Y-43508443D01*
X173614011Y-43424779D01*
X173614009Y-43424778D01*
X173578271Y-43395448D01*
X173476814Y-43312186D01*
X173393552Y-43210729D01*
X173364222Y-43174991D01*
X173354652Y-43157087D01*
X173280557Y-43018467D01*
X173263384Y-42961853D01*
X173229037Y-42848627D01*
X173211641Y-42672000D01*
X173229037Y-42495373D01*
X173280557Y-42325534D01*
X173280557Y-42325533D01*
X173364221Y-42169011D01*
X173364222Y-42169009D01*
X173393552Y-42133271D01*
X173476814Y-42031814D01*
X173578271Y-41948552D01*
X173614009Y-41919222D01*
X173631913Y-41909652D01*
X173770533Y-41835557D01*
X173827147Y-41818384D01*
X173940373Y-41784037D01*
X174006557Y-41777519D01*
X174072740Y-41771000D01*
X174161260Y-41771000D01*
X174227443Y-41777519D01*
X174227443Y-41777519D01*
G37*
G36*
X179307443Y-41777519D02*
X179373627Y-41784037D01*
X179486853Y-41818384D01*
X179543467Y-41835557D01*
X179682087Y-41909652D01*
X179699991Y-41919222D01*
X179735729Y-41948552D01*
X179837186Y-42031814D01*
X179920448Y-42133271D01*
X179949778Y-42169009D01*
X179949779Y-42169011D01*
X180033443Y-42325533D01*
X180033443Y-42325534D01*
X180084963Y-42495373D01*
X180102359Y-42672000D01*
X180084963Y-42848627D01*
X180050616Y-42961853D01*
X180033443Y-43018467D01*
X179959348Y-43157087D01*
X179949778Y-43174991D01*
X179920448Y-43210729D01*
X179837186Y-43312186D01*
X179735729Y-43395448D01*
X179699991Y-43424778D01*
X179699989Y-43424779D01*
X179543467Y-43508443D01*
X179486853Y-43525616D01*
X179373627Y-43559963D01*
X179307443Y-43566481D01*
X179241260Y-43573000D01*
X179152740Y-43573000D01*
X179086557Y-43566481D01*
X179020373Y-43559963D01*
X178907147Y-43525616D01*
X178850533Y-43508443D01*
X178694011Y-43424779D01*
X178694009Y-43424778D01*
X178658271Y-43395448D01*
X178556814Y-43312186D01*
X178473552Y-43210729D01*
X178444222Y-43174991D01*
X178434652Y-43157087D01*
X178360557Y-43018467D01*
X178343384Y-42961853D01*
X178309037Y-42848627D01*
X178291641Y-42672000D01*
X178309037Y-42495373D01*
X178360557Y-42325534D01*
X178360557Y-42325533D01*
X178444221Y-42169011D01*
X178444222Y-42169009D01*
X178473552Y-42133271D01*
X178556814Y-42031814D01*
X178658271Y-41948552D01*
X178694009Y-41919222D01*
X178711913Y-41909652D01*
X178850533Y-41835557D01*
X178907147Y-41818384D01*
X179020373Y-41784037D01*
X179086557Y-41777519D01*
X179152740Y-41771000D01*
X179241260Y-41771000D01*
X179307443Y-41777519D01*
X179307443Y-41777519D01*
G37*
G36*
X177678004Y-37360544D02*
X177765059Y-37377860D01*
X177901732Y-37434472D01*
X178023079Y-37515554D01*
X178024738Y-37516662D01*
X178129338Y-37621262D01*
X178129340Y-37621265D01*
X178211528Y-37744268D01*
X178268140Y-37880941D01*
X178285456Y-37967996D01*
X178297000Y-38026031D01*
X178297000Y-38173969D01*
X178285456Y-38232004D01*
X178268140Y-38319059D01*
X178211528Y-38455732D01*
X178211527Y-38455733D01*
X178129338Y-38578738D01*
X178024738Y-38683338D01*
X178024735Y-38683340D01*
X177901732Y-38765528D01*
X177765059Y-38822140D01*
X177678004Y-38839456D01*
X177619969Y-38851000D01*
X177472031Y-38851000D01*
X177413996Y-38839456D01*
X177326941Y-38822140D01*
X177190268Y-38765528D01*
X177067265Y-38683340D01*
X177067262Y-38683338D01*
X176962662Y-38578738D01*
X176880473Y-38455733D01*
X176880472Y-38455732D01*
X176823860Y-38319059D01*
X176806544Y-38232004D01*
X176795000Y-38173969D01*
X176795000Y-38026031D01*
X176806544Y-37967996D01*
X176823860Y-37880941D01*
X176880472Y-37744268D01*
X176962660Y-37621265D01*
X176962662Y-37621262D01*
X177067262Y-37516662D01*
X177068921Y-37515554D01*
X177190268Y-37434472D01*
X177326941Y-37377860D01*
X177413996Y-37360544D01*
X177472031Y-37349000D01*
X177619969Y-37349000D01*
X177678004Y-37360544D01*
X177678004Y-37360544D01*
G37*
G36*
X182440504Y-37360544D02*
X182527559Y-37377860D01*
X182664232Y-37434472D01*
X182785579Y-37515554D01*
X182787238Y-37516662D01*
X182891838Y-37621262D01*
X182891840Y-37621265D01*
X182974028Y-37744268D01*
X183030640Y-37880941D01*
X183047956Y-37967996D01*
X183059500Y-38026031D01*
X183059500Y-38173969D01*
X183047956Y-38232004D01*
X183030640Y-38319059D01*
X182974028Y-38455732D01*
X182974027Y-38455733D01*
X182891838Y-38578738D01*
X182787238Y-38683338D01*
X182787235Y-38683340D01*
X182664232Y-38765528D01*
X182527559Y-38822140D01*
X182440504Y-38839456D01*
X182382469Y-38851000D01*
X182234531Y-38851000D01*
X182176496Y-38839456D01*
X182089441Y-38822140D01*
X181952768Y-38765528D01*
X181829765Y-38683340D01*
X181829762Y-38683338D01*
X181725162Y-38578738D01*
X181642973Y-38455733D01*
X181642972Y-38455732D01*
X181586360Y-38319059D01*
X181569044Y-38232004D01*
X181557500Y-38173969D01*
X181557500Y-38026031D01*
X181569044Y-37967996D01*
X181586360Y-37880941D01*
X181642972Y-37744268D01*
X181725160Y-37621265D01*
X181725162Y-37621262D01*
X181829762Y-37516662D01*
X181831421Y-37515554D01*
X181952768Y-37434472D01*
X182089441Y-37377860D01*
X182176496Y-37360544D01*
X182234531Y-37349000D01*
X182382469Y-37349000D01*
X182440504Y-37360544D01*
X182440504Y-37360544D01*
G37*
G36*
X180091004Y-37360544D02*
X180178059Y-37377860D01*
X180314732Y-37434472D01*
X180436079Y-37515554D01*
X180437738Y-37516662D01*
X180542338Y-37621262D01*
X180542340Y-37621265D01*
X180624528Y-37744268D01*
X180681140Y-37880941D01*
X180698456Y-37967996D01*
X180710000Y-38026031D01*
X180710000Y-38173969D01*
X180698456Y-38232004D01*
X180681140Y-38319059D01*
X180624528Y-38455732D01*
X180624527Y-38455733D01*
X180542338Y-38578738D01*
X180437738Y-38683338D01*
X180437735Y-38683340D01*
X180314732Y-38765528D01*
X180178059Y-38822140D01*
X180091004Y-38839456D01*
X180032969Y-38851000D01*
X179885031Y-38851000D01*
X179826996Y-38839456D01*
X179739941Y-38822140D01*
X179603268Y-38765528D01*
X179480265Y-38683340D01*
X179480262Y-38683338D01*
X179375662Y-38578738D01*
X179293473Y-38455733D01*
X179293472Y-38455732D01*
X179236860Y-38319059D01*
X179219544Y-38232004D01*
X179208000Y-38173969D01*
X179208000Y-38026031D01*
X179219544Y-37967996D01*
X179236860Y-37880941D01*
X179293472Y-37744268D01*
X179375660Y-37621265D01*
X179375662Y-37621262D01*
X179480262Y-37516662D01*
X179481921Y-37515554D01*
X179603268Y-37434472D01*
X179739941Y-37377860D01*
X179826996Y-37360544D01*
X179885031Y-37349000D01*
X180032969Y-37349000D01*
X180091004Y-37360544D01*
X180091004Y-37360544D01*
G37*
G36*
X154624100Y-37232867D02*
X154714559Y-37250860D01*
X154851232Y-37307472D01*
X154908215Y-37345547D01*
X154974238Y-37389662D01*
X155078838Y-37494262D01*
X155078840Y-37494265D01*
X155161028Y-37617268D01*
X155217640Y-37753941D01*
X155231929Y-37825778D01*
X155242902Y-37880941D01*
X155246500Y-37899033D01*
X155246500Y-38046967D01*
X155217640Y-38192059D01*
X155161028Y-38328732D01*
X155079946Y-38450079D01*
X155078838Y-38451738D01*
X154974238Y-38556338D01*
X154974235Y-38556340D01*
X154851232Y-38638528D01*
X154714559Y-38695140D01*
X154627504Y-38712456D01*
X154569469Y-38724000D01*
X154421531Y-38724000D01*
X154363496Y-38712456D01*
X154276441Y-38695140D01*
X154139768Y-38638528D01*
X154016765Y-38556340D01*
X154016762Y-38556338D01*
X153912162Y-38451738D01*
X153911054Y-38450079D01*
X153829972Y-38328732D01*
X153773360Y-38192059D01*
X153744500Y-38046967D01*
X153744500Y-37899033D01*
X153748099Y-37880941D01*
X153759071Y-37825778D01*
X153773360Y-37753941D01*
X153829972Y-37617268D01*
X153912160Y-37494265D01*
X153912162Y-37494262D01*
X154016762Y-37389662D01*
X154082785Y-37345547D01*
X154139768Y-37307472D01*
X154276441Y-37250860D01*
X154366900Y-37232867D01*
X154421531Y-37222000D01*
X154569469Y-37222000D01*
X154624100Y-37232867D01*
X154624100Y-37232867D01*
G37*
G36*
X146949165Y-37225622D02*
X147022722Y-37232867D01*
X147164286Y-37275810D01*
X147294752Y-37345546D01*
X147409106Y-37439394D01*
X147502954Y-37553748D01*
X147572690Y-37684214D01*
X147615633Y-37825778D01*
X147630133Y-37973000D01*
X147615633Y-38120222D01*
X147572690Y-38261786D01*
X147502954Y-38392252D01*
X147409106Y-38506606D01*
X147294752Y-38600454D01*
X147164286Y-38670190D01*
X147022722Y-38713133D01*
X146949165Y-38720378D01*
X146912388Y-38724000D01*
X146838612Y-38724000D01*
X146801835Y-38720378D01*
X146728278Y-38713133D01*
X146586714Y-38670190D01*
X146456248Y-38600454D01*
X146341894Y-38506606D01*
X146248046Y-38392252D01*
X146178310Y-38261786D01*
X146135367Y-38120222D01*
X146120867Y-37973000D01*
X146135367Y-37825778D01*
X146178310Y-37684214D01*
X146248046Y-37553748D01*
X146341894Y-37439394D01*
X146456248Y-37345546D01*
X146586714Y-37275810D01*
X146728278Y-37232867D01*
X146801835Y-37225622D01*
X146838612Y-37222000D01*
X146912388Y-37222000D01*
X146949165Y-37225622D01*
X146949165Y-37225622D01*
G37*
G36*
X154569165Y-35003122D02*
X154642722Y-35010367D01*
X154784286Y-35053310D01*
X154914752Y-35123046D01*
X155029106Y-35216894D01*
X155122954Y-35331248D01*
X155192690Y-35461714D01*
X155235633Y-35603278D01*
X155250133Y-35750500D01*
X155235633Y-35897722D01*
X155192690Y-36039286D01*
X155122954Y-36169752D01*
X155029106Y-36284106D01*
X154914752Y-36377954D01*
X154784286Y-36447690D01*
X154642722Y-36490633D01*
X154569165Y-36497878D01*
X154532388Y-36501500D01*
X154458612Y-36501500D01*
X154421835Y-36497878D01*
X154348278Y-36490633D01*
X154206714Y-36447690D01*
X154076248Y-36377954D01*
X153961894Y-36284106D01*
X153868046Y-36169752D01*
X153798310Y-36039286D01*
X153755367Y-35897722D01*
X153740867Y-35750500D01*
X153755367Y-35603278D01*
X153798310Y-35461714D01*
X153868046Y-35331248D01*
X153961894Y-35216894D01*
X154076248Y-35123046D01*
X154206714Y-35053310D01*
X154348278Y-35010367D01*
X154421835Y-35003122D01*
X154458612Y-34999500D01*
X154532388Y-34999500D01*
X154569165Y-35003122D01*
X154569165Y-35003122D01*
G37*
G36*
X147004100Y-35010367D02*
X147094559Y-35028360D01*
X147231232Y-35084972D01*
X147288215Y-35123047D01*
X147354238Y-35167162D01*
X147458838Y-35271762D01*
X147458840Y-35271765D01*
X147541028Y-35394768D01*
X147597640Y-35531441D01*
X147626500Y-35676533D01*
X147626500Y-35824467D01*
X147597640Y-35969559D01*
X147541028Y-36106232D01*
X147459946Y-36227579D01*
X147458838Y-36229238D01*
X147354238Y-36333838D01*
X147354235Y-36333840D01*
X147231232Y-36416028D01*
X147094559Y-36472640D01*
X147007504Y-36489956D01*
X146949469Y-36501500D01*
X146801531Y-36501500D01*
X146743496Y-36489956D01*
X146656441Y-36472640D01*
X146519768Y-36416028D01*
X146396765Y-36333840D01*
X146396762Y-36333838D01*
X146292162Y-36229238D01*
X146291054Y-36227579D01*
X146209972Y-36106232D01*
X146153360Y-35969559D01*
X146124500Y-35824467D01*
X146124500Y-35676533D01*
X146153360Y-35531441D01*
X146209972Y-35394768D01*
X146292160Y-35271765D01*
X146292162Y-35271762D01*
X146396762Y-35167162D01*
X146462785Y-35123047D01*
X146519768Y-35084972D01*
X146656441Y-35028360D01*
X146746900Y-35010367D01*
X146801531Y-34999500D01*
X146949469Y-34999500D01*
X147004100Y-35010367D01*
X147004100Y-35010367D01*
G37*
G36*
X167935228Y-34424203D02*
X168090100Y-34488353D01*
X168229481Y-34581485D01*
X168348015Y-34700019D01*
X168441147Y-34839400D01*
X168505297Y-34994272D01*
X168538000Y-35158684D01*
X168538000Y-35326316D01*
X168505297Y-35490728D01*
X168441147Y-35645600D01*
X168348015Y-35784981D01*
X168229481Y-35903515D01*
X168090100Y-35996647D01*
X167935228Y-36060797D01*
X167770816Y-36093500D01*
X167603184Y-36093500D01*
X167438772Y-36060797D01*
X167283900Y-35996647D01*
X167144519Y-35903515D01*
X167025985Y-35784981D01*
X166932853Y-35645600D01*
X166868703Y-35490728D01*
X166836000Y-35326316D01*
X166836000Y-35158684D01*
X166868703Y-34994272D01*
X166932853Y-34839400D01*
X167025985Y-34700019D01*
X167144519Y-34581485D01*
X167283900Y-34488353D01*
X167438772Y-34424203D01*
X167603184Y-34391500D01*
X167770816Y-34391500D01*
X167935228Y-34424203D01*
X167935228Y-34424203D01*
G37*
G36*
X162935228Y-34424203D02*
X163090100Y-34488353D01*
X163229481Y-34581485D01*
X163348015Y-34700019D01*
X163441147Y-34839400D01*
X163505297Y-34994272D01*
X163538000Y-35158684D01*
X163538000Y-35326316D01*
X163505297Y-35490728D01*
X163441147Y-35645600D01*
X163348015Y-35784981D01*
X163229481Y-35903515D01*
X163090100Y-35996647D01*
X162935228Y-36060797D01*
X162770816Y-36093500D01*
X162603184Y-36093500D01*
X162438772Y-36060797D01*
X162283900Y-35996647D01*
X162144519Y-35903515D01*
X162025985Y-35784981D01*
X161932853Y-35645600D01*
X161868703Y-35490728D01*
X161836000Y-35326316D01*
X161836000Y-35158684D01*
X161868703Y-34994272D01*
X161932853Y-34839400D01*
X162025985Y-34700019D01*
X162144519Y-34581485D01*
X162283900Y-34488353D01*
X162438772Y-34424203D01*
X162603184Y-34391500D01*
X162770816Y-34391500D01*
X162935228Y-34424203D01*
X162935228Y-34424203D01*
G37*
G36*
X147139665Y-31637622D02*
X147213222Y-31644867D01*
X147354786Y-31687810D01*
X147485252Y-31757546D01*
X147599606Y-31851394D01*
X147693454Y-31965748D01*
X147763190Y-32096214D01*
X147806133Y-32237778D01*
X147820633Y-32385000D01*
X147806133Y-32532222D01*
X147763190Y-32673786D01*
X147693454Y-32804252D01*
X147599606Y-32918606D01*
X147485252Y-33012454D01*
X147354786Y-33082190D01*
X147213222Y-33125133D01*
X147139665Y-33132378D01*
X147102888Y-33136000D01*
X147029112Y-33136000D01*
X146992335Y-33132378D01*
X146918778Y-33125133D01*
X146777214Y-33082190D01*
X146646748Y-33012454D01*
X146532394Y-32918606D01*
X146438546Y-32804252D01*
X146368810Y-32673786D01*
X146325867Y-32532222D01*
X146311367Y-32385000D01*
X146325867Y-32237778D01*
X146368810Y-32096214D01*
X146438546Y-31965748D01*
X146532394Y-31851394D01*
X146646748Y-31757546D01*
X146777214Y-31687810D01*
X146918778Y-31644867D01*
X146992335Y-31637622D01*
X147029112Y-31634000D01*
X147102888Y-31634000D01*
X147139665Y-31637622D01*
X147139665Y-31637622D01*
G37*
G36*
X154814600Y-31644867D02*
X154905059Y-31662860D01*
X155041732Y-31719472D01*
X155098715Y-31757547D01*
X155164738Y-31801662D01*
X155269338Y-31906262D01*
X155269340Y-31906265D01*
X155351528Y-32029268D01*
X155408140Y-32165941D01*
X155437000Y-32311033D01*
X155437000Y-32458967D01*
X155408140Y-32604059D01*
X155351528Y-32740732D01*
X155270446Y-32862079D01*
X155269338Y-32863738D01*
X155164738Y-32968338D01*
X155164735Y-32968340D01*
X155041732Y-33050528D01*
X154905059Y-33107140D01*
X154818004Y-33124456D01*
X154759969Y-33136000D01*
X154612031Y-33136000D01*
X154553996Y-33124456D01*
X154466941Y-33107140D01*
X154330268Y-33050528D01*
X154207265Y-32968340D01*
X154207262Y-32968338D01*
X154102662Y-32863738D01*
X154101554Y-32862079D01*
X154020472Y-32740732D01*
X153963860Y-32604059D01*
X153935000Y-32458967D01*
X153935000Y-32311033D01*
X153963860Y-32165941D01*
X154020472Y-32029268D01*
X154102660Y-31906265D01*
X154102662Y-31906262D01*
X154207262Y-31801662D01*
X154273285Y-31757547D01*
X154330268Y-31719472D01*
X154466941Y-31662860D01*
X154557400Y-31644867D01*
X154612031Y-31634000D01*
X154759969Y-31634000D01*
X154814600Y-31644867D01*
X154814600Y-31644867D01*
G37*
G36*
X177619665Y-29732622D02*
X177693222Y-29739867D01*
X177834786Y-29782810D01*
X177965252Y-29852546D01*
X178079606Y-29946394D01*
X178173454Y-30060748D01*
X178243190Y-30191214D01*
X178286133Y-30332778D01*
X178300633Y-30480000D01*
X178286133Y-30627222D01*
X178243190Y-30768786D01*
X178173454Y-30899252D01*
X178079606Y-31013606D01*
X177965252Y-31107454D01*
X177834786Y-31177190D01*
X177693222Y-31220133D01*
X177619665Y-31227378D01*
X177582888Y-31231000D01*
X177509112Y-31231000D01*
X177472335Y-31227378D01*
X177398778Y-31220133D01*
X177257214Y-31177190D01*
X177126748Y-31107454D01*
X177012394Y-31013606D01*
X176918546Y-30899252D01*
X176848810Y-30768786D01*
X176805867Y-30627222D01*
X176791367Y-30480000D01*
X176805867Y-30332778D01*
X176848810Y-30191214D01*
X176918546Y-30060748D01*
X177012394Y-29946394D01*
X177126748Y-29852546D01*
X177257214Y-29782810D01*
X177398778Y-29739867D01*
X177472335Y-29732622D01*
X177509112Y-29729000D01*
X177582888Y-29729000D01*
X177619665Y-29732622D01*
X177619665Y-29732622D01*
G37*
G36*
X180032665Y-29732622D02*
X180106222Y-29739867D01*
X180247786Y-29782810D01*
X180378252Y-29852546D01*
X180492606Y-29946394D01*
X180586454Y-30060748D01*
X180656190Y-30191214D01*
X180699133Y-30332778D01*
X180713633Y-30480000D01*
X180699133Y-30627222D01*
X180656190Y-30768786D01*
X180586454Y-30899252D01*
X180492606Y-31013606D01*
X180378252Y-31107454D01*
X180247786Y-31177190D01*
X180106222Y-31220133D01*
X180032665Y-31227378D01*
X179995888Y-31231000D01*
X179922112Y-31231000D01*
X179885335Y-31227378D01*
X179811778Y-31220133D01*
X179670214Y-31177190D01*
X179539748Y-31107454D01*
X179425394Y-31013606D01*
X179331546Y-30899252D01*
X179261810Y-30768786D01*
X179218867Y-30627222D01*
X179204367Y-30480000D01*
X179218867Y-30332778D01*
X179261810Y-30191214D01*
X179331546Y-30060748D01*
X179425394Y-29946394D01*
X179539748Y-29852546D01*
X179670214Y-29782810D01*
X179811778Y-29739867D01*
X179885335Y-29732622D01*
X179922112Y-29729000D01*
X179995888Y-29729000D01*
X180032665Y-29732622D01*
X180032665Y-29732622D01*
G37*
G36*
X182382165Y-29732622D02*
X182455722Y-29739867D01*
X182597286Y-29782810D01*
X182727752Y-29852546D01*
X182842106Y-29946394D01*
X182935954Y-30060748D01*
X183005690Y-30191214D01*
X183048633Y-30332778D01*
X183063133Y-30480000D01*
X183048633Y-30627222D01*
X183005690Y-30768786D01*
X182935954Y-30899252D01*
X182842106Y-31013606D01*
X182727752Y-31107454D01*
X182597286Y-31177190D01*
X182455722Y-31220133D01*
X182382165Y-31227378D01*
X182345388Y-31231000D01*
X182271612Y-31231000D01*
X182234835Y-31227378D01*
X182161278Y-31220133D01*
X182019714Y-31177190D01*
X181889248Y-31107454D01*
X181774894Y-31013606D01*
X181681046Y-30899252D01*
X181611310Y-30768786D01*
X181568367Y-30627222D01*
X181553867Y-30480000D01*
X181568367Y-30332778D01*
X181611310Y-30191214D01*
X181681046Y-30060748D01*
X181774894Y-29946394D01*
X181889248Y-29852546D01*
X182019714Y-29782810D01*
X182161278Y-29739867D01*
X182234835Y-29732622D01*
X182271612Y-29729000D01*
X182345388Y-29729000D01*
X182382165Y-29732622D01*
X182382165Y-29732622D01*
G37*
G36*
X150414942Y-27236018D02*
X150481127Y-27242537D01*
X150594353Y-27276884D01*
X150650967Y-27294057D01*
X150789587Y-27368152D01*
X150807491Y-27377722D01*
X150843229Y-27407052D01*
X150944686Y-27490314D01*
X151027948Y-27591771D01*
X151057278Y-27627509D01*
X151057279Y-27627511D01*
X151140943Y-27784033D01*
X151140943Y-27784034D01*
X151192463Y-27953873D01*
X151209859Y-28130500D01*
X151192463Y-28307127D01*
X151158116Y-28420353D01*
X151140943Y-28476967D01*
X151066848Y-28615587D01*
X151057278Y-28633491D01*
X151027948Y-28669229D01*
X150944686Y-28770686D01*
X150843229Y-28853948D01*
X150807491Y-28883278D01*
X150807489Y-28883279D01*
X150650967Y-28966943D01*
X150594353Y-28984116D01*
X150481127Y-29018463D01*
X150414942Y-29024982D01*
X150348760Y-29031500D01*
X150260240Y-29031500D01*
X150194058Y-29024982D01*
X150127873Y-29018463D01*
X150014647Y-28984116D01*
X149958033Y-28966943D01*
X149801511Y-28883279D01*
X149801509Y-28883278D01*
X149765771Y-28853948D01*
X149664314Y-28770686D01*
X149581052Y-28669229D01*
X149551722Y-28633491D01*
X149542152Y-28615587D01*
X149468057Y-28476967D01*
X149450884Y-28420353D01*
X149416537Y-28307127D01*
X149399141Y-28130500D01*
X149416537Y-27953873D01*
X149468057Y-27784034D01*
X149468057Y-27784033D01*
X149551721Y-27627511D01*
X149551722Y-27627509D01*
X149581052Y-27591771D01*
X149664314Y-27490314D01*
X149765771Y-27407052D01*
X149801509Y-27377722D01*
X149819413Y-27368152D01*
X149958033Y-27294057D01*
X150014647Y-27276884D01*
X150127873Y-27242537D01*
X150194058Y-27236018D01*
X150260240Y-27229500D01*
X150348760Y-27229500D01*
X150414942Y-27236018D01*
X150414942Y-27236018D01*
G37*
G36*
X148665500Y-29031500D02*
X146863500Y-29031500D01*
X146863500Y-27229500D01*
X148665500Y-27229500D01*
X148665500Y-29031500D01*
X148665500Y-29031500D01*
G37*
G36*
X181466442Y-25267518D02*
X181532627Y-25274037D01*
X181645853Y-25308384D01*
X181702467Y-25325557D01*
X181841087Y-25399652D01*
X181858991Y-25409222D01*
X181894729Y-25438552D01*
X181996186Y-25521814D01*
X182079448Y-25623271D01*
X182108778Y-25659009D01*
X182108779Y-25659011D01*
X182192443Y-25815533D01*
X182192443Y-25815534D01*
X182243963Y-25985373D01*
X182261359Y-26162000D01*
X182243963Y-26338627D01*
X182209616Y-26451853D01*
X182192443Y-26508467D01*
X182118348Y-26647087D01*
X182108778Y-26664991D01*
X182079448Y-26700729D01*
X181996186Y-26802186D01*
X181894729Y-26885448D01*
X181858991Y-26914778D01*
X181858989Y-26914779D01*
X181702467Y-26998443D01*
X181645853Y-27015616D01*
X181532627Y-27049963D01*
X181466443Y-27056481D01*
X181400260Y-27063000D01*
X181311740Y-27063000D01*
X181245557Y-27056481D01*
X181179373Y-27049963D01*
X181066147Y-27015616D01*
X181009533Y-26998443D01*
X180853011Y-26914779D01*
X180853009Y-26914778D01*
X180817271Y-26885448D01*
X180715814Y-26802186D01*
X180632552Y-26700729D01*
X180603222Y-26664991D01*
X180593652Y-26647087D01*
X180519557Y-26508467D01*
X180502384Y-26451853D01*
X180468037Y-26338627D01*
X180450641Y-26162000D01*
X180468037Y-25985373D01*
X180519557Y-25815534D01*
X180519557Y-25815533D01*
X180603221Y-25659011D01*
X180603222Y-25659009D01*
X180632552Y-25623271D01*
X180715814Y-25521814D01*
X180817271Y-25438552D01*
X180853009Y-25409222D01*
X180870913Y-25399652D01*
X181009533Y-25325557D01*
X181066147Y-25308384D01*
X181179373Y-25274037D01*
X181245558Y-25267518D01*
X181311740Y-25261000D01*
X181400260Y-25261000D01*
X181466442Y-25267518D01*
X181466442Y-25267518D01*
G37*
G36*
X179717000Y-27063000D02*
X177915000Y-27063000D01*
X177915000Y-25261000D01*
X179717000Y-25261000D01*
X179717000Y-27063000D01*
X179717000Y-27063000D01*
G37*
G36*
X154230565Y-22738389D02*
X154421834Y-22817615D01*
X154593976Y-22932637D01*
X154740363Y-23079024D01*
X154855385Y-23251166D01*
X154934611Y-23442435D01*
X154975000Y-23645484D01*
X154975000Y-23852516D01*
X154934611Y-24055565D01*
X154855385Y-24246834D01*
X154740363Y-24418976D01*
X154593976Y-24565363D01*
X154421834Y-24680385D01*
X154230565Y-24759611D01*
X154027516Y-24800000D01*
X153820484Y-24800000D01*
X153617435Y-24759611D01*
X153426166Y-24680385D01*
X153254024Y-24565363D01*
X153107637Y-24418976D01*
X152992615Y-24246834D01*
X152913389Y-24055565D01*
X152873000Y-23852516D01*
X152873000Y-23645484D01*
X152913389Y-23442435D01*
X152992615Y-23251166D01*
X153107637Y-23079024D01*
X153254024Y-22932637D01*
X153426166Y-22817615D01*
X153617435Y-22738389D01*
X153820484Y-22698000D01*
X154027516Y-22698000D01*
X154230565Y-22738389D01*
X154230565Y-22738389D01*
G37*
G36*
X147730565Y-22738389D02*
X147921834Y-22817615D01*
X148093976Y-22932637D01*
X148240363Y-23079024D01*
X148355385Y-23251166D01*
X148434611Y-23442435D01*
X148475000Y-23645484D01*
X148475000Y-23852516D01*
X148434611Y-24055565D01*
X148355385Y-24246834D01*
X148240363Y-24418976D01*
X148093976Y-24565363D01*
X147921834Y-24680385D01*
X147730565Y-24759611D01*
X147527516Y-24800000D01*
X147320484Y-24800000D01*
X147117435Y-24759611D01*
X146926166Y-24680385D01*
X146754024Y-24565363D01*
X146607637Y-24418976D01*
X146492615Y-24246834D01*
X146413389Y-24055565D01*
X146373000Y-23852516D01*
X146373000Y-23645484D01*
X146413389Y-23442435D01*
X146492615Y-23251166D01*
X146607637Y-23079024D01*
X146754024Y-22932637D01*
X146926166Y-22817615D01*
X147117435Y-22738389D01*
X147320484Y-22698000D01*
X147527516Y-22698000D01*
X147730565Y-22738389D01*
X147730565Y-22738389D01*
G37*
G36*
X183400000Y-21856000D02*
X181598000Y-21856000D01*
X181598000Y-20054000D01*
X183400000Y-20054000D01*
X183400000Y-21856000D01*
X183400000Y-21856000D01*
G37*
G36*
X180069442Y-20060518D02*
X180135627Y-20067037D01*
X180248853Y-20101384D01*
X180305467Y-20118557D01*
X180421135Y-20180384D01*
X180461991Y-20202222D01*
X180497729Y-20231552D01*
X180599186Y-20314814D01*
X180682448Y-20416271D01*
X180711778Y-20452009D01*
X180711779Y-20452011D01*
X180795443Y-20608533D01*
X180795443Y-20608534D01*
X180846963Y-20778373D01*
X180864359Y-20955000D01*
X180846963Y-21131627D01*
X180812616Y-21244853D01*
X180795443Y-21301467D01*
X180721348Y-21440087D01*
X180711778Y-21457991D01*
X180682448Y-21493729D01*
X180599186Y-21595186D01*
X180497729Y-21678448D01*
X180461991Y-21707778D01*
X180461989Y-21707779D01*
X180305467Y-21791443D01*
X180248853Y-21808616D01*
X180135627Y-21842963D01*
X180069442Y-21849482D01*
X180003260Y-21856000D01*
X179914740Y-21856000D01*
X179848557Y-21849481D01*
X179782373Y-21842963D01*
X179669147Y-21808616D01*
X179612533Y-21791443D01*
X179456011Y-21707779D01*
X179456009Y-21707778D01*
X179420271Y-21678448D01*
X179318814Y-21595186D01*
X179235552Y-21493729D01*
X179206222Y-21457991D01*
X179196652Y-21440087D01*
X179122557Y-21301467D01*
X179105384Y-21244853D01*
X179071037Y-21131627D01*
X179053641Y-20955000D01*
X179071037Y-20778373D01*
X179122557Y-20608534D01*
X179122557Y-20608533D01*
X179206221Y-20452011D01*
X179206222Y-20452009D01*
X179235552Y-20416271D01*
X179318814Y-20314814D01*
X179420271Y-20231552D01*
X179456009Y-20202222D01*
X179496865Y-20180384D01*
X179612533Y-20118557D01*
X179669147Y-20101384D01*
X179782373Y-20067037D01*
X179848557Y-20060519D01*
X179914740Y-20054000D01*
X180003260Y-20054000D01*
X180069442Y-20060518D01*
X180069442Y-20060518D01*
G37*
G36*
X177529442Y-20060518D02*
X177595627Y-20067037D01*
X177708853Y-20101384D01*
X177765467Y-20118557D01*
X177881135Y-20180384D01*
X177921991Y-20202222D01*
X177957729Y-20231552D01*
X178059186Y-20314814D01*
X178142448Y-20416271D01*
X178171778Y-20452009D01*
X178171779Y-20452011D01*
X178255443Y-20608533D01*
X178255443Y-20608534D01*
X178306963Y-20778373D01*
X178324359Y-20955000D01*
X178306963Y-21131627D01*
X178272616Y-21244853D01*
X178255443Y-21301467D01*
X178181348Y-21440087D01*
X178171778Y-21457991D01*
X178142448Y-21493729D01*
X178059186Y-21595186D01*
X177957729Y-21678448D01*
X177921991Y-21707778D01*
X177921989Y-21707779D01*
X177765467Y-21791443D01*
X177708853Y-21808616D01*
X177595627Y-21842963D01*
X177529442Y-21849482D01*
X177463260Y-21856000D01*
X177374740Y-21856000D01*
X177308557Y-21849481D01*
X177242373Y-21842963D01*
X177129147Y-21808616D01*
X177072533Y-21791443D01*
X176916011Y-21707779D01*
X176916009Y-21707778D01*
X176880271Y-21678448D01*
X176778814Y-21595186D01*
X176695552Y-21493729D01*
X176666222Y-21457991D01*
X176656652Y-21440087D01*
X176582557Y-21301467D01*
X176565384Y-21244853D01*
X176531037Y-21131627D01*
X176513641Y-20955000D01*
X176531037Y-20778373D01*
X176582557Y-20608534D01*
X176582557Y-20608533D01*
X176666221Y-20452011D01*
X176666222Y-20452009D01*
X176695552Y-20416271D01*
X176778814Y-20314814D01*
X176880271Y-20231552D01*
X176916009Y-20202222D01*
X176956865Y-20180384D01*
X177072533Y-20118557D01*
X177129147Y-20101384D01*
X177242373Y-20067037D01*
X177308557Y-20060519D01*
X177374740Y-20054000D01*
X177463260Y-20054000D01*
X177529442Y-20060518D01*
X177529442Y-20060518D01*
G37*
G36*
X147730565Y-18238389D02*
X147921834Y-18317615D01*
X148093976Y-18432637D01*
X148240363Y-18579024D01*
X148355385Y-18751166D01*
X148434611Y-18942435D01*
X148475000Y-19145484D01*
X148475000Y-19352516D01*
X148434611Y-19555565D01*
X148355385Y-19746834D01*
X148240363Y-19918976D01*
X148093976Y-20065363D01*
X147921834Y-20180385D01*
X147730565Y-20259611D01*
X147527516Y-20300000D01*
X147320484Y-20300000D01*
X147117435Y-20259611D01*
X146926166Y-20180385D01*
X146754024Y-20065363D01*
X146607637Y-19918976D01*
X146492615Y-19746834D01*
X146413389Y-19555565D01*
X146373000Y-19352516D01*
X146373000Y-19145484D01*
X146413389Y-18942435D01*
X146492615Y-18751166D01*
X146607637Y-18579024D01*
X146754024Y-18432637D01*
X146926166Y-18317615D01*
X147117435Y-18238389D01*
X147320484Y-18198000D01*
X147527516Y-18198000D01*
X147730565Y-18238389D01*
X147730565Y-18238389D01*
G37*
G36*
X154230565Y-18238389D02*
X154421834Y-18317615D01*
X154593976Y-18432637D01*
X154740363Y-18579024D01*
X154855385Y-18751166D01*
X154934611Y-18942435D01*
X154975000Y-19145484D01*
X154975000Y-19352516D01*
X154934611Y-19555565D01*
X154855385Y-19746834D01*
X154740363Y-19918976D01*
X154593976Y-20065363D01*
X154421834Y-20180385D01*
X154230565Y-20259611D01*
X154027516Y-20300000D01*
X153820484Y-20300000D01*
X153617435Y-20259611D01*
X153426166Y-20180385D01*
X153254024Y-20065363D01*
X153107637Y-19918976D01*
X152992615Y-19746834D01*
X152913389Y-19555565D01*
X152873000Y-19352516D01*
X152873000Y-19145484D01*
X152913389Y-18942435D01*
X152992615Y-18751166D01*
X153107637Y-18579024D01*
X153254024Y-18432637D01*
X153426166Y-18317615D01*
X153617435Y-18238389D01*
X153820484Y-18198000D01*
X154027516Y-18198000D01*
X154230565Y-18238389D01*
X154230565Y-18238389D01*
G37*
G36*
X154560600Y-15642867D02*
X154651059Y-15660860D01*
X154787732Y-15717472D01*
X154844715Y-15755547D01*
X154910738Y-15799662D01*
X155015338Y-15904262D01*
X155015340Y-15904265D01*
X155097528Y-16027268D01*
X155154140Y-16163941D01*
X155183000Y-16309033D01*
X155183000Y-16456967D01*
X155154140Y-16602059D01*
X155097528Y-16738732D01*
X155016446Y-16860079D01*
X155015338Y-16861738D01*
X154910738Y-16966338D01*
X154910735Y-16966340D01*
X154787732Y-17048528D01*
X154651059Y-17105140D01*
X154564004Y-17122456D01*
X154505969Y-17134000D01*
X154358031Y-17134000D01*
X154299996Y-17122456D01*
X154212941Y-17105140D01*
X154076268Y-17048528D01*
X153953265Y-16966340D01*
X153953262Y-16966338D01*
X153848662Y-16861738D01*
X153847554Y-16860079D01*
X153766472Y-16738732D01*
X153709860Y-16602059D01*
X153681000Y-16456967D01*
X153681000Y-16309033D01*
X153709860Y-16163941D01*
X153766472Y-16027268D01*
X153848660Y-15904265D01*
X153848662Y-15904262D01*
X153953262Y-15799662D01*
X154019285Y-15755547D01*
X154076268Y-15717472D01*
X154212941Y-15660860D01*
X154303400Y-15642867D01*
X154358031Y-15632000D01*
X154505969Y-15632000D01*
X154560600Y-15642867D01*
X154560600Y-15642867D01*
G37*
G36*
X146885665Y-15635622D02*
X146959222Y-15642867D01*
X147100786Y-15685810D01*
X147231252Y-15755546D01*
X147345606Y-15849394D01*
X147439454Y-15963748D01*
X147509190Y-16094214D01*
X147552133Y-16235778D01*
X147566633Y-16383000D01*
X147552133Y-16530222D01*
X147509190Y-16671786D01*
X147439454Y-16802252D01*
X147345606Y-16916606D01*
X147231252Y-17010454D01*
X147100786Y-17080190D01*
X146959222Y-17123133D01*
X146885665Y-17130378D01*
X146848888Y-17134000D01*
X146775112Y-17134000D01*
X146738335Y-17130378D01*
X146664778Y-17123133D01*
X146523214Y-17080190D01*
X146392748Y-17010454D01*
X146278394Y-16916606D01*
X146184546Y-16802252D01*
X146114810Y-16671786D01*
X146071867Y-16530222D01*
X146057367Y-16383000D01*
X146071867Y-16235778D01*
X146114810Y-16094214D01*
X146184546Y-15963748D01*
X146278394Y-15849394D01*
X146392748Y-15755546D01*
X146523214Y-15685810D01*
X146664778Y-15642867D01*
X146738335Y-15635622D01*
X146775112Y-15632000D01*
X146848888Y-15632000D01*
X146885665Y-15635622D01*
X146885665Y-15635622D01*
G37*
M02*
