M48
;DRILL file {KiCad 5.0.2-bee76a0~70~ubuntu18.04.1} date dom 17 fev 2019 22:47:00 -03
;FORMAT={3:3/ absolute / metric / suppress leading zeros}
FMAT,2
METRIC,TZ
T1C0.400
T2C0.700
T3C0.800
T4C1.000
T5C1.100
%
G90
G05
T1
X159576Y-18860
X173292Y-32004
X174815Y-30861
T2
X146876Y-35750
X154496Y-35750
X179959Y-30480
X179959Y-38100
X177546Y-30480
X177546Y-38100
X146812Y-16383
X154432Y-16383
X182309Y-30480
X182309Y-38100
X146876Y-37973
X154496Y-37973
X147066Y-32385
X154686Y-32385
T3
X162687Y-35243
X167687Y-35243
T4
X177419Y-20955
X179959Y-20955
X182499Y-20955
X178816Y-26162
X181356Y-26162
X151257Y-42672
X153797Y-42672
X156337Y-42672
X158877Y-42672
X161417Y-42672
X163957Y-42672
X166497Y-42672
X169037Y-42672
X171577Y-42672
X174117Y-42672
X176657Y-42672
X179197Y-42672
X147765Y-28130
X150305Y-28130
T5
X147424Y-19249
X147424Y-23749
X153924Y-19249
X153924Y-23749
T0
M30
