%TF.GenerationSoftware,KiCad,Pcbnew,5.0.2-bee76a0~70~ubuntu18.04.1*%
%TF.CreationDate,2019-02-17T22:46:45-03:00*%
%TF.ProjectId,ESP12-breakout-r01,45535031-322d-4627-9265-616b6f75742d,rev?*%
%TF.SameCoordinates,Original*%
%TF.FileFunction,Copper,L2,Bot*%
%TF.FilePolarity,Positive*%
%FSLAX46Y46*%
G04 Gerber Fmt 4.6, Leading zero omitted, Abs format (unit mm)*
G04 Created by KiCad (PCBNEW 5.0.2-bee76a0~70~ubuntu18.04.1) date dom 17 fev 2019 22:46:45 -03*
%MOMM*%
%LPD*%
G01*
G04 APERTURE LIST*
%ADD10C,1.400000*%
%ADD11O,1.400000X1.400000*%
%ADD12C,2.000000*%
%ADD13C,1.600000*%
%ADD14O,1.700000X1.700000*%
%ADD15R,1.700000X1.700000*%
%ADD16C,0.800000*%
%ADD17C,0.254000*%
%ADD18C,1.000000*%
G04 APERTURE END LIST*
D10*
X182308500Y-38100000D03*
D11*
X182308500Y-30480000D03*
X179959000Y-30480000D03*
D10*
X179959000Y-38100000D03*
X177546000Y-38100000D03*
D11*
X177546000Y-30480000D03*
X146875500Y-37973000D03*
D10*
X154495500Y-37973000D03*
X146875500Y-35750500D03*
D11*
X154495500Y-35750500D03*
X147066000Y-32385000D03*
D10*
X154686000Y-32385000D03*
X154432000Y-16383000D03*
D11*
X146812000Y-16383000D03*
D12*
X153924000Y-19249000D03*
X153924000Y-23749000D03*
X147424000Y-19249000D03*
X147424000Y-23749000D03*
D13*
X162687000Y-35242500D03*
X167687000Y-35242500D03*
D14*
X181356000Y-26162000D03*
D15*
X178816000Y-26162000D03*
X147764500Y-28130500D03*
D14*
X150304500Y-28130500D03*
D15*
X182499000Y-20955000D03*
D14*
X179959000Y-20955000D03*
X177419000Y-20955000D03*
D15*
X151257000Y-42672000D03*
D14*
X153797000Y-42672000D03*
X156337000Y-42672000D03*
X158877000Y-42672000D03*
X161417000Y-42672000D03*
X163957000Y-42672000D03*
X166497000Y-42672000D03*
X169037000Y-42672000D03*
X171577000Y-42672000D03*
X174117000Y-42672000D03*
X176657000Y-42672000D03*
X179197000Y-42672000D03*
D16*
X159575500Y-18859500D03*
X174815500Y-30861000D03*
X173291500Y-32004000D03*
D17*
X152082500Y-16700500D02*
X151765000Y-16383000D01*
X151765000Y-16383000D02*
X146812000Y-16383000D01*
X152082500Y-28166538D02*
X152082500Y-16700500D01*
X154686000Y-32385000D02*
X154686000Y-30770038D01*
X154686000Y-30770038D02*
X152082500Y-28166538D01*
X162687000Y-35242500D02*
X167576500Y-40132000D01*
X180276500Y-40132000D02*
X181038500Y-39370000D01*
X167576500Y-40132000D02*
X180276500Y-40132000D01*
X182308500Y-38100000D02*
X181038500Y-38100000D01*
X181038500Y-39370000D02*
X181038500Y-38100000D01*
X181038500Y-38100000D02*
X179959000Y-38100000D01*
X159575500Y-18859500D02*
X159575500Y-20510500D01*
X158115000Y-21971000D02*
X159575500Y-20510500D01*
X158115000Y-32131000D02*
X158115000Y-21971000D01*
X154495500Y-35750500D02*
X158115000Y-32131000D01*
D18*
X170434000Y-35242500D02*
X174815500Y-30861000D01*
X167687000Y-35242500D02*
X170434000Y-35242500D01*
D17*
G36*
X184456000Y-43867000D02*
X180081485Y-43867000D01*
X180267625Y-43742625D01*
X180595839Y-43251418D01*
X180711092Y-42672000D01*
X180595839Y-42092582D01*
X180267625Y-41601375D01*
X179776418Y-41273161D01*
X179343256Y-41187000D01*
X179050744Y-41187000D01*
X178617582Y-41273161D01*
X178126375Y-41601375D01*
X177927000Y-41899761D01*
X177727625Y-41601375D01*
X177236418Y-41273161D01*
X176803256Y-41187000D01*
X176510744Y-41187000D01*
X176077582Y-41273161D01*
X175586375Y-41601375D01*
X175387000Y-41899761D01*
X175187625Y-41601375D01*
X174696418Y-41273161D01*
X174263256Y-41187000D01*
X173970744Y-41187000D01*
X173537582Y-41273161D01*
X173046375Y-41601375D01*
X172847000Y-41899761D01*
X172647625Y-41601375D01*
X172156418Y-41273161D01*
X171723256Y-41187000D01*
X171430744Y-41187000D01*
X170997582Y-41273161D01*
X170506375Y-41601375D01*
X170307000Y-41899761D01*
X170107625Y-41601375D01*
X169616418Y-41273161D01*
X169183256Y-41187000D01*
X168890744Y-41187000D01*
X168457582Y-41273161D01*
X167966375Y-41601375D01*
X167767000Y-41899761D01*
X167567625Y-41601375D01*
X167076418Y-41273161D01*
X166643256Y-41187000D01*
X166350744Y-41187000D01*
X165917582Y-41273161D01*
X165426375Y-41601375D01*
X165213157Y-41920478D01*
X165152183Y-41790642D01*
X164723924Y-41400355D01*
X164313890Y-41230524D01*
X164084000Y-41351845D01*
X164084000Y-42545000D01*
X164104000Y-42545000D01*
X164104000Y-42799000D01*
X164084000Y-42799000D01*
X164084000Y-42819000D01*
X163830000Y-42819000D01*
X163830000Y-42799000D01*
X163810000Y-42799000D01*
X163810000Y-42545000D01*
X163830000Y-42545000D01*
X163830000Y-41351845D01*
X163600110Y-41230524D01*
X163190076Y-41400355D01*
X162761817Y-41790642D01*
X162700843Y-41920478D01*
X162487625Y-41601375D01*
X161996418Y-41273161D01*
X161563256Y-41187000D01*
X161270744Y-41187000D01*
X160837582Y-41273161D01*
X160346375Y-41601375D01*
X160147000Y-41899761D01*
X159947625Y-41601375D01*
X159456418Y-41273161D01*
X159023256Y-41187000D01*
X158730744Y-41187000D01*
X158297582Y-41273161D01*
X157806375Y-41601375D01*
X157607000Y-41899761D01*
X157407625Y-41601375D01*
X156916418Y-41273161D01*
X156483256Y-41187000D01*
X156190744Y-41187000D01*
X155757582Y-41273161D01*
X155266375Y-41601375D01*
X155067000Y-41899761D01*
X154867625Y-41601375D01*
X154376418Y-41273161D01*
X153943256Y-41187000D01*
X153650744Y-41187000D01*
X153217582Y-41273161D01*
X152726375Y-41601375D01*
X152714184Y-41619619D01*
X152705157Y-41574235D01*
X152564809Y-41364191D01*
X152354765Y-41223843D01*
X152107000Y-41174560D01*
X150407000Y-41174560D01*
X150159235Y-41223843D01*
X149949191Y-41364191D01*
X149808843Y-41574235D01*
X149759560Y-41822000D01*
X149759560Y-43522000D01*
X149808843Y-43769765D01*
X149873814Y-43867000D01*
X145871000Y-43867000D01*
X145871000Y-38813952D01*
X146072837Y-39039764D01*
X146542169Y-39265727D01*
X146748500Y-39143206D01*
X146748500Y-38100000D01*
X147002500Y-38100000D01*
X147002500Y-39143206D01*
X147208831Y-39265727D01*
X147678163Y-39039764D01*
X148025297Y-38651396D01*
X148168216Y-38306329D01*
X148044874Y-38100000D01*
X147002500Y-38100000D01*
X146748500Y-38100000D01*
X146728500Y-38100000D01*
X146728500Y-37846000D01*
X146748500Y-37846000D01*
X146748500Y-37826000D01*
X147002500Y-37826000D01*
X147002500Y-37846000D01*
X148044874Y-37846000D01*
X148168216Y-37639671D01*
X148025297Y-37294604D01*
X147678163Y-36906236D01*
X147629912Y-36883005D01*
X147631717Y-36882258D01*
X148007258Y-36506717D01*
X148210500Y-36016048D01*
X148210500Y-35750500D01*
X153134346Y-35750500D01*
X153237958Y-36271391D01*
X153533019Y-36712981D01*
X153733552Y-36846973D01*
X153363742Y-37216783D01*
X153160500Y-37707452D01*
X153160500Y-38238548D01*
X153363742Y-38729217D01*
X153739283Y-39104758D01*
X154229952Y-39308000D01*
X154761048Y-39308000D01*
X155251717Y-39104758D01*
X155627258Y-38729217D01*
X155830500Y-38238548D01*
X155830500Y-37707452D01*
X155627258Y-37216783D01*
X155257448Y-36846973D01*
X155457981Y-36712981D01*
X155753042Y-36271391D01*
X155856654Y-35750500D01*
X155809614Y-35514016D01*
X156366569Y-34957061D01*
X161252000Y-34957061D01*
X161252000Y-35527939D01*
X161470466Y-36055362D01*
X161874138Y-36459034D01*
X162401561Y-36677500D01*
X162972439Y-36677500D01*
X163023302Y-36656432D01*
X166984618Y-40617749D01*
X167027129Y-40681371D01*
X167090751Y-40723882D01*
X167279181Y-40849787D01*
X167279182Y-40849787D01*
X167279183Y-40849788D01*
X167501452Y-40894000D01*
X167501456Y-40894000D01*
X167576499Y-40908927D01*
X167651542Y-40894000D01*
X180201457Y-40894000D01*
X180276500Y-40908927D01*
X180351543Y-40894000D01*
X180351548Y-40894000D01*
X180573817Y-40849788D01*
X180825871Y-40681371D01*
X180868383Y-40617747D01*
X181524250Y-39961881D01*
X181587871Y-39919371D01*
X181756288Y-39667317D01*
X181800500Y-39445048D01*
X181800500Y-39445047D01*
X181815428Y-39370000D01*
X181809089Y-39338131D01*
X182042952Y-39435000D01*
X182574048Y-39435000D01*
X183064717Y-39231758D01*
X183440258Y-38856217D01*
X183643500Y-38365548D01*
X183643500Y-37834452D01*
X183440258Y-37343783D01*
X183064717Y-36968242D01*
X182574048Y-36765000D01*
X182042952Y-36765000D01*
X181552283Y-36968242D01*
X181182525Y-37338000D01*
X181113548Y-37338000D01*
X181077880Y-37330905D01*
X180715217Y-36968242D01*
X180224548Y-36765000D01*
X179693452Y-36765000D01*
X179202783Y-36968242D01*
X178827242Y-37343783D01*
X178759221Y-37507999D01*
X178717042Y-37406169D01*
X178481275Y-37344331D01*
X177725605Y-38100000D01*
X178481275Y-38855669D01*
X178717042Y-38793831D01*
X178755802Y-38683745D01*
X178827242Y-38856217D01*
X179202783Y-39231758D01*
X179536528Y-39370000D01*
X178000925Y-39370000D01*
X178239831Y-39271042D01*
X178301669Y-39035275D01*
X177546000Y-38279605D01*
X176790331Y-39035275D01*
X176852169Y-39271042D01*
X177133233Y-39370000D01*
X167892131Y-39370000D01*
X166429253Y-37907122D01*
X176198581Y-37907122D01*
X176227336Y-38437440D01*
X176374958Y-38793831D01*
X176610725Y-38855669D01*
X177366395Y-38100000D01*
X176610725Y-37344331D01*
X176374958Y-37406169D01*
X176198581Y-37907122D01*
X166429253Y-37907122D01*
X165686856Y-37164725D01*
X176790331Y-37164725D01*
X177546000Y-37920395D01*
X178301669Y-37164725D01*
X178239831Y-36928958D01*
X177738878Y-36752581D01*
X177208560Y-36781336D01*
X176852169Y-36928958D01*
X176790331Y-37164725D01*
X165686856Y-37164725D01*
X164772376Y-36250245D01*
X166858861Y-36250245D01*
X166932995Y-36496364D01*
X167470223Y-36689465D01*
X168040454Y-36662278D01*
X168441005Y-36496364D01*
X168515139Y-36250245D01*
X167687000Y-35422105D01*
X166858861Y-36250245D01*
X164772376Y-36250245D01*
X164100932Y-35578802D01*
X164122000Y-35527939D01*
X164122000Y-35025723D01*
X166240035Y-35025723D01*
X166267222Y-35595954D01*
X166433136Y-35996505D01*
X166679255Y-36070639D01*
X167507395Y-35242500D01*
X167866605Y-35242500D01*
X168694745Y-36070639D01*
X168940864Y-35996505D01*
X169133965Y-35459277D01*
X169106778Y-34889046D01*
X168940864Y-34488495D01*
X168694745Y-34414361D01*
X167866605Y-35242500D01*
X167507395Y-35242500D01*
X166679255Y-34414361D01*
X166433136Y-34488495D01*
X166240035Y-35025723D01*
X164122000Y-35025723D01*
X164122000Y-34957061D01*
X163903534Y-34429638D01*
X163708651Y-34234755D01*
X166858861Y-34234755D01*
X167687000Y-35062895D01*
X168515139Y-34234755D01*
X168441005Y-33988636D01*
X167903777Y-33795535D01*
X167333546Y-33822722D01*
X166932995Y-33988636D01*
X166858861Y-34234755D01*
X163708651Y-34234755D01*
X163499862Y-34025966D01*
X162972439Y-33807500D01*
X162401561Y-33807500D01*
X161874138Y-34025966D01*
X161470466Y-34429638D01*
X161252000Y-34957061D01*
X156366569Y-34957061D01*
X158600750Y-32722881D01*
X158664371Y-32680371D01*
X158832788Y-32428317D01*
X158877000Y-32206048D01*
X158877000Y-32206043D01*
X158891927Y-32131000D01*
X158877000Y-32055957D01*
X158877000Y-30480000D01*
X176184846Y-30480000D01*
X176288458Y-31000891D01*
X176583519Y-31442481D01*
X177025109Y-31737542D01*
X177414515Y-31815000D01*
X177677485Y-31815000D01*
X178066891Y-31737542D01*
X178508481Y-31442481D01*
X178752500Y-31077281D01*
X178996519Y-31442481D01*
X179438109Y-31737542D01*
X179827515Y-31815000D01*
X180090485Y-31815000D01*
X180479891Y-31737542D01*
X180921481Y-31442481D01*
X181133750Y-31124798D01*
X181346019Y-31442481D01*
X181787609Y-31737542D01*
X182177015Y-31815000D01*
X182439985Y-31815000D01*
X182829391Y-31737542D01*
X183270981Y-31442481D01*
X183566042Y-31000891D01*
X183669654Y-30480000D01*
X183566042Y-29959109D01*
X183270981Y-29517519D01*
X182829391Y-29222458D01*
X182439985Y-29145000D01*
X182177015Y-29145000D01*
X181787609Y-29222458D01*
X181346019Y-29517519D01*
X181133750Y-29835202D01*
X180921481Y-29517519D01*
X180479891Y-29222458D01*
X180090485Y-29145000D01*
X179827515Y-29145000D01*
X179438109Y-29222458D01*
X178996519Y-29517519D01*
X178752500Y-29882719D01*
X178508481Y-29517519D01*
X178066891Y-29222458D01*
X177677485Y-29145000D01*
X177414515Y-29145000D01*
X177025109Y-29222458D01*
X176583519Y-29517519D01*
X176288458Y-29959109D01*
X176184846Y-30480000D01*
X158877000Y-30480000D01*
X158877000Y-25312000D01*
X177318560Y-25312000D01*
X177318560Y-27012000D01*
X177367843Y-27259765D01*
X177508191Y-27469809D01*
X177718235Y-27610157D01*
X177966000Y-27659440D01*
X179666000Y-27659440D01*
X179913765Y-27610157D01*
X180123809Y-27469809D01*
X180264157Y-27259765D01*
X180284739Y-27156292D01*
X180589076Y-27433645D01*
X180999110Y-27603476D01*
X181229000Y-27482155D01*
X181229000Y-26289000D01*
X181483000Y-26289000D01*
X181483000Y-27482155D01*
X181712890Y-27603476D01*
X182122924Y-27433645D01*
X182551183Y-27043358D01*
X182797486Y-26518892D01*
X182676819Y-26289000D01*
X181483000Y-26289000D01*
X181229000Y-26289000D01*
X181209000Y-26289000D01*
X181209000Y-26035000D01*
X181229000Y-26035000D01*
X181229000Y-24841845D01*
X181483000Y-24841845D01*
X181483000Y-26035000D01*
X182676819Y-26035000D01*
X182797486Y-25805108D01*
X182551183Y-25280642D01*
X182122924Y-24890355D01*
X181712890Y-24720524D01*
X181483000Y-24841845D01*
X181229000Y-24841845D01*
X180999110Y-24720524D01*
X180589076Y-24890355D01*
X180284739Y-25167708D01*
X180264157Y-25064235D01*
X180123809Y-24854191D01*
X179913765Y-24713843D01*
X179666000Y-24664560D01*
X177966000Y-24664560D01*
X177718235Y-24713843D01*
X177508191Y-24854191D01*
X177367843Y-25064235D01*
X177318560Y-25312000D01*
X158877000Y-25312000D01*
X158877000Y-22286630D01*
X159851738Y-21311892D01*
X175977514Y-21311892D01*
X176223817Y-21836358D01*
X176652076Y-22226645D01*
X177062110Y-22396476D01*
X177292000Y-22275155D01*
X177292000Y-21082000D01*
X176098181Y-21082000D01*
X175977514Y-21311892D01*
X159851738Y-21311892D01*
X160061249Y-21102382D01*
X160124871Y-21059871D01*
X160293288Y-20807817D01*
X160335001Y-20598108D01*
X175977514Y-20598108D01*
X176098181Y-20828000D01*
X177292000Y-20828000D01*
X177292000Y-19634845D01*
X177546000Y-19634845D01*
X177546000Y-20828000D01*
X177566000Y-20828000D01*
X177566000Y-21082000D01*
X177546000Y-21082000D01*
X177546000Y-22275155D01*
X177775890Y-22396476D01*
X178185924Y-22226645D01*
X178614183Y-21836358D01*
X178675157Y-21706522D01*
X178888375Y-22025625D01*
X179379582Y-22353839D01*
X179812744Y-22440000D01*
X180105256Y-22440000D01*
X180538418Y-22353839D01*
X181029625Y-22025625D01*
X181041816Y-22007381D01*
X181050843Y-22052765D01*
X181191191Y-22262809D01*
X181401235Y-22403157D01*
X181649000Y-22452440D01*
X183349000Y-22452440D01*
X183596765Y-22403157D01*
X183806809Y-22262809D01*
X183947157Y-22052765D01*
X183996440Y-21805000D01*
X183996440Y-20105000D01*
X183947157Y-19857235D01*
X183806809Y-19647191D01*
X183596765Y-19506843D01*
X183349000Y-19457560D01*
X181649000Y-19457560D01*
X181401235Y-19506843D01*
X181191191Y-19647191D01*
X181050843Y-19857235D01*
X181041816Y-19902619D01*
X181029625Y-19884375D01*
X180538418Y-19556161D01*
X180105256Y-19470000D01*
X179812744Y-19470000D01*
X179379582Y-19556161D01*
X178888375Y-19884375D01*
X178675157Y-20203478D01*
X178614183Y-20073642D01*
X178185924Y-19683355D01*
X177775890Y-19513524D01*
X177546000Y-19634845D01*
X177292000Y-19634845D01*
X177062110Y-19513524D01*
X176652076Y-19683355D01*
X176223817Y-20073642D01*
X175977514Y-20598108D01*
X160335001Y-20598108D01*
X160337500Y-20585548D01*
X160337500Y-20585543D01*
X160352427Y-20510500D01*
X160337500Y-20435457D01*
X160337500Y-19561211D01*
X160452931Y-19445780D01*
X160610500Y-19065374D01*
X160610500Y-18653626D01*
X160452931Y-18273220D01*
X160161780Y-17982069D01*
X159781374Y-17824500D01*
X159369626Y-17824500D01*
X158989220Y-17982069D01*
X158698069Y-18273220D01*
X158540500Y-18653626D01*
X158540500Y-19065374D01*
X158698069Y-19445780D01*
X158813500Y-19561211D01*
X158813501Y-20194868D01*
X157629251Y-21379119D01*
X157565630Y-21421629D01*
X157523119Y-21485251D01*
X157523118Y-21485252D01*
X157397213Y-21673683D01*
X157338073Y-21971000D01*
X157353001Y-22046048D01*
X157353000Y-31815369D01*
X154731984Y-34436386D01*
X154626985Y-34415500D01*
X154364015Y-34415500D01*
X153974609Y-34492958D01*
X153533019Y-34788019D01*
X153237958Y-35229609D01*
X153134346Y-35750500D01*
X148210500Y-35750500D01*
X148210500Y-35484952D01*
X148007258Y-34994283D01*
X147631717Y-34618742D01*
X147141048Y-34415500D01*
X146609952Y-34415500D01*
X146119283Y-34618742D01*
X145871000Y-34867025D01*
X145871000Y-32999492D01*
X146103519Y-33347481D01*
X146545109Y-33642542D01*
X146934515Y-33720000D01*
X147197485Y-33720000D01*
X147586891Y-33642542D01*
X148028481Y-33347481D01*
X148323542Y-32905891D01*
X148427154Y-32385000D01*
X148323542Y-31864109D01*
X148028481Y-31422519D01*
X147586891Y-31127458D01*
X147197485Y-31050000D01*
X146934515Y-31050000D01*
X146545109Y-31127458D01*
X146103519Y-31422519D01*
X145871000Y-31770508D01*
X145871000Y-24901532D01*
X146451073Y-24901532D01*
X146549736Y-25168387D01*
X147159461Y-25394908D01*
X147809460Y-25370856D01*
X148298264Y-25168387D01*
X148396927Y-24901532D01*
X147424000Y-23928605D01*
X146451073Y-24901532D01*
X145871000Y-24901532D01*
X145871000Y-24300693D01*
X146004613Y-24623264D01*
X146271468Y-24721927D01*
X147244395Y-23749000D01*
X147603605Y-23749000D01*
X148576532Y-24721927D01*
X148843387Y-24623264D01*
X149069908Y-24013539D01*
X149045856Y-23363540D01*
X148843387Y-22874736D01*
X148576532Y-22776073D01*
X147603605Y-23749000D01*
X147244395Y-23749000D01*
X146271468Y-22776073D01*
X146004613Y-22874736D01*
X145871000Y-23234381D01*
X145871000Y-22596468D01*
X146451073Y-22596468D01*
X147424000Y-23569395D01*
X148396927Y-22596468D01*
X148298264Y-22329613D01*
X147688539Y-22103092D01*
X147038540Y-22127144D01*
X146549736Y-22329613D01*
X146451073Y-22596468D01*
X145871000Y-22596468D01*
X145871000Y-19772187D01*
X146037914Y-20175153D01*
X146497847Y-20635086D01*
X147098778Y-20884000D01*
X147749222Y-20884000D01*
X148350153Y-20635086D01*
X148810086Y-20175153D01*
X149059000Y-19574222D01*
X149059000Y-18923778D01*
X148810086Y-18322847D01*
X148350153Y-17862914D01*
X147749222Y-17614000D01*
X147372614Y-17614000D01*
X147774481Y-17345481D01*
X147908438Y-17145000D01*
X151320501Y-17145000D01*
X151320500Y-27023376D01*
X150883918Y-26731661D01*
X150450756Y-26645500D01*
X150158244Y-26645500D01*
X149725082Y-26731661D01*
X149233875Y-27059875D01*
X149221684Y-27078119D01*
X149212657Y-27032735D01*
X149072309Y-26822691D01*
X148862265Y-26682343D01*
X148614500Y-26633060D01*
X146914500Y-26633060D01*
X146666735Y-26682343D01*
X146456691Y-26822691D01*
X146316343Y-27032735D01*
X146267060Y-27280500D01*
X146267060Y-28980500D01*
X146316343Y-29228265D01*
X146456691Y-29438309D01*
X146666735Y-29578657D01*
X146914500Y-29627940D01*
X148614500Y-29627940D01*
X148862265Y-29578657D01*
X149072309Y-29438309D01*
X149212657Y-29228265D01*
X149221684Y-29182881D01*
X149233875Y-29201125D01*
X149725082Y-29529339D01*
X150158244Y-29615500D01*
X150450756Y-29615500D01*
X150883918Y-29529339D01*
X151375125Y-29201125D01*
X151641219Y-28802887D01*
X153924001Y-31085670D01*
X153924001Y-31259024D01*
X153554242Y-31628783D01*
X153351000Y-32119452D01*
X153351000Y-32650548D01*
X153554242Y-33141217D01*
X153929783Y-33516758D01*
X154420452Y-33720000D01*
X154951548Y-33720000D01*
X155442217Y-33516758D01*
X155817758Y-33141217D01*
X156021000Y-32650548D01*
X156021000Y-32119452D01*
X155817758Y-31628783D01*
X155448000Y-31259025D01*
X155448000Y-30845080D01*
X155462927Y-30770037D01*
X155448000Y-30694994D01*
X155448000Y-30694990D01*
X155403788Y-30472721D01*
X155235371Y-30220667D01*
X155171749Y-30178156D01*
X152844500Y-27850908D01*
X152844500Y-25008108D01*
X152951074Y-24901534D01*
X153049736Y-25168387D01*
X153659461Y-25394908D01*
X154309460Y-25370856D01*
X154798264Y-25168387D01*
X154896927Y-24901532D01*
X153924000Y-23928605D01*
X153909858Y-23942748D01*
X153730253Y-23763143D01*
X153744395Y-23749000D01*
X154103605Y-23749000D01*
X155076532Y-24721927D01*
X155343387Y-24623264D01*
X155569908Y-24013539D01*
X155545856Y-23363540D01*
X155343387Y-22874736D01*
X155076532Y-22776073D01*
X154103605Y-23749000D01*
X153744395Y-23749000D01*
X153730253Y-23734858D01*
X153909858Y-23555253D01*
X153924000Y-23569395D01*
X154896927Y-22596468D01*
X154798264Y-22329613D01*
X154188539Y-22103092D01*
X153538540Y-22127144D01*
X153049736Y-22329613D01*
X152951074Y-22596466D01*
X152844500Y-22489892D01*
X152844500Y-20481739D01*
X152997847Y-20635086D01*
X153598778Y-20884000D01*
X154249222Y-20884000D01*
X154850153Y-20635086D01*
X155310086Y-20175153D01*
X155559000Y-19574222D01*
X155559000Y-18923778D01*
X155310086Y-18322847D01*
X154850153Y-17862914D01*
X154500300Y-17718000D01*
X154697548Y-17718000D01*
X155188217Y-17514758D01*
X155563758Y-17139217D01*
X155767000Y-16648548D01*
X155767000Y-16117452D01*
X155563758Y-15626783D01*
X155251975Y-15315000D01*
X184456001Y-15315000D01*
X184456000Y-43867000D01*
X184456000Y-43867000D01*
G37*
X184456000Y-43867000D02*
X180081485Y-43867000D01*
X180267625Y-43742625D01*
X180595839Y-43251418D01*
X180711092Y-42672000D01*
X180595839Y-42092582D01*
X180267625Y-41601375D01*
X179776418Y-41273161D01*
X179343256Y-41187000D01*
X179050744Y-41187000D01*
X178617582Y-41273161D01*
X178126375Y-41601375D01*
X177927000Y-41899761D01*
X177727625Y-41601375D01*
X177236418Y-41273161D01*
X176803256Y-41187000D01*
X176510744Y-41187000D01*
X176077582Y-41273161D01*
X175586375Y-41601375D01*
X175387000Y-41899761D01*
X175187625Y-41601375D01*
X174696418Y-41273161D01*
X174263256Y-41187000D01*
X173970744Y-41187000D01*
X173537582Y-41273161D01*
X173046375Y-41601375D01*
X172847000Y-41899761D01*
X172647625Y-41601375D01*
X172156418Y-41273161D01*
X171723256Y-41187000D01*
X171430744Y-41187000D01*
X170997582Y-41273161D01*
X170506375Y-41601375D01*
X170307000Y-41899761D01*
X170107625Y-41601375D01*
X169616418Y-41273161D01*
X169183256Y-41187000D01*
X168890744Y-41187000D01*
X168457582Y-41273161D01*
X167966375Y-41601375D01*
X167767000Y-41899761D01*
X167567625Y-41601375D01*
X167076418Y-41273161D01*
X166643256Y-41187000D01*
X166350744Y-41187000D01*
X165917582Y-41273161D01*
X165426375Y-41601375D01*
X165213157Y-41920478D01*
X165152183Y-41790642D01*
X164723924Y-41400355D01*
X164313890Y-41230524D01*
X164084000Y-41351845D01*
X164084000Y-42545000D01*
X164104000Y-42545000D01*
X164104000Y-42799000D01*
X164084000Y-42799000D01*
X164084000Y-42819000D01*
X163830000Y-42819000D01*
X163830000Y-42799000D01*
X163810000Y-42799000D01*
X163810000Y-42545000D01*
X163830000Y-42545000D01*
X163830000Y-41351845D01*
X163600110Y-41230524D01*
X163190076Y-41400355D01*
X162761817Y-41790642D01*
X162700843Y-41920478D01*
X162487625Y-41601375D01*
X161996418Y-41273161D01*
X161563256Y-41187000D01*
X161270744Y-41187000D01*
X160837582Y-41273161D01*
X160346375Y-41601375D01*
X160147000Y-41899761D01*
X159947625Y-41601375D01*
X159456418Y-41273161D01*
X159023256Y-41187000D01*
X158730744Y-41187000D01*
X158297582Y-41273161D01*
X157806375Y-41601375D01*
X157607000Y-41899761D01*
X157407625Y-41601375D01*
X156916418Y-41273161D01*
X156483256Y-41187000D01*
X156190744Y-41187000D01*
X155757582Y-41273161D01*
X155266375Y-41601375D01*
X155067000Y-41899761D01*
X154867625Y-41601375D01*
X154376418Y-41273161D01*
X153943256Y-41187000D01*
X153650744Y-41187000D01*
X153217582Y-41273161D01*
X152726375Y-41601375D01*
X152714184Y-41619619D01*
X152705157Y-41574235D01*
X152564809Y-41364191D01*
X152354765Y-41223843D01*
X152107000Y-41174560D01*
X150407000Y-41174560D01*
X150159235Y-41223843D01*
X149949191Y-41364191D01*
X149808843Y-41574235D01*
X149759560Y-41822000D01*
X149759560Y-43522000D01*
X149808843Y-43769765D01*
X149873814Y-43867000D01*
X145871000Y-43867000D01*
X145871000Y-38813952D01*
X146072837Y-39039764D01*
X146542169Y-39265727D01*
X146748500Y-39143206D01*
X146748500Y-38100000D01*
X147002500Y-38100000D01*
X147002500Y-39143206D01*
X147208831Y-39265727D01*
X147678163Y-39039764D01*
X148025297Y-38651396D01*
X148168216Y-38306329D01*
X148044874Y-38100000D01*
X147002500Y-38100000D01*
X146748500Y-38100000D01*
X146728500Y-38100000D01*
X146728500Y-37846000D01*
X146748500Y-37846000D01*
X146748500Y-37826000D01*
X147002500Y-37826000D01*
X147002500Y-37846000D01*
X148044874Y-37846000D01*
X148168216Y-37639671D01*
X148025297Y-37294604D01*
X147678163Y-36906236D01*
X147629912Y-36883005D01*
X147631717Y-36882258D01*
X148007258Y-36506717D01*
X148210500Y-36016048D01*
X148210500Y-35750500D01*
X153134346Y-35750500D01*
X153237958Y-36271391D01*
X153533019Y-36712981D01*
X153733552Y-36846973D01*
X153363742Y-37216783D01*
X153160500Y-37707452D01*
X153160500Y-38238548D01*
X153363742Y-38729217D01*
X153739283Y-39104758D01*
X154229952Y-39308000D01*
X154761048Y-39308000D01*
X155251717Y-39104758D01*
X155627258Y-38729217D01*
X155830500Y-38238548D01*
X155830500Y-37707452D01*
X155627258Y-37216783D01*
X155257448Y-36846973D01*
X155457981Y-36712981D01*
X155753042Y-36271391D01*
X155856654Y-35750500D01*
X155809614Y-35514016D01*
X156366569Y-34957061D01*
X161252000Y-34957061D01*
X161252000Y-35527939D01*
X161470466Y-36055362D01*
X161874138Y-36459034D01*
X162401561Y-36677500D01*
X162972439Y-36677500D01*
X163023302Y-36656432D01*
X166984618Y-40617749D01*
X167027129Y-40681371D01*
X167090751Y-40723882D01*
X167279181Y-40849787D01*
X167279182Y-40849787D01*
X167279183Y-40849788D01*
X167501452Y-40894000D01*
X167501456Y-40894000D01*
X167576499Y-40908927D01*
X167651542Y-40894000D01*
X180201457Y-40894000D01*
X180276500Y-40908927D01*
X180351543Y-40894000D01*
X180351548Y-40894000D01*
X180573817Y-40849788D01*
X180825871Y-40681371D01*
X180868383Y-40617747D01*
X181524250Y-39961881D01*
X181587871Y-39919371D01*
X181756288Y-39667317D01*
X181800500Y-39445048D01*
X181800500Y-39445047D01*
X181815428Y-39370000D01*
X181809089Y-39338131D01*
X182042952Y-39435000D01*
X182574048Y-39435000D01*
X183064717Y-39231758D01*
X183440258Y-38856217D01*
X183643500Y-38365548D01*
X183643500Y-37834452D01*
X183440258Y-37343783D01*
X183064717Y-36968242D01*
X182574048Y-36765000D01*
X182042952Y-36765000D01*
X181552283Y-36968242D01*
X181182525Y-37338000D01*
X181113548Y-37338000D01*
X181077880Y-37330905D01*
X180715217Y-36968242D01*
X180224548Y-36765000D01*
X179693452Y-36765000D01*
X179202783Y-36968242D01*
X178827242Y-37343783D01*
X178759221Y-37507999D01*
X178717042Y-37406169D01*
X178481275Y-37344331D01*
X177725605Y-38100000D01*
X178481275Y-38855669D01*
X178717042Y-38793831D01*
X178755802Y-38683745D01*
X178827242Y-38856217D01*
X179202783Y-39231758D01*
X179536528Y-39370000D01*
X178000925Y-39370000D01*
X178239831Y-39271042D01*
X178301669Y-39035275D01*
X177546000Y-38279605D01*
X176790331Y-39035275D01*
X176852169Y-39271042D01*
X177133233Y-39370000D01*
X167892131Y-39370000D01*
X166429253Y-37907122D01*
X176198581Y-37907122D01*
X176227336Y-38437440D01*
X176374958Y-38793831D01*
X176610725Y-38855669D01*
X177366395Y-38100000D01*
X176610725Y-37344331D01*
X176374958Y-37406169D01*
X176198581Y-37907122D01*
X166429253Y-37907122D01*
X165686856Y-37164725D01*
X176790331Y-37164725D01*
X177546000Y-37920395D01*
X178301669Y-37164725D01*
X178239831Y-36928958D01*
X177738878Y-36752581D01*
X177208560Y-36781336D01*
X176852169Y-36928958D01*
X176790331Y-37164725D01*
X165686856Y-37164725D01*
X164772376Y-36250245D01*
X166858861Y-36250245D01*
X166932995Y-36496364D01*
X167470223Y-36689465D01*
X168040454Y-36662278D01*
X168441005Y-36496364D01*
X168515139Y-36250245D01*
X167687000Y-35422105D01*
X166858861Y-36250245D01*
X164772376Y-36250245D01*
X164100932Y-35578802D01*
X164122000Y-35527939D01*
X164122000Y-35025723D01*
X166240035Y-35025723D01*
X166267222Y-35595954D01*
X166433136Y-35996505D01*
X166679255Y-36070639D01*
X167507395Y-35242500D01*
X167866605Y-35242500D01*
X168694745Y-36070639D01*
X168940864Y-35996505D01*
X169133965Y-35459277D01*
X169106778Y-34889046D01*
X168940864Y-34488495D01*
X168694745Y-34414361D01*
X167866605Y-35242500D01*
X167507395Y-35242500D01*
X166679255Y-34414361D01*
X166433136Y-34488495D01*
X166240035Y-35025723D01*
X164122000Y-35025723D01*
X164122000Y-34957061D01*
X163903534Y-34429638D01*
X163708651Y-34234755D01*
X166858861Y-34234755D01*
X167687000Y-35062895D01*
X168515139Y-34234755D01*
X168441005Y-33988636D01*
X167903777Y-33795535D01*
X167333546Y-33822722D01*
X166932995Y-33988636D01*
X166858861Y-34234755D01*
X163708651Y-34234755D01*
X163499862Y-34025966D01*
X162972439Y-33807500D01*
X162401561Y-33807500D01*
X161874138Y-34025966D01*
X161470466Y-34429638D01*
X161252000Y-34957061D01*
X156366569Y-34957061D01*
X158600750Y-32722881D01*
X158664371Y-32680371D01*
X158832788Y-32428317D01*
X158877000Y-32206048D01*
X158877000Y-32206043D01*
X158891927Y-32131000D01*
X158877000Y-32055957D01*
X158877000Y-30480000D01*
X176184846Y-30480000D01*
X176288458Y-31000891D01*
X176583519Y-31442481D01*
X177025109Y-31737542D01*
X177414515Y-31815000D01*
X177677485Y-31815000D01*
X178066891Y-31737542D01*
X178508481Y-31442481D01*
X178752500Y-31077281D01*
X178996519Y-31442481D01*
X179438109Y-31737542D01*
X179827515Y-31815000D01*
X180090485Y-31815000D01*
X180479891Y-31737542D01*
X180921481Y-31442481D01*
X181133750Y-31124798D01*
X181346019Y-31442481D01*
X181787609Y-31737542D01*
X182177015Y-31815000D01*
X182439985Y-31815000D01*
X182829391Y-31737542D01*
X183270981Y-31442481D01*
X183566042Y-31000891D01*
X183669654Y-30480000D01*
X183566042Y-29959109D01*
X183270981Y-29517519D01*
X182829391Y-29222458D01*
X182439985Y-29145000D01*
X182177015Y-29145000D01*
X181787609Y-29222458D01*
X181346019Y-29517519D01*
X181133750Y-29835202D01*
X180921481Y-29517519D01*
X180479891Y-29222458D01*
X180090485Y-29145000D01*
X179827515Y-29145000D01*
X179438109Y-29222458D01*
X178996519Y-29517519D01*
X178752500Y-29882719D01*
X178508481Y-29517519D01*
X178066891Y-29222458D01*
X177677485Y-29145000D01*
X177414515Y-29145000D01*
X177025109Y-29222458D01*
X176583519Y-29517519D01*
X176288458Y-29959109D01*
X176184846Y-30480000D01*
X158877000Y-30480000D01*
X158877000Y-25312000D01*
X177318560Y-25312000D01*
X177318560Y-27012000D01*
X177367843Y-27259765D01*
X177508191Y-27469809D01*
X177718235Y-27610157D01*
X177966000Y-27659440D01*
X179666000Y-27659440D01*
X179913765Y-27610157D01*
X180123809Y-27469809D01*
X180264157Y-27259765D01*
X180284739Y-27156292D01*
X180589076Y-27433645D01*
X180999110Y-27603476D01*
X181229000Y-27482155D01*
X181229000Y-26289000D01*
X181483000Y-26289000D01*
X181483000Y-27482155D01*
X181712890Y-27603476D01*
X182122924Y-27433645D01*
X182551183Y-27043358D01*
X182797486Y-26518892D01*
X182676819Y-26289000D01*
X181483000Y-26289000D01*
X181229000Y-26289000D01*
X181209000Y-26289000D01*
X181209000Y-26035000D01*
X181229000Y-26035000D01*
X181229000Y-24841845D01*
X181483000Y-24841845D01*
X181483000Y-26035000D01*
X182676819Y-26035000D01*
X182797486Y-25805108D01*
X182551183Y-25280642D01*
X182122924Y-24890355D01*
X181712890Y-24720524D01*
X181483000Y-24841845D01*
X181229000Y-24841845D01*
X180999110Y-24720524D01*
X180589076Y-24890355D01*
X180284739Y-25167708D01*
X180264157Y-25064235D01*
X180123809Y-24854191D01*
X179913765Y-24713843D01*
X179666000Y-24664560D01*
X177966000Y-24664560D01*
X177718235Y-24713843D01*
X177508191Y-24854191D01*
X177367843Y-25064235D01*
X177318560Y-25312000D01*
X158877000Y-25312000D01*
X158877000Y-22286630D01*
X159851738Y-21311892D01*
X175977514Y-21311892D01*
X176223817Y-21836358D01*
X176652076Y-22226645D01*
X177062110Y-22396476D01*
X177292000Y-22275155D01*
X177292000Y-21082000D01*
X176098181Y-21082000D01*
X175977514Y-21311892D01*
X159851738Y-21311892D01*
X160061249Y-21102382D01*
X160124871Y-21059871D01*
X160293288Y-20807817D01*
X160335001Y-20598108D01*
X175977514Y-20598108D01*
X176098181Y-20828000D01*
X177292000Y-20828000D01*
X177292000Y-19634845D01*
X177546000Y-19634845D01*
X177546000Y-20828000D01*
X177566000Y-20828000D01*
X177566000Y-21082000D01*
X177546000Y-21082000D01*
X177546000Y-22275155D01*
X177775890Y-22396476D01*
X178185924Y-22226645D01*
X178614183Y-21836358D01*
X178675157Y-21706522D01*
X178888375Y-22025625D01*
X179379582Y-22353839D01*
X179812744Y-22440000D01*
X180105256Y-22440000D01*
X180538418Y-22353839D01*
X181029625Y-22025625D01*
X181041816Y-22007381D01*
X181050843Y-22052765D01*
X181191191Y-22262809D01*
X181401235Y-22403157D01*
X181649000Y-22452440D01*
X183349000Y-22452440D01*
X183596765Y-22403157D01*
X183806809Y-22262809D01*
X183947157Y-22052765D01*
X183996440Y-21805000D01*
X183996440Y-20105000D01*
X183947157Y-19857235D01*
X183806809Y-19647191D01*
X183596765Y-19506843D01*
X183349000Y-19457560D01*
X181649000Y-19457560D01*
X181401235Y-19506843D01*
X181191191Y-19647191D01*
X181050843Y-19857235D01*
X181041816Y-19902619D01*
X181029625Y-19884375D01*
X180538418Y-19556161D01*
X180105256Y-19470000D01*
X179812744Y-19470000D01*
X179379582Y-19556161D01*
X178888375Y-19884375D01*
X178675157Y-20203478D01*
X178614183Y-20073642D01*
X178185924Y-19683355D01*
X177775890Y-19513524D01*
X177546000Y-19634845D01*
X177292000Y-19634845D01*
X177062110Y-19513524D01*
X176652076Y-19683355D01*
X176223817Y-20073642D01*
X175977514Y-20598108D01*
X160335001Y-20598108D01*
X160337500Y-20585548D01*
X160337500Y-20585543D01*
X160352427Y-20510500D01*
X160337500Y-20435457D01*
X160337500Y-19561211D01*
X160452931Y-19445780D01*
X160610500Y-19065374D01*
X160610500Y-18653626D01*
X160452931Y-18273220D01*
X160161780Y-17982069D01*
X159781374Y-17824500D01*
X159369626Y-17824500D01*
X158989220Y-17982069D01*
X158698069Y-18273220D01*
X158540500Y-18653626D01*
X158540500Y-19065374D01*
X158698069Y-19445780D01*
X158813500Y-19561211D01*
X158813501Y-20194868D01*
X157629251Y-21379119D01*
X157565630Y-21421629D01*
X157523119Y-21485251D01*
X157523118Y-21485252D01*
X157397213Y-21673683D01*
X157338073Y-21971000D01*
X157353001Y-22046048D01*
X157353000Y-31815369D01*
X154731984Y-34436386D01*
X154626985Y-34415500D01*
X154364015Y-34415500D01*
X153974609Y-34492958D01*
X153533019Y-34788019D01*
X153237958Y-35229609D01*
X153134346Y-35750500D01*
X148210500Y-35750500D01*
X148210500Y-35484952D01*
X148007258Y-34994283D01*
X147631717Y-34618742D01*
X147141048Y-34415500D01*
X146609952Y-34415500D01*
X146119283Y-34618742D01*
X145871000Y-34867025D01*
X145871000Y-32999492D01*
X146103519Y-33347481D01*
X146545109Y-33642542D01*
X146934515Y-33720000D01*
X147197485Y-33720000D01*
X147586891Y-33642542D01*
X148028481Y-33347481D01*
X148323542Y-32905891D01*
X148427154Y-32385000D01*
X148323542Y-31864109D01*
X148028481Y-31422519D01*
X147586891Y-31127458D01*
X147197485Y-31050000D01*
X146934515Y-31050000D01*
X146545109Y-31127458D01*
X146103519Y-31422519D01*
X145871000Y-31770508D01*
X145871000Y-24901532D01*
X146451073Y-24901532D01*
X146549736Y-25168387D01*
X147159461Y-25394908D01*
X147809460Y-25370856D01*
X148298264Y-25168387D01*
X148396927Y-24901532D01*
X147424000Y-23928605D01*
X146451073Y-24901532D01*
X145871000Y-24901532D01*
X145871000Y-24300693D01*
X146004613Y-24623264D01*
X146271468Y-24721927D01*
X147244395Y-23749000D01*
X147603605Y-23749000D01*
X148576532Y-24721927D01*
X148843387Y-24623264D01*
X149069908Y-24013539D01*
X149045856Y-23363540D01*
X148843387Y-22874736D01*
X148576532Y-22776073D01*
X147603605Y-23749000D01*
X147244395Y-23749000D01*
X146271468Y-22776073D01*
X146004613Y-22874736D01*
X145871000Y-23234381D01*
X145871000Y-22596468D01*
X146451073Y-22596468D01*
X147424000Y-23569395D01*
X148396927Y-22596468D01*
X148298264Y-22329613D01*
X147688539Y-22103092D01*
X147038540Y-22127144D01*
X146549736Y-22329613D01*
X146451073Y-22596468D01*
X145871000Y-22596468D01*
X145871000Y-19772187D01*
X146037914Y-20175153D01*
X146497847Y-20635086D01*
X147098778Y-20884000D01*
X147749222Y-20884000D01*
X148350153Y-20635086D01*
X148810086Y-20175153D01*
X149059000Y-19574222D01*
X149059000Y-18923778D01*
X148810086Y-18322847D01*
X148350153Y-17862914D01*
X147749222Y-17614000D01*
X147372614Y-17614000D01*
X147774481Y-17345481D01*
X147908438Y-17145000D01*
X151320501Y-17145000D01*
X151320500Y-27023376D01*
X150883918Y-26731661D01*
X150450756Y-26645500D01*
X150158244Y-26645500D01*
X149725082Y-26731661D01*
X149233875Y-27059875D01*
X149221684Y-27078119D01*
X149212657Y-27032735D01*
X149072309Y-26822691D01*
X148862265Y-26682343D01*
X148614500Y-26633060D01*
X146914500Y-26633060D01*
X146666735Y-26682343D01*
X146456691Y-26822691D01*
X146316343Y-27032735D01*
X146267060Y-27280500D01*
X146267060Y-28980500D01*
X146316343Y-29228265D01*
X146456691Y-29438309D01*
X146666735Y-29578657D01*
X146914500Y-29627940D01*
X148614500Y-29627940D01*
X148862265Y-29578657D01*
X149072309Y-29438309D01*
X149212657Y-29228265D01*
X149221684Y-29182881D01*
X149233875Y-29201125D01*
X149725082Y-29529339D01*
X150158244Y-29615500D01*
X150450756Y-29615500D01*
X150883918Y-29529339D01*
X151375125Y-29201125D01*
X151641219Y-28802887D01*
X153924001Y-31085670D01*
X153924001Y-31259024D01*
X153554242Y-31628783D01*
X153351000Y-32119452D01*
X153351000Y-32650548D01*
X153554242Y-33141217D01*
X153929783Y-33516758D01*
X154420452Y-33720000D01*
X154951548Y-33720000D01*
X155442217Y-33516758D01*
X155817758Y-33141217D01*
X156021000Y-32650548D01*
X156021000Y-32119452D01*
X155817758Y-31628783D01*
X155448000Y-31259025D01*
X155448000Y-30845080D01*
X155462927Y-30770037D01*
X155448000Y-30694994D01*
X155448000Y-30694990D01*
X155403788Y-30472721D01*
X155235371Y-30220667D01*
X155171749Y-30178156D01*
X152844500Y-27850908D01*
X152844500Y-25008108D01*
X152951074Y-24901534D01*
X153049736Y-25168387D01*
X153659461Y-25394908D01*
X154309460Y-25370856D01*
X154798264Y-25168387D01*
X154896927Y-24901532D01*
X153924000Y-23928605D01*
X153909858Y-23942748D01*
X153730253Y-23763143D01*
X153744395Y-23749000D01*
X154103605Y-23749000D01*
X155076532Y-24721927D01*
X155343387Y-24623264D01*
X155569908Y-24013539D01*
X155545856Y-23363540D01*
X155343387Y-22874736D01*
X155076532Y-22776073D01*
X154103605Y-23749000D01*
X153744395Y-23749000D01*
X153730253Y-23734858D01*
X153909858Y-23555253D01*
X153924000Y-23569395D01*
X154896927Y-22596468D01*
X154798264Y-22329613D01*
X154188539Y-22103092D01*
X153538540Y-22127144D01*
X153049736Y-22329613D01*
X152951074Y-22596466D01*
X152844500Y-22489892D01*
X152844500Y-20481739D01*
X152997847Y-20635086D01*
X153598778Y-20884000D01*
X154249222Y-20884000D01*
X154850153Y-20635086D01*
X155310086Y-20175153D01*
X155559000Y-19574222D01*
X155559000Y-18923778D01*
X155310086Y-18322847D01*
X154850153Y-17862914D01*
X154500300Y-17718000D01*
X154697548Y-17718000D01*
X155188217Y-17514758D01*
X155563758Y-17139217D01*
X155767000Y-16648548D01*
X155767000Y-16117452D01*
X155563758Y-15626783D01*
X155251975Y-15315000D01*
X184456001Y-15315000D01*
X184456000Y-43867000D01*
M02*
